<svg width="100" height="68" viewBox="0 0 100 68" fill="none" xmlns="http://www.w3.org/2000/svg">
<rect width="100" height="68" fill="#F6F5F4" style="fill:#F6F5F4;fill:color(display-p3 0.9647 0.9608 0.9569);fill-opacity:1;"/>
<g clip-path="url(#clip0_12_1989)">
<path d="M86.885 42.0656V39.9798H86.1582V39.6362H88.0032V39.9798H87.2853V42.0656H86.885ZM90.4118 42.0656V40.2675L89.5955 41.3384L88.7792 40.2675V42.0656H88.3543V39.6681H88.7546L89.5709 40.7709L90.3872 39.6681H90.7793V42.0656H90.4118Z" fill="black" style="fill:black;fill-opacity:1;"/>
<path d="M48.3671 41.6901C48.8128 41.534 49.195 41.2412 49.4569 40.8553C49.7188 40.4694 49.8462 40.011 49.8204 39.5483C49.8204 38.062 48.6855 37.1109 46.9139 37.1109H43.2891V46.7007H46.9466C48.9141 46.7007 50.1714 45.6618 50.1714 44.0236C50.1922 43.4905 50.0239 42.9668 49.6951 42.5414C49.3661 42.116 48.897 41.8153 48.3671 41.6901ZM44.2851 37.95H46.8405C48.0814 37.95 48.8733 38.6133 48.8733 39.6763C48.8733 40.7391 48.114 41.3384 46.9058 41.3384H44.2606L44.2851 37.95ZM47.0037 45.8856H44.2606V42.1536H46.9792C48.4161 42.1536 49.2651 42.8249 49.2651 43.9916C49.2651 45.1584 48.3753 45.8856 46.9792 45.8856H47.0037ZM52.1553 37.2308C52.0326 37.2308 51.9126 37.2664 51.8105 37.3331C51.7085 37.3999 51.629 37.4948 51.582 37.6058C51.5351 37.7167 51.5228 37.8389 51.5467 37.9566C51.5706 38.0744 51.6297 38.1827 51.7165 38.2676C51.8033 38.3526 51.9139 38.4104 52.0341 38.4338C52.1545 38.4573 52.2793 38.4453 52.3927 38.3993C52.5061 38.3533 52.603 38.2755 52.6709 38.1756C52.7396 38.0757 52.7756 37.9583 52.7756 37.8381C52.7778 37.7578 52.7636 37.6778 52.7331 37.6032C52.7025 37.5285 52.6573 37.4606 52.599 37.4038C52.5409 37.347 52.4716 37.3022 52.3953 37.2725C52.3191 37.2428 52.2373 37.2286 52.1553 37.2308ZM51.6981 39.6763H52.6124V46.7168H51.6981V39.6763ZM57.2334 39.5004C55.3148 39.5004 54.0331 40.9868 54.0331 43.2245C54.0331 45.4621 55.3066 46.9165 57.2088 46.9165C59.111 46.9165 60.4335 45.4301 60.4335 43.1924C60.4335 40.9549 59.1438 39.5004 57.2334 39.5004ZM57.2334 46.1094C55.8536 46.1094 54.9554 44.9826 54.9554 43.2085C54.9554 41.4343 55.8536 40.3075 57.2334 40.3075C58.6132 40.3075 59.5113 41.4343 59.5113 43.2085C59.5113 44.9826 58.6049 46.1094 57.2252 46.1094H57.2334ZM64.4337 46.1333C63.1194 46.1333 62.254 44.9666 62.254 43.2245C62.254 41.4823 63.1439 40.2836 64.4992 40.2836C64.936 40.2922 65.3586 40.4372 65.705 40.6974C66.0518 40.9575 66.3043 41.3194 66.426 41.73L67.2423 41.3624C67.0411 40.8137 66.6708 40.3398 66.1821 40.0062C65.6935 39.6727 65.1111 39.4959 64.5155 39.5004C62.6215 39.5004 61.3399 41.0028 61.3399 43.2324C61.3399 45.4621 62.5806 46.9165 64.4337 46.9165C65.0478 46.9047 65.6439 46.7135 66.1456 46.3675C66.6479 46.0215 67.0324 45.5363 67.2505 44.9746L66.4341 44.583C66.2951 45.0062 66.0306 45.3795 65.6744 45.6555C65.3183 45.9315 64.8869 46.0977 64.4337 46.1333ZM73.8962 44.8707V41.778C73.8962 40.2276 73.0798 39.4684 71.398 39.4684C70.3405 39.477 69.3027 39.7523 68.3854 40.2676L68.7039 41.0108C69.4723 40.5168 70.365 40.2402 71.2834 40.2116C72.4429 40.2116 72.9817 40.7151 72.9817 41.8099V42.3454C69.3245 42.5452 68.1487 43.1445 68.1487 44.6709C68.1411 44.9792 68.2005 45.2857 68.3238 45.5696C68.447 45.8534 68.6308 46.1084 68.8626 46.3172C69.0944 46.526 69.3692 46.6839 69.6686 46.7804C69.9675 46.8769 70.2844 46.9097 70.5979 46.8766C71.5168 46.8717 72.3965 46.5129 73.0472 45.8776C73.0875 46.0975 73.1834 46.304 73.3258 46.4784C73.4687 46.6528 73.653 46.7896 73.8635 46.8766L74.4432 46.3731C73.9939 46.1174 73.8962 45.7738 73.8962 44.8707ZM72.9817 45.1584C72.7128 45.4662 72.3801 45.7146 72.0061 45.8868C71.6314 46.059 71.224 46.1512 70.8101 46.1573C69.7242 46.1573 69.0633 45.6139 69.0633 44.7108C69.0633 43.6 69.8797 43.2325 72.9817 43.0326V45.1584ZM76.6394 40.795V39.6842H75.733V46.7247H76.6394V41.6341C76.8799 41.2578 77.211 40.9452 77.6041 40.7236C77.9968 40.5021 78.4391 40.3784 78.8923 40.3635C79.1202 40.365 79.3471 40.3891 79.5702 40.4354V39.5483C79.3564 39.5192 79.141 39.5033 78.925 39.5004C78.4631 39.5075 78.0105 39.6301 77.6102 39.8567C77.2104 40.0834 76.8761 40.4063 76.6394 40.795ZM82.9094 39.5164C81.0317 39.5164 79.7577 41.0348 79.7577 43.2644C79.7577 45.494 81.0317 46.9325 83.0234 46.9325C83.9996 46.9362 84.9389 46.5695 85.6441 45.9096L85.2035 45.2543C84.9217 45.535 84.587 45.7585 84.2165 45.912C83.8468 46.0657 83.4498 46.1463 83.0479 46.1494C81.6518 46.1494 80.7705 45.2143 80.6478 43.592H85.8975V43.1845C85.9221 40.9789 84.7458 39.5164 82.9094 39.5164ZM80.6805 42.8888C80.7541 41.3464 81.6355 40.2995 82.8931 40.2995C84.1502 40.2995 84.9255 41.2984 85.0075 42.8888H80.6805ZM49.706 32.0283H49.6734L45.2566 25.3634H43.3217V34.9852H44.979V27.9127H45.0035L49.706 34.9852H51.3633V25.3634H49.706V32.0283ZM59.315 31.445C59.315 29.1593 57.9025 27.7529 55.9436 27.7529C53.9841 27.7529 52.5472 29.1593 52.5472 31.4769C52.5472 33.7945 53.9514 35.169 55.919 35.169C57.8862 35.169 59.315 33.7865 59.315 31.445ZM54.2045 31.445C54.2045 29.9825 54.9063 29.1434 55.9272 29.1434C56.9476 29.1434 57.6576 29.9425 57.6576 31.445C57.6576 32.9473 56.9558 33.7865 55.9272 33.7865C54.8981 33.7865 54.2045 32.9234 54.2045 31.4609V31.445ZM62.0091 34.1941C62.2572 34.5013 62.574 34.7489 62.9345 34.9179C63.2956 35.0869 63.691 35.1728 64.0913 35.169C65.9689 35.169 67.2178 33.6506 67.2178 31.381C67.2178 29.1114 66.0425 27.7529 64.2053 27.7529C63.8196 27.749 63.4374 27.8213 63.0813 27.9655C62.7251 28.1096 62.4017 28.3227 62.1318 28.592V25.3954H60.499V34.9852H61.9605L62.0091 34.1941ZM62.1318 29.9425C62.3254 29.6984 62.5729 29.4999 62.8555 29.3616C63.138 29.2233 63.4488 29.1487 63.7645 29.1434C64.8913 29.1434 65.5604 29.9425 65.5604 31.421C65.5604 32.8994 64.8668 33.7865 63.7482 33.7865C63.4319 33.7841 63.1199 33.7108 62.8369 33.5722C62.5538 33.4337 62.3074 33.2336 62.1154 32.9874L62.1318 29.9425ZM71.5125 27.7529C69.5039 27.7529 68.1651 29.2552 68.1651 31.5009C68.1651 33.7465 69.5039 35.169 71.651 35.169C72.6714 35.1751 73.6607 34.8268 74.4432 34.186L73.7081 33.0353C73.1584 33.5234 72.45 33.8064 71.7082 33.8344C70.6551 33.8344 70.0182 33.2271 69.8551 32.0603H74.6881V31.389C74.6881 29.1754 73.4469 27.7529 71.5125 27.7529ZM69.8797 30.9495C69.8797 29.8147 70.5652 29.0395 71.5125 29.0395C72.4592 29.0395 73.0472 29.7827 73.088 30.9495H69.8797ZM77.578 35.0891C78.0246 35.0804 78.4674 35.0077 78.8923 34.8733L78.7538 33.6266C78.57 33.6767 78.3807 33.7036 78.1904 33.7065C77.8146 33.7065 77.6189 33.5227 77.6189 33.1232V25.3714H75.9452V33.4748C75.9163 33.6921 75.9386 33.913 76.01 34.1207C76.0815 34.3284 76.201 34.5173 76.358 34.673C76.5156 34.8288 76.7076 34.9472 76.9192 35.0193C77.1302 35.0914 77.356 35.1153 77.578 35.0891Z" fill="black" style="fill:black;fill-opacity:1;"/>
<path d="M31.9982 24.7081V43.1605C31.9982 43.2898 31.9457 43.4138 31.8523 43.5052C31.7588 43.5966 31.6322 43.6479 31.5001 43.6479H27.9243C26.765 43.6479 26.3731 43.4961 25.9976 42.9847L17.1641 31.0214C17.0918 30.9625 17.004 30.9249 16.9108 30.9128C16.8176 30.9008 16.7229 30.9148 16.6375 30.9532C16.5521 30.9917 16.4795 31.053 16.4283 31.1301C16.3769 31.2072 16.349 31.297 16.3477 31.389V34.7374C16.3473 34.8162 16.3629 34.8942 16.3938 34.9669C16.4246 35.0397 16.47 35.1057 16.5272 35.1609L23.9566 45.5499C24.2689 45.9633 24.6843 46.2913 25.1632 46.5026C25.642 46.7138 26.1683 46.8014 26.6915 46.7566H34.7821C34.9141 46.7566 35.0408 46.7053 35.1342 46.6139C35.2276 46.5225 35.28 46.3985 35.28 46.2692V21.4875C35.28 21.3582 35.2276 21.2342 35.1342 21.1428C35.0408 21.0514 34.9141 21 34.7821 21H27.8426C27.7106 21 27.5838 21.0514 27.4905 21.1428C27.3971 21.2342 27.3446 21.3582 27.3446 21.4875V23.7251C27.3446 23.8544 27.3971 23.9784 27.4905 24.0698C27.5838 24.1612 27.7106 24.2126 27.8426 24.2126H31.5001C31.5662 24.2126 31.6316 24.2255 31.6926 24.2505C31.7535 24.2754 31.8088 24.3121 31.8552 24.3582C31.9015 24.4043 31.938 24.459 31.9626 24.519C31.9871 24.5791 31.9992 24.6434 31.9982 24.7081Z" fill="#A22C35" style="fill:#A22C35;fill:color(display-p3 0.6353 0.1725 0.2078);fill-opacity:1;"/>
<path d="M12.2656 43.0363V24.5839C12.2656 24.5192 12.2788 24.4551 12.3043 24.3955C12.3299 24.3358 12.3673 24.2817 12.4144 24.2363C12.4614 24.1909 12.5173 24.1552 12.5787 24.1312C12.6401 24.1072 12.7057 24.0954 12.7718 24.0964H16.3477C17.507 24.0964 17.8907 24.2403 18.2662 24.7597L27.0671 36.747C27.1362 36.8175 27.2255 36.8661 27.3232 36.8863C27.4209 36.9066 27.5226 36.8976 27.615 36.8605C27.7075 36.8235 27.7864 36.76 27.8415 36.6785C27.8967 36.597 27.9255 36.5011 27.9243 36.4034V32.9989C27.9243 32.8311 27.8753 32.7672 27.7447 32.5754L20.3154 22.1864C20.0004 21.7819 19.5858 21.462 19.1105 21.2566C18.6351 21.0512 18.1144 20.9669 17.5967 21.0117H9.49802C9.36594 21.0117 9.23925 21.0631 9.14588 21.1545C9.05246 21.2459 9 21.3699 9 21.4992V46.2729C9 46.4021 9.05246 46.5261 9.14588 46.6176C9.23925 46.709 9.36594 46.7604 9.49802 46.7604H16.4374C16.5035 46.7614 16.5692 46.7496 16.6305 46.7255C16.6919 46.7016 16.7477 46.6658 16.7948 46.6204C16.842 46.575 16.8794 46.5209 16.905 46.4613C16.9305 46.4016 16.9436 46.3376 16.9436 46.2729V44.0352C16.9436 43.9706 16.9305 43.9064 16.905 43.8468C16.8794 43.7871 16.842 43.7331 16.7948 43.6877C16.7477 43.6423 16.6919 43.6066 16.6305 43.5826C16.5692 43.5586 16.5035 43.5467 16.4374 43.5477H12.7881C12.7186 43.5512 12.6491 43.5404 12.5841 43.5159C12.5191 43.4913 12.4601 43.4538 12.4108 43.4056C12.3616 43.3574 12.3233 43.2997 12.2982 43.236C12.2732 43.1724 12.2621 43.1044 12.2656 43.0363Z" fill="#A22C35" style="fill:#A22C35;fill:color(display-p3 0.6353 0.1725 0.2078);fill-opacity:1;"/>
</g>
<defs>
<clipPath id="clip0_12_1989">
<rect width="82" height="26" fill="white" style="fill:white;fill-opacity:1;" transform="translate(9 21)"/>
</clipPath>
</defs>
</svg>
