<svg width="185" height="47" viewBox="0 0 185 47" fill="none" xmlns="http://www.w3.org/2000/svg">
<g clip-path="url(#clip0_24_2309)">
<path d="M2.11577 2.9275H40.4326C41.325 2.9275 42.0484 3.64353 42.0484 4.5268V11.985C42.0484 12.9784 41.6129 13.9191 40.8546 14.57L19.4276 32.3125H40.4326C41.325 32.3125 42.0484 33.0155 42.0484 33.8988V42.461C42.0484 43.3442 41.325 44.0603 40.4326 44.0603H2.11577C1.22341 44.0603 0.5 43.3442 0.5 42.461V35.015C0.5 34.0216 0.93553 33.0809 1.69374 32.43L23.1208 14.6875H2.11577C1.22341 14.6875 0.5 13.9551 0.5 13.0719V4.5268C0.5 3.64353 1.22341 2.9275 2.11577 2.9275ZM68.7581 1.46875C73.1885 1.46875 77.1385 2.4549 80.4359 4.25702C83.7334 6.05914 86.3785 8.67723 88.1992 11.9411C90.0198 15.205 91.0161 19.1147 91.0161 23.5C91.0161 27.8853 90.0198 31.795 88.1992 35.0589C86.3785 38.3228 83.7334 40.9409 80.4359 42.743C77.1385 44.5451 73.1885 45.5312 68.7581 45.5312C64.3276 45.5312 60.3777 44.5451 57.0802 42.743C53.7827 40.9409 51.1376 38.3228 49.317 35.0589C47.4963 31.795 46.5 27.8853 46.5 23.5C46.5 19.1147 47.4963 15.205 49.317 11.9411C51.1376 8.67723 53.7827 6.05914 57.0802 4.25702C60.3777 2.4549 64.3276 1.46875 68.7581 1.46875ZM68.7581 13.2188C66.6387 13.2188 64.7782 13.6619 63.2394 14.4858C61.7005 15.3097 60.4834 16.5144 59.651 18.0375C58.8186 19.5607 58.371 21.4023 58.371 23.5C58.371 25.5977 58.8186 27.4393 59.651 28.9625C60.4834 30.4856 61.7005 31.6903 63.2394 32.5142C64.7782 33.3381 66.6387 33.7812 68.7581 33.7812C70.8774 33.7812 72.738 33.3381 74.2768 32.5142C75.8156 31.6903 77.0327 30.4856 77.8651 28.9625C78.6975 27.4393 79.1452 25.5977 79.1452 23.5C79.1452 21.4023 78.6975 19.5607 77.8651 18.0375C77.0327 16.5144 75.8156 15.3097 74.2768 14.4858C72.738 13.6619 70.8774 13.2188 68.7581 13.2188ZM116.242 1.46875C120.672 1.46875 124.622 2.4549 127.92 4.25702C131.217 6.05914 133.862 8.67723 135.683 11.9411C137.504 15.205 138.5 19.1147 138.5 23.5C138.5 27.8853 137.504 31.795 135.683 35.0589C133.862 38.3228 131.217 40.9409 127.92 42.743C124.622 44.5451 120.672 45.5312 116.242 45.5312C111.811 45.5312 107.862 44.5451 104.564 42.743C101.267 40.9409 98.6215 38.3228 96.8008 35.0589C94.9802 31.795 93.9839 27.8853 93.9839 23.5C93.9839 19.1147 94.9802 15.205 96.8008 11.9411C98.6215 8.67723 101.267 6.05914 104.564 4.25702C107.862 2.4549 111.811 1.46875 116.242 1.46875ZM116.242 13.2188C114.123 13.2188 112.262 13.6619 110.723 14.4858C109.184 15.3097 107.967 16.5144 107.135 18.0375C106.303 19.5607 105.855 21.4023 105.855 23.5C105.855 25.5977 106.303 27.4393 107.135 28.9625C107.967 30.4856 109.184 31.6903 110.723 32.5142C112.262 33.3381 114.123 33.7812 116.242 33.7812C118.361 33.7812 120.222 33.3381 121.761 32.5142C123.299 31.6903 124.517 30.4856 125.349 28.9625C126.181 27.4393 126.629 25.5977 126.629 23.5C126.629 21.4023 126.181 19.5607 125.349 18.0375C124.517 16.5144 123.299 15.3097 121.761 14.4858C120.222 13.6619 118.361 13.2188 116.242 13.2188ZM184.505 4.53189V42.4603C184.505 43.3437 183.782 44.0597 182.889 44.0597H175.359C174.356 44.0597 173.405 43.6287 172.748 42.8783L154.823 21.6721V42.4603C154.823 43.3437 154.083 44.0597 153.19 44.0597H144.562C143.67 44.0597 142.947 43.3437 142.947 42.4603V4.53189C142.947 3.64857 143.67 2.9325 144.562 2.9325H152.092C153.096 2.9325 154.046 3.3637 154.704 4.11436L172.629 25.3279V4.53189C172.629 3.64857 173.339 2.9325 174.232 2.9325H182.889C183.782 2.9325 184.505 3.64857 184.505 4.53189Z" fill="url(#paint0_linear_24_2309)" style=""/>
</g>
<defs>
<linearGradient id="paint0_linear_24_2309" x1="0.5" y1="23.5" x2="184.505" y2="23.5" gradientUnits="userSpaceOnUse">
<stop stop-color="#3D3F53" style="stop-color:#3D3F53;stop-color:color(display-p3 0.2392 0.2471 0.3255);stop-opacity:1;"/>
<stop offset="1" stop-color="#5D3BEC" style="stop-color:#5D3BEC;stop-color:color(display-p3 0.3647 0.2314 0.9255);stop-opacity:1;"/>
</linearGradient>
<clipPath id="clip0_24_2309">
<rect width="184" height="47" fill="white" style="fill:white;fill-opacity:1;" transform="translate(0.5)"/>
</clipPath>
</defs>
</svg>
