<svg width="151" height="75" viewBox="0 0 151 75" fill="none" xmlns="http://www.w3.org/2000/svg">
<g clip-path="url(#clip0_24_2289)">
<path d="M0 29.076C0 13.0177 12.9837 0 29 0C45.0163 0 58 13.0177 58 29.076V69.4385C58 73.4323 53.9234 76.1208 50.2663 74.5396L29.8203 65.7031C29.5612 65.5911 29.2821 65.5333 29 65.5333C28.7179 65.5333 28.4388 65.5911 28.1797 65.7031L7.73471 74.5396C4.07554 76.1208 0 73.4323 0 69.4385V29.076Z" fill="#F6F5F4" style="fill:#F6F5F4;fill:color(display-p3 0.9647 0.9608 0.9569);fill-opacity:1;"/>
<g clip-path="url(#clip1_24_2289)">
<path d="M29.0008 37.5C35.8649 37.5 41.4294 31.9036 41.4294 25C41.4294 18.0964 35.8649 12.5 29.0008 12.5C22.1367 12.5 16.5723 18.0964 16.5723 25C16.5723 31.9036 22.1367 37.5 29.0008 37.5Z" fill="#FB503C" style="fill:#FB503C;fill:color(display-p3 0.9847 0.3128 0.2370);fill-opacity:1;"/>
<path d="M30.9524 32.8125H33.6618V17.1875H29.7178C25.751 17.1875 23.6703 19.2292 23.6703 22.2469C23.6703 24.851 25.0198 26.3198 27.4092 27.9135L28.8603 28.8771L26.997 27.3063L23.3047 32.8125H26.243L30.187 26.8927L28.8147 25.976C27.1575 24.851 26.3455 23.9792 26.3455 22.0865C26.3455 20.4229 27.5118 19.2979 29.7292 19.2979H30.941V32.8125H30.9524Z" fill="white" style="fill:white;fill-opacity:1;"/>
</g>
<path d="M13.263 58.7917V57.8969L16.6238 54.2179C17.0182 53.787 17.343 53.4125 17.5982 53.0943C17.8534 52.7728 18.0423 52.4712 18.165 52.1895C18.2909 51.9044 18.3539 51.6061 18.3539 51.2946C18.3539 50.9366 18.2677 50.6267 18.0953 50.3649C17.9263 50.1031 17.6943 49.9009 17.3993 49.7584C17.1043 49.6158 16.7729 49.5446 16.405 49.5446C16.0139 49.5446 15.6725 49.6258 15.3809 49.7882C15.0925 49.9473 14.8688 50.171 14.7097 50.4594C14.5539 50.7477 14.476 51.0858 14.476 51.4736H13.3027C13.3027 50.877 13.4403 50.3533 13.7154 49.9025C13.9905 49.4518 14.365 49.1005 14.839 48.8486C15.3162 48.5967 15.8515 48.4707 16.4448 48.4707C17.0414 48.4707 17.57 48.5967 18.0307 48.8486C18.4914 49.1005 18.8527 49.4402 19.1145 49.8677C19.3764 50.2953 19.5073 50.7709 19.5073 51.2946C19.5073 51.6691 19.4393 52.0354 19.3034 52.3933C19.1709 52.748 18.9389 53.144 18.6074 53.5815C18.2793 54.0157 17.8236 54.546 17.2402 55.1724L14.9533 57.6185V57.698H19.6863V58.7917H13.263ZM25.0605 58.931C24.3115 58.931 23.6735 58.7271 23.1465 58.3194C22.6195 57.9085 22.2168 57.3135 21.9384 56.5346C21.66 55.7524 21.5208 54.8078 21.5208 53.7008C21.5208 52.6005 21.66 51.6608 21.9384 50.8819C22.2201 50.0997 22.6245 49.5032 23.1515 49.0922C23.6818 48.6779 24.3181 48.4707 25.0605 48.4707C25.803 48.4707 26.4377 48.6779 26.9647 49.0922C27.495 49.5032 27.8993 50.0997 28.1777 50.8819C28.4595 51.6608 28.6003 52.6005 28.6003 53.7008C28.6003 54.8078 28.4611 55.7524 28.1827 56.5346C27.9043 57.3135 27.5016 57.9085 26.9746 58.3194C26.4476 58.7271 25.8096 58.931 25.0605 58.931ZM25.0605 57.8372C25.803 57.8372 26.3797 57.4792 26.7907 56.7633C27.2016 56.0474 27.4071 55.0266 27.4071 53.7008C27.4071 52.8192 27.3127 52.0685 27.1238 51.4487C26.9382 50.8289 26.6697 50.3566 26.3184 50.0318C25.9703 49.707 25.5511 49.5446 25.0605 49.5446C24.3248 49.5446 23.7497 49.9075 23.3354 50.6334C22.9211 51.3559 22.714 52.3784 22.714 53.7008C22.714 54.5825 22.8068 55.3315 22.9924 55.948C23.178 56.5645 23.4448 57.0335 23.7928 57.355C24.1441 57.6765 24.5667 57.8372 25.0605 57.8372ZM30.4895 58.7917V57.8969L33.8503 54.2179C34.2447 53.787 34.5695 53.4125 34.8248 53.0943C35.08 52.7728 35.2689 52.4712 35.3915 52.1895C35.5175 51.9044 35.5804 51.6061 35.5804 51.2946C35.5804 50.9366 35.4943 50.6267 35.3219 50.3649C35.1529 50.1031 34.9209 49.9009 34.6259 49.7584C34.3309 49.6158 33.9995 49.5446 33.6316 49.5446C33.2405 49.5446 32.8991 49.6258 32.6074 49.7882C32.3191 49.9473 32.0953 50.171 31.9363 50.4594C31.7805 50.7477 31.7026 51.0858 31.7026 51.4736H30.5293C30.5293 50.877 30.6668 50.3533 30.9419 49.9025C31.217 49.4518 31.5916 49.1005 32.0655 48.8486C32.5428 48.5967 33.0781 48.4707 33.6713 48.4707C34.2679 48.4707 34.7966 48.5967 35.2573 48.8486C35.718 49.1005 36.0792 49.4402 36.3411 49.8677C36.6029 50.2953 36.7338 50.7709 36.7338 51.2946C36.7338 51.6691 36.6659 52.0354 36.53 52.3933C36.3974 52.748 36.1654 53.144 35.834 53.5815C35.5059 54.0157 35.0501 54.546 34.4668 55.1724L32.1799 57.6185V57.698H36.9128V58.7917H30.4895ZM42.4064 58.931C41.7502 58.931 41.1652 58.8183 40.6515 58.5929C40.141 58.3675 39.735 58.0543 39.4334 57.6533C39.1351 57.2489 38.9727 56.7799 38.9462 56.2463H40.199C40.2256 56.5744 40.3382 56.8578 40.5371 57.0964C40.736 57.3318 40.9962 57.514 41.3176 57.6433C41.6391 57.7726 41.9954 57.8372 42.3865 57.8372C42.824 57.8372 43.2118 57.761 43.5499 57.6085C43.888 57.456 44.1531 57.2439 44.3453 56.9721C44.5376 56.7004 44.6337 56.3855 44.6337 56.0275C44.6337 55.653 44.5409 55.3232 44.3553 55.0382C44.1697 54.7498 43.8979 54.5245 43.54 54.3621C43.182 54.1997 42.7445 54.1185 42.2275 54.1185H41.4121V53.0247H42.2275C42.6318 53.0247 42.9864 52.9518 43.2914 52.806C43.5996 52.6601 43.8399 52.4546 44.0123 52.1895C44.1879 51.9243 44.2757 51.6128 44.2757 51.2548C44.2757 50.9101 44.1995 50.6102 44.0471 50.355C43.8946 50.0997 43.6792 49.9009 43.4007 49.7584C43.1257 49.6158 42.8008 49.5446 42.4263 49.5446C42.075 49.5446 41.7435 49.6092 41.432 49.7385C41.1238 49.8644 40.8719 50.0484 40.6763 50.2903C40.4808 50.529 40.3747 50.8173 40.3581 51.1554H39.165C39.1848 50.6218 39.3456 50.1544 39.6472 49.7534C39.9488 49.349 40.3432 49.0342 40.8304 48.8088C41.321 48.5834 41.8596 48.4707 42.4462 48.4707C43.0759 48.4707 43.6162 48.5983 44.0669 48.8535C44.5177 49.1054 44.8641 49.4385 45.106 49.8528C45.348 50.2671 45.4689 50.7146 45.4689 51.1952C45.4689 51.7685 45.3181 52.2574 45.0165 52.6618C44.7182 53.0661 44.3122 53.3462 43.7985 53.502V53.5815C44.4415 53.6876 44.9436 53.961 45.3049 54.4018C45.6661 54.8393 45.8468 55.3812 45.8468 56.0275C45.8468 56.581 45.696 57.0782 45.3944 57.519C45.0961 57.9565 44.6884 58.3012 44.1713 58.5531C43.6543 58.805 43.066 58.931 42.4064 58.931Z" fill="black" style="fill:black;fill-opacity:1;"/>
</g>
<path d="M71.9616 21.1364L74.4549 25.3501H74.5514L77.0568 21.1364H80.0088L76.2358 27.3182L80.0934 33.5H77.087L74.5514 29.2802H74.4549L71.9193 33.5H68.925L72.7947 27.3182L68.9975 21.1364H71.9616ZM85.3228 33.6811C84.3851 33.6811 83.5741 33.4819 82.89 33.0835C82.2098 32.681 81.6846 32.1216 81.3143 31.4052C80.9441 30.6848 80.7589 29.8497 80.7589 28.8999C80.7589 27.942 80.9441 27.1049 81.3143 26.3885C81.6846 25.6681 82.2098 25.1087 82.89 24.7102C83.5741 24.3078 84.3851 24.1065 85.3228 24.1065C86.2606 24.1065 87.0695 24.3078 87.7497 24.7102C88.4339 25.1087 88.9611 25.6681 89.3314 26.3885C89.7016 27.1049 89.8868 27.942 89.8868 28.8999C89.8868 29.8497 89.7016 30.6848 89.3314 31.4052C88.9611 32.1216 88.4339 32.681 87.7497 33.0835C87.0695 33.4819 86.2606 33.6811 85.3228 33.6811ZM85.3349 31.6889C85.7615 31.6889 86.1177 31.5682 86.4035 31.3267C86.6892 31.0812 86.9045 30.7472 87.0494 30.3246C87.1983 29.902 87.2728 29.421 87.2728 28.8817C87.2728 28.3424 87.1983 27.8615 87.0494 27.4389C86.9045 27.0163 86.6892 26.6823 86.4035 26.4368C86.1177 26.1913 85.7615 26.0685 85.3349 26.0685C84.9043 26.0685 84.5421 26.1913 84.2483 26.4368C83.9585 26.6823 83.7392 27.0163 83.5902 27.4389C83.4454 27.8615 83.3729 28.3424 83.3729 28.8817C83.3729 29.421 83.4454 29.902 83.5902 30.3246C83.7392 30.7472 83.9585 31.0812 84.2483 31.3267C84.5421 31.5682 84.9043 31.6889 85.3349 31.6889ZM91.559 36.9773V24.2273H94.0945V25.7848H94.2092C94.3219 25.5353 94.4849 25.2817 94.6982 25.0241C94.9155 24.7625 95.1973 24.5452 95.5434 24.3722C95.8935 24.1951 96.3282 24.1065 96.8473 24.1065C97.5235 24.1065 98.1473 24.2836 98.7188 24.6378C99.2903 24.9879 99.7471 25.5172 100.089 26.2255C100.431 26.9298 100.602 27.8132 100.602 28.8757C100.602 29.91 100.435 30.7834 100.101 31.4957C99.7712 32.2041 99.3205 32.7414 98.749 33.1076C98.1815 33.4698 97.5456 33.6509 96.8413 33.6509C96.3423 33.6509 95.9177 33.5684 95.5675 33.4034C95.2214 33.2384 94.9377 33.0311 94.7163 32.7816C94.495 32.5281 94.3259 32.2725 94.2092 32.0149H94.1307V36.9773H91.559ZM94.0764 28.8636C94.0764 29.415 94.1529 29.896 94.3058 30.3065C94.4587 30.717 94.6801 31.0369 94.9699 31.2663C95.2596 31.4917 95.6118 31.6044 96.0263 31.6044C96.4449 31.6044 96.7991 31.4897 97.0888 31.2603C97.3786 31.0269 97.5979 30.7049 97.7468 30.2944C97.8998 29.8799 97.9763 29.4029 97.9763 28.8636C97.9763 28.3284 97.9018 27.8575 97.7529 27.451C97.604 27.0445 97.3846 26.7266 97.0949 26.4972C96.8051 26.2678 96.4489 26.1531 96.0263 26.1531C95.6078 26.1531 95.2536 26.2637 94.9638 26.4851C94.6781 26.7064 94.4587 27.0204 94.3058 27.4268C94.1529 27.8333 94.0764 28.3123 94.0764 28.8636ZM106.506 33.6811C105.569 33.6811 104.758 33.4819 104.074 33.0835C103.393 32.681 102.868 32.1216 102.498 31.4052C102.128 30.6848 101.943 29.8497 101.943 28.8999C101.943 27.942 102.128 27.1049 102.498 26.3885C102.868 25.6681 103.393 25.1087 104.074 24.7102C104.758 24.3078 105.569 24.1065 106.506 24.1065C107.444 24.1065 108.253 24.3078 108.933 24.7102C109.617 25.1087 110.145 25.6681 110.515 26.3885C110.885 27.1049 111.07 27.942 111.07 28.8999C111.07 29.8497 110.885 30.6848 110.515 31.4052C110.145 32.1216 109.617 32.681 108.933 33.0835C108.253 33.4819 107.444 33.6811 106.506 33.6811ZM106.519 31.6889C106.945 31.6889 107.301 31.5682 107.587 31.3267C107.873 31.0812 108.088 30.7472 108.233 30.3246C108.382 29.902 108.456 29.421 108.456 28.8817C108.456 28.3424 108.382 27.8615 108.233 27.4389C108.088 27.0163 107.873 26.6823 107.587 26.4368C107.301 26.1913 106.945 26.0685 106.519 26.0685C106.088 26.0685 105.726 26.1913 105.432 26.4368C105.142 26.6823 104.923 27.0163 104.774 27.4389C104.629 27.8615 104.557 28.3424 104.557 28.8817C104.557 29.421 104.629 29.902 104.774 30.3246C104.923 30.7472 105.142 31.0812 105.432 31.3267C105.726 31.5682 106.088 31.6889 106.519 31.6889ZM112.743 24.2273H115.2V31.4595H117.814V24.2273H120.271V31.4595H122.885V24.2273H125.342V33.5H112.743V24.2273ZM131.561 33.6811C130.607 33.6811 129.786 33.4879 129.098 33.1016C128.414 32.7112 127.887 32.1598 127.516 31.4474C127.146 30.7311 126.961 29.8839 126.961 28.9059C126.961 27.9521 127.146 27.1149 127.516 26.3945C127.887 25.6741 128.408 25.1127 129.08 24.7102C129.756 24.3078 130.549 24.1065 131.459 24.1065C132.07 24.1065 132.64 24.2051 133.167 24.4023C133.698 24.5955 134.161 24.8873 134.556 25.2777C134.954 25.6681 135.264 26.1591 135.485 26.7507C135.707 27.3383 135.817 28.0265 135.817 28.8153V29.5217H127.987V27.9279H133.396C133.396 27.5576 133.316 27.2296 133.155 26.9439C132.994 26.6581 132.771 26.4348 132.485 26.2738C132.203 26.1088 131.875 26.0263 131.501 26.0263C131.11 26.0263 130.764 26.1168 130.462 26.2979C130.165 26.475 129.931 26.7145 129.762 27.0163C129.593 27.3142 129.507 27.6462 129.503 28.0124V29.5277C129.503 29.9865 129.587 30.3829 129.756 30.717C129.929 31.051 130.173 31.3086 130.487 31.4897C130.801 31.6708 131.173 31.7614 131.603 31.7614C131.889 31.7614 132.151 31.7211 132.388 31.6406C132.626 31.5601 132.829 31.4394 132.998 31.2784C133.167 31.1174 133.296 30.9202 133.384 30.6868L135.763 30.8438C135.642 31.4152 135.395 31.9143 135.02 32.3409C134.65 32.7635 134.171 33.0935 133.584 33.331C133 33.5644 132.326 33.6811 131.561 33.6811ZM141.721 33.6811C140.768 33.6811 139.947 33.4879 139.258 33.1016C138.574 32.7112 138.047 32.1598 137.677 31.4474C137.306 30.7311 137.121 29.8839 137.121 28.9059C137.121 27.9521 137.306 27.1149 137.677 26.3945C138.047 25.6741 138.568 25.1127 139.24 24.7102C139.916 24.3078 140.709 24.1065 141.619 24.1065C142.23 24.1065 142.8 24.2051 143.327 24.4023C143.858 24.5955 144.321 24.8873 144.716 25.2777C145.114 25.6681 145.424 26.1591 145.645 26.7507C145.867 27.3383 145.977 28.0265 145.977 28.8153V29.5217H138.148V27.9279H143.557C143.557 27.5576 143.476 27.2296 143.315 26.9439C143.154 26.6581 142.931 26.4348 142.645 26.2738C142.363 26.1088 142.035 26.0263 141.661 26.0263C141.271 26.0263 140.924 26.1168 140.623 26.2979C140.325 26.475 140.091 26.7145 139.922 27.0163C139.753 27.3142 139.667 27.6462 139.663 28.0124V29.5277C139.663 29.9865 139.747 30.3829 139.916 30.717C140.089 31.051 140.333 31.3086 140.647 31.4897C140.961 31.6708 141.333 31.7614 141.764 31.7614C142.049 31.7614 142.311 31.7211 142.548 31.6406C142.786 31.5601 142.989 31.4394 143.158 31.2784C143.327 31.1174 143.456 30.9202 143.545 30.6868L145.923 30.8438C145.802 31.4152 145.555 31.9143 145.181 32.3409C144.81 32.7635 144.331 33.0935 143.744 33.331C143.16 33.5644 142.486 33.6811 141.721 33.6811ZM89.7026 51.6566L92.214 45.2273H94.17L90.5538 54.5H88.8454L85.3138 45.2273H87.2637L89.7026 51.6566ZM86.6781 45.2273V54.5H84.2211V45.2273H86.6781ZM92.8539 54.5V45.2273H95.2808V54.5H92.8539ZM101.496 54.6811C100.542 54.6811 99.7209 54.4879 99.0327 54.1016C98.3485 53.7112 97.8213 53.1598 97.451 52.4474C97.0808 51.7311 96.8956 50.8839 96.8956 49.9059C96.8956 48.9521 97.0808 48.1149 97.451 47.3945C97.8213 46.6741 98.3425 46.1127 99.0146 45.7102C99.6907 45.3078 100.484 45.1065 101.393 45.1065C102.005 45.1065 102.574 45.2051 103.102 45.4023C103.633 45.5955 104.096 45.8873 104.49 46.2777C104.889 46.6681 105.198 47.1591 105.42 47.7507C105.641 48.3383 105.752 49.0265 105.752 49.8153V50.5217H97.9219V48.9279H103.331C103.331 48.5576 103.251 48.2296 103.09 47.9439C102.929 47.6581 102.705 47.4348 102.419 47.2738C102.138 47.1088 101.81 47.0263 101.435 47.0263C101.045 47.0263 100.699 47.1168 100.397 47.2979C100.099 47.475 99.8658 47.7145 99.6968 48.0163C99.5277 48.3142 99.4412 48.6462 99.4372 49.0124V50.5277C99.4372 50.9865 99.5217 51.3829 99.6907 51.717C99.8638 52.051 100.107 52.3086 100.421 52.4897C100.735 52.6708 101.107 52.7614 101.538 52.7614C101.824 52.7614 102.085 52.7211 102.323 52.6406C102.56 52.5601 102.764 52.4394 102.933 52.2784C103.102 52.1174 103.23 51.9202 103.319 51.6868L105.697 51.8438C105.577 52.4152 105.329 52.9143 104.955 53.3409C104.585 53.7635 104.106 54.0935 103.518 54.331C102.935 54.5644 102.26 54.6811 101.496 54.6811ZM111.62 54.6811C110.67 54.6811 109.853 54.4799 109.169 54.0774C108.489 53.6709 107.965 53.1075 107.599 52.3871C107.237 51.6667 107.056 50.8376 107.056 49.8999C107.056 48.95 107.239 48.117 107.605 47.4006C107.975 46.6802 108.501 46.1187 109.181 45.7163C109.861 45.3098 110.67 45.1065 111.608 45.1065C112.417 45.1065 113.125 45.2534 113.733 45.5472C114.34 45.841 114.821 46.2536 115.175 46.7848C115.53 47.3161 115.725 47.9399 115.761 48.6562H113.334C113.266 48.1934 113.085 47.8211 112.791 47.5394C112.501 47.2537 112.121 47.1108 111.65 47.1108C111.251 47.1108 110.903 47.2195 110.606 47.4368C110.312 47.6501 110.082 47.962 109.917 48.3725C109.752 48.783 109.67 49.2801 109.67 49.8636C109.67 50.4553 109.75 50.9583 109.911 51.3729C110.076 51.7874 110.308 52.1033 110.606 52.3207C110.903 52.538 111.251 52.6467 111.65 52.6467C111.944 52.6467 112.207 52.5863 112.441 52.4656C112.678 52.3448 112.873 52.1697 113.026 51.9403C113.183 51.7069 113.286 51.4272 113.334 51.1012H115.761C115.721 51.8095 115.528 52.4334 115.182 52.9727C114.839 53.5079 114.367 53.9265 113.763 54.2283C113.159 54.5302 112.445 54.6811 111.62 54.6811ZM116.775 47.2496V45.2273H125.179V47.2496H122.19V54.5H119.739V47.2496H116.775ZM130.595 54.6811C129.658 54.6811 128.847 54.4819 128.162 54.0835C127.482 53.681 126.957 53.1216 126.587 52.4052C126.217 51.6848 126.031 50.8497 126.031 49.8999C126.031 48.942 126.217 48.1049 126.587 47.3885C126.957 46.6681 127.482 46.1087 128.162 45.7102C128.847 45.3078 129.658 45.1065 130.595 45.1065C131.533 45.1065 132.342 45.3078 133.022 45.7102C133.706 46.1087 134.234 46.6681 134.604 47.3885C134.974 48.1049 135.159 48.942 135.159 49.8999C135.159 50.8497 134.974 51.6848 134.604 52.4052C134.234 53.1216 133.706 53.681 133.022 54.0835C132.342 54.4819 131.533 54.6811 130.595 54.6811ZM130.607 52.6889C131.034 52.6889 131.39 52.5682 131.676 52.3267C131.962 52.0812 132.177 51.7472 132.322 51.3246C132.471 50.902 132.545 50.421 132.545 49.8817C132.545 49.3424 132.471 48.8615 132.322 48.4389C132.177 48.0163 131.962 47.6823 131.676 47.4368C131.39 47.1913 131.034 47.0685 130.607 47.0685C130.177 47.0685 129.815 47.1913 129.521 47.4368C129.231 47.6823 129.012 48.0163 128.863 48.4389C128.718 48.8615 128.645 49.3424 128.645 49.8817C128.645 50.421 128.718 50.902 128.863 51.3246C129.012 51.7472 129.231 52.0812 129.521 52.3267C129.815 52.5682 130.177 52.6889 130.607 52.6889Z" fill="black" style="fill:black;fill-opacity:1;"/>
<defs>
<clipPath id="clip0_24_2289">
<rect width="58" height="75" fill="white" style="fill:white;fill-opacity:1;"/>
</clipPath>
<clipPath id="clip1_24_2289">
<rect width="41.4286" height="25" fill="white" style="fill:white;fill-opacity:1;" transform="translate(8.28613 12.5)"/>
</clipPath>
</defs>
</svg>
