<svg width="44" height="44" viewBox="0 0 44 44" fill="none" xmlns="http://www.w3.org/2000/svg">
<g id="Mouth">
<g id="Group">
<g id="Group_2">
<path id="Vector" d="M22.0002 39.2655C21.6514 39.2655 21.3301 39.0461 21.2018 38.7224C21.0701 38.3901 21.1631 37.9993 21.4312 37.7625C21.6895 37.5343 22.0709 37.4839 22.38 37.6355C22.7134 37.799 22.9072 38.1738 22.8484 38.5404C22.7824 38.9519 22.4181 39.2655 22.0002 39.2655Z" fill="white" style="fill:white;fill-opacity:1;"/>
<path id="Vector_2" d="M43.9386 21.9435C44.0736 21.6003 43.9813 21.2046 43.7046 20.9675C43.236 20.4109 41.0482 17.8203 38.4997 14.9251L39.1007 13.7551L42.5649 11.9748C42.8513 11.8276 43.0314 11.5326 43.0314 11.2106C43.0314 10.8885 42.8513 10.5935 42.5649 10.4463L39.1007 8.66601L37.3207 5.20106C37.1735 4.91457 36.8785 4.73438 36.5564 4.73438C36.2342 4.73438 35.9392 4.91448 35.792 5.20106L34.0122 8.66601L33.187 9.09008C32.9437 8.83573 32.7079 8.59194 32.4839 8.36302C31.5646 7.35507 30.2747 6.78406 28.7525 6.71145C26.5071 6.60387 23.8738 7.59859 22 9.25249C20.1262 7.59859 17.4928 6.60473 15.2476 6.71145C13.7253 6.78415 12.4354 7.35515 11.5162 8.36311C7.31804 12.6535 1.12473 19.9827 0.295418 20.9674C0.0186372 21.2046 -0.0737375 21.6003 0.0613443 21.9435C0.0623755 21.9462 1.43579 25.1144 1.67983 25.6353C2.44281 27.2658 4.38714 30.033 7.01093 32.5395C9.34779 34.772 13.1373 37.6681 17.9195 38.7876C18.3815 38.8957 18.8438 38.6088 18.952 38.1467C19.0602 37.6846 18.7733 37.2223 18.3111 37.1142C13.9062 36.083 10.3803 33.3814 8.19805 31.2968C5.38367 28.6082 3.75504 26.0152 3.23628 24.9065C3.14417 24.7099 2.88036 24.1111 2.59361 23.4556C4.12093 23.9939 6.49922 24.5125 10.0002 24.5164L10.4869 24.5614C10.491 24.5618 10.4951 24.5621 10.4993 24.5625C11.7698 24.6615 14.5218 25.1265 16.8959 26.0013C18.4812 26.5854 21.1407 27.8317 21.1407 29.6149C21.1407 30.0895 21.5254 30.4742 22 30.4742C22.4746 30.4742 22.8593 30.0895 22.8593 29.6149C22.8593 27.8317 25.5189 26.5854 27.1042 26.0013C29.4783 25.1265 32.2303 24.6615 33.5008 24.5625C33.5049 24.5621 33.5091 24.5618 33.5132 24.5614L33.9999 24.5164C37.5009 24.5125 39.8791 23.9939 41.4065 23.4556C41.1197 24.1111 40.8558 24.7101 40.7637 24.9068C40.2449 26.0153 38.6159 28.6089 35.801 31.2977C33.6183 33.3827 30.0915 36.0845 25.6857 37.1148C25.2235 37.2229 24.9365 37.6852 25.0446 38.1473C25.1373 38.5436 25.4904 38.8111 25.8806 38.8111C25.9454 38.8111 26.0113 38.8037 26.0771 38.7883C30.8603 37.6696 34.6506 34.7732 36.9881 32.5405C39.6124 30.0338 41.5572 27.2662 42.3202 25.6355C42.5642 25.1144 43.9376 21.9462 43.9386 21.9435ZM8.77541 22.2533C9.75906 21.8599 10.8442 21.3647 11.997 20.8385C13.0188 20.3722 14.0824 19.8868 15.1488 19.4375V22.2533H8.77541ZM16.8674 18.752C18.364 18.1942 19.8248 17.7677 21.1406 17.6283V22.2533H16.8674V18.752ZM22.8592 17.6288C24.176 17.7686 25.6367 18.1948 27.1325 18.7521V22.2533H22.8592V17.6288ZM28.8511 22.2533V19.4375C29.9177 19.8868 30.9811 20.3722 32.0029 20.8384C33.1557 21.3646 34.2408 21.8598 35.2245 22.2532H28.8511V22.2533ZM35.0433 10.0683C35.2029 9.98624 35.3328 9.85632 35.4148 9.69666L36.5565 7.47417L37.6982 9.69666C37.7803 9.85632 37.9101 9.98624 38.0698 10.0683L40.2923 11.2105L38.0698 12.3527C37.9101 12.4347 37.7802 12.5647 37.6982 12.7243L36.5565 14.9468L35.4148 12.7243C35.3328 12.5647 35.2029 12.4347 35.0433 12.3527L32.8208 11.2105L35.0433 10.0683ZM12.7553 9.55376C12.7632 9.54585 12.7707 9.53769 12.7782 9.52952C13.3935 8.85008 14.2519 8.47946 15.3295 8.42799C17.1585 8.34103 19.4193 9.22301 20.9549 10.6237C20.9679 10.6356 20.9815 10.6471 20.9953 10.6583C21.1272 10.7643 21.2538 10.8822 21.3717 11.0086C21.5343 11.1829 21.7619 11.2818 22.0002 11.2817C22.2385 11.2816 22.4661 11.1826 22.6286 11.0083C22.7461 10.8822 22.8726 10.7645 23.0046 10.6583C23.0184 10.6472 23.0319 10.6356 23.0449 10.6237C24.5806 9.22301 26.8414 8.34051 28.6703 8.42799C29.7479 8.47946 30.6063 8.85008 31.2216 9.52952C31.2291 9.53777 31.2367 9.54585 31.2445 9.55384C31.357 9.6689 31.4729 9.78783 31.5911 9.91011L30.5478 10.4462C30.2614 10.5934 30.0813 10.8884 30.0813 11.2105C30.0813 11.5326 30.2614 11.8275 30.5478 11.9747L34.0121 13.755L35.792 17.22C35.9392 17.5065 36.2342 17.6867 36.5563 17.6867C36.8785 17.6867 37.1735 17.5065 37.3207 17.22L37.6554 16.5682C39.241 18.377 40.6483 20.0213 41.528 21.0562C40.5694 21.2193 39.3381 21.3967 38.5152 21.3967C37.3652 21.3967 35.107 20.3661 32.7163 19.275C29.22 17.6794 25.257 15.8707 21.9971 15.861C18.7424 15.8708 14.7796 17.6794 11.2833 19.275C8.89254 20.3661 6.63438 21.3967 5.48438 21.3967C4.66143 21.3967 3.4304 21.2193 2.47185 21.0562C4.4949 18.6769 9.31428 13.0692 12.7553 9.55376ZM26.51 24.3887C24.3684 25.1778 22.8615 26.1278 21.9999 27.2283C21.1384 26.1278 19.6315 25.1778 17.4899 24.3887C17.0786 24.2371 16.6626 24.0984 16.2485 23.9719H27.7513C27.3374 24.0985 26.9213 24.2372 26.51 24.3887Z" fill="white" style="fill:white;fill-opacity:1;"/>
</g>
</g>
</g>
</svg>
