<svg width="45" height="45" viewBox="0 0 45 45" fill="none" xmlns="http://www.w3.org/2000/svg">
<g id="Fast time" clip-path="url(#clip0_24_2774)">
<g id="Group">
<g id="Group_2">
<path id="Vector" d="M43.093 18.8902C41.5706 15.8727 39.2732 13.4081 36.4466 11.7064L37.4304 8.71892L38.2924 9.0028C38.459 9.05747 38.6304 9.08472 38.8012 9.08472C39.0536 9.08472 39.3047 9.0253 39.5371 8.90797C39.9272 8.71101 40.2167 8.375 40.3522 7.96244L41.1272 5.61005C41.408 4.75487 40.9412 3.83079 40.0867 3.55016L36.9303 2.51129C36.5845 2.39747 36.212 2.58547 36.0981 2.93132C35.9843 3.27708 36.1724 3.64965 36.5181 3.76347L39.6749 4.80251C39.8364 4.85542 39.9279 5.037 39.8749 5.19819L39.0998 7.55059C39.0651 7.65632 38.9866 7.70914 38.9429 7.73111C38.8991 7.75326 38.8096 7.78499 38.704 7.75045L29.4513 4.70346C29.3465 4.669 29.2943 4.59122 29.2726 4.54789C29.2506 4.50395 29.2188 4.41439 29.2538 4.30777L30.0288 1.95538C30.0635 1.84974 30.142 1.79683 30.1857 1.77485C30.2296 1.75288 30.319 1.72098 30.4244 1.75543L33.7053 2.83675C34.051 2.95074 34.4236 2.76274 34.5376 2.41707C34.6516 2.07131 34.4636 1.69874 34.1179 1.58475L30.8364 0.503165C30.4233 0.367725 29.9814 0.4013 29.5916 0.598087C29.2015 0.79505 28.912 1.13097 28.7766 1.54353L28.0015 3.89592C27.7206 4.75145 28.1864 5.67562 29.0394 5.95581L29.9021 6.23987L28.917 9.22578C27.5727 9.09966 26.2165 9.12972 24.8577 9.31816C24.4971 9.36808 24.2453 9.70092 24.2953 10.0614C24.3452 10.4221 24.6787 10.6744 25.0386 10.6239C27.5261 10.2792 30.0051 10.5056 32.4073 11.297C36.5668 12.6673 39.9437 15.5748 41.9159 19.484C43.888 23.3931 44.2195 27.8361 42.8492 31.9946C40.023 40.5786 30.7385 45.2627 22.1523 42.4366C17.9941 41.0674 14.6181 38.1603 12.6462 34.2506C10.6743 30.341 10.3428 25.8977 11.7131 21.7391C13.3315 16.8223 17.2387 12.9169 22.1652 11.2922C22.5108 11.1781 22.6987 10.8054 22.5847 10.4597C22.4706 10.1141 22.0983 9.92636 21.7522 10.0402C20.6336 10.4091 19.5518 10.8917 18.5275 11.4745H13.2469C12.8829 11.4745 12.5878 11.7695 12.5878 12.1336C12.5878 12.4976 12.8829 12.7926 13.2469 12.7926H16.5344C15.9464 13.2402 15.3857 13.7225 14.8596 14.2392C13.0193 16.0466 11.5845 18.2704 10.6814 20.702H6.07239C5.70835 20.702 5.4133 20.9971 5.4133 21.3611C5.4133 21.7251 5.70835 22.0202 6.07239 22.0202H10.2492C9.50487 24.6252 9.36864 27.317 9.82972 29.9272H2.78897C2.42493 29.9272 2.12988 30.2222 2.12988 30.5863C2.12988 30.9503 2.42493 31.2454 2.78897 31.2454H10.1156C10.432 32.4763 10.8833 33.6821 11.4693 34.8442C12.2782 36.448 13.3062 37.895 14.5156 39.1548H8.59099C8.22694 39.1548 7.93189 39.4499 7.93189 39.8139C7.93189 40.178 8.22694 40.473 8.59099 40.473H15.93C17.6228 41.8847 19.5837 42.9786 21.7402 43.6886C23.5729 44.2919 25.434 44.5784 27.2661 44.5783C34.707 44.5778 41.6512 39.8487 44.1013 32.4068C45.582 27.9141 45.2238 23.1138 43.093 18.8902ZM30.2466 9.40314L31.1542 6.65226L36.1782 8.30671L35.272 11.0585C34.4879 10.6641 33.6691 10.3249 32.82 10.0451C31.9703 9.76517 31.1116 9.55194 30.2466 9.40314Z" fill="white" style="fill:white;fill-opacity:1;"/>
<path id="Vector_2" d="M0.659092 12.7928H8.85524C9.21929 12.7928 9.51434 12.4977 9.51434 12.1337C9.51434 11.7697 9.21929 11.4746 8.85524 11.4746H0.659092C0.295049 11.4746 0 11.7697 0 12.1337C0 12.4977 0.295049 12.7928 0.659092 12.7928Z" fill="white" style="fill:white;fill-opacity:1;"/>
<path id="Vector_3" d="M3.29483 16.0884C2.93079 16.0884 2.63574 16.3834 2.63574 16.7475C2.63574 17.1115 2.93079 17.4066 3.29483 17.4066H9.49051C9.85455 17.4066 10.1496 17.1115 10.1496 16.7475C10.1496 16.3834 9.85455 16.0884 9.49051 16.0884H3.29483Z" fill="white" style="fill:white;fill-opacity:1;"/>
<path id="Vector_4" d="M5.95433 25.9726C5.95433 25.6085 5.65928 25.3135 5.29524 25.3135H0.659092C0.295049 25.3135 0 25.6085 0 25.9726C0 26.3366 0.295049 26.6317 0.659092 26.6317H5.29524C5.65928 26.6317 5.95433 26.3366 5.95433 25.9726Z" fill="white" style="fill:white;fill-opacity:1;"/>
<path id="Vector_5" d="M8.58973 35.2001C8.58973 34.8361 8.29468 34.541 7.93063 34.541H4.70206C4.33802 34.541 4.04297 34.8361 4.04297 35.2001C4.04297 35.5641 4.33793 35.8592 4.70206 35.8592H7.93063C8.29468 35.8592 8.58973 35.5641 8.58973 35.2001Z" fill="white" style="fill:white;fill-opacity:1;"/>
<path id="Vector_6" d="M14.0336 22.5052C11.629 29.8103 15.6148 37.7093 22.9185 40.1135C24.3537 40.5864 25.8286 40.8212 27.2971 40.8212C29.4487 40.8212 31.5864 40.3171 33.5633 39.3199C36.8893 37.6423 39.3632 34.7696 40.5291 31.231C40.531 31.2254 40.5327 31.2198 40.5345 31.2141L40.5397 31.1969C42.9225 23.9036 38.9339 16.0203 31.6456 13.6204C30.3025 13.1727 28.8857 12.9349 27.4705 12.9141C26.0481 12.8931 24.6243 13.0946 23.2631 13.5073C22.4841 13.7435 21.7261 14.0481 20.9994 14.4148C17.6735 16.0931 15.1996 18.9662 14.0336 22.5052ZM39.4733 30.1617L30.1319 27.0854C30.1774 26.5632 30.0779 26.0375 29.8361 25.5579C29.5941 25.0781 29.2303 24.6857 28.7835 24.4121L31.8525 15.0943C37.8542 17.4201 41.1563 23.9491 39.4733 30.1617ZM27.9804 28.2134C27.6142 28.398 27.1981 28.429 26.8085 28.3009C26.0048 28.0365 25.5664 27.167 25.831 26.3627C26.0432 25.7178 26.6449 25.3081 27.2901 25.3081C27.4485 25.3081 27.6097 25.3329 27.7682 25.3849C27.7684 25.385 27.7686 25.3851 27.7689 25.3852C27.7692 25.3852 27.7693 25.3852 27.7696 25.3853C28.1586 25.5135 28.4744 25.7855 28.659 26.1514C28.8435 26.5173 28.8746 26.9333 28.7468 27.3228C28.7467 27.323 28.7467 27.3231 28.7466 27.3232C28.7465 27.3234 28.7465 27.3237 28.7464 27.3238C28.6184 27.7129 28.3463 28.0288 27.9804 28.2134ZM27.2684 14.2314C28.3831 14.2314 29.502 14.3815 30.6003 14.6822L27.5312 24C27.009 23.9546 26.4832 24.054 26.0036 24.2959C25.8408 24.378 25.6884 24.4745 25.5468 24.5831L21.1498 20.575C20.8807 20.3298 20.4639 20.349 20.2186 20.618C19.9734 20.8871 19.9928 21.3039 20.2617 21.5493L24.7164 25.6098C24.664 25.7198 24.6175 25.8332 24.5788 25.9508C24.3406 26.6747 24.3985 27.4479 24.7416 28.1284C25.0849 28.8089 25.6726 29.315 26.3964 29.5531C26.5857 29.6154 26.7784 29.6552 26.9719 29.6773L27.1958 31.5945C27.235 31.9302 27.5198 32.1772 27.8497 32.1772C27.8752 32.1772 27.9011 32.1757 27.927 32.1727C28.2886 32.1305 28.5474 31.8031 28.5051 31.4415L28.2805 29.5182C28.3799 29.4811 28.4779 29.4388 28.574 29.3904C29.0537 29.1485 29.4461 28.7847 29.7196 28.3377L39.064 31.415C38.0175 34.1348 36.0942 36.3752 33.5663 37.8214L32.8309 36.3631C32.667 36.038 32.2706 35.9074 31.9457 36.0714C31.6207 36.2352 31.4901 36.6316 31.654 36.9567L32.3904 38.417C29.7239 39.6001 26.7758 39.8219 23.9623 39.0515L24.4755 37.4939C24.5895 37.1483 24.4015 36.7756 24.0558 36.6617C23.7097 36.5476 23.3374 36.7357 23.2235 37.0815L22.7103 38.6392C19.9163 37.5568 17.7083 35.565 16.3152 33.1186L17.7688 32.3855C18.0938 32.2215 18.2244 31.8252 18.0605 31.5002C17.8967 31.1751 17.5002 31.0443 17.1753 31.2085L15.7232 31.9408C14.5917 29.3669 14.3085 26.4103 15.1027 23.5235L16.6377 24.0299C16.7063 24.0526 16.7759 24.0633 16.8443 24.0633C17.121 24.0633 17.3786 23.8876 17.47 23.6105C17.5841 23.2648 17.3963 22.892 17.0506 22.778L15.5176 22.2723C16.5727 19.5632 18.4989 17.3328 21.027 15.8952L21.7491 17.3236C21.8651 17.553 22.0971 17.6855 22.3379 17.6855C22.4379 17.6855 22.5394 17.6626 22.6348 17.6144C22.9596 17.4501 23.0899 17.0536 22.9256 16.7288L22.2051 15.3035C23.8214 14.5916 25.5396 14.2314 27.2684 14.2314Z" fill="white" style="fill:white;fill-opacity:1;"/>
</g>
</g>
</g>
<defs>
<clipPath id="clip0_24_2774">
<rect width="45" height="45" fill="white" style="fill:white;fill-opacity:1;"/>
</clipPath>
</defs>
</svg>
