<svg width="42" height="43" viewBox="0 0 42 43" fill="none" xmlns="http://www.w3.org/2000/svg">
<g id="Happy tooth" clip-path="url(#clip0_24_2791)">
<g id="Group">
<path id="Vector" d="M41.0196 11.0743C40.911 5.13961 35.7445 -0.0230474 29.9477 0.00148467C28.917 -0.0149821 27.8933 0.111879 26.9055 0.377531C23.0457 1.41561 18.9654 1.41561 15.1054 0.377531C14.1179 0.111879 13.0952 -0.0154021 12.0634 0.00148467C3.78296 0.0995289 -1.59682 9.27838 2.22858 16.7967L5.63866 23.7972C6.29162 25.1376 6.68977 26.5735 6.82222 28.0651L7.83254 39.4437C8.24539 43.6486 13.885 44.3323 15.2765 40.3747C17.5362 33.6876 19.8186 30.6176 21.0783 30.5414C23.3521 30.701 26.1869 38.2407 26.8783 40.4194C28.2224 44.2836 33.7142 43.6515 34.1647 39.5627L35.3329 27.8863C35.4705 26.5106 35.8358 25.1805 36.4185 23.9329L39.5324 17.2665C40.5868 15.3918 41.1008 13.252 41.0196 11.0743ZM37.3767 16.0432C37.36 16.0725 37.3445 16.1027 37.3301 16.1333L34.1953 22.8444C33.4899 24.3543 33.0479 25.9642 32.8813 27.6293L31.7133 39.3056C31.5583 40.7108 29.6714 40.9282 29.2093 39.601C28.1127 36.2795 24.9106 27.6032 20.9329 28.0228C17.2268 27.9978 13.9985 36.2871 12.9476 39.5499C12.4498 40.9638 10.4334 40.7171 10.2867 39.2152L9.27631 27.8366C9.11604 26.0313 8.6341 24.2934 7.84387 22.6711L4.42992 15.6627C4.42738 15.6574 4.42475 15.6521 4.42212 15.6469C3.73077 14.2761 3.39604 12.7282 3.45406 11.1704C3.53809 6.54171 7.58021 2.50426 12.1011 2.52409C12.9082 2.51157 13.7083 2.6102 14.4794 2.81763C18.749 3.96602 23.2624 3.96593 27.5316 2.81763C28.3028 2.6102 29.1031 2.51123 29.91 2.52409C34.4311 2.50426 38.473 6.54197 38.5571 11.1705C38.6211 12.8869 38.2129 14.5718 37.3767 16.0432Z" fill="white" style="fill:white;fill-opacity:1;"/>
<path id="Vector_2" d="M16.7987 9.92207C16.7987 9.22324 16.2475 8.65674 15.5675 8.65674C13.9343 8.72336 13.9348 11.1211 15.5675 11.1875C16.2474 11.1874 16.7987 10.6209 16.7987 9.92207Z" fill="white" style="fill:white;fill-opacity:1;"/>
<path id="Vector_3" d="M26.4431 8.65674C25.7632 8.65674 25.2119 9.22324 25.2119 9.92207C25.2768 11.6006 27.6097 11.6001 27.6744 9.92207C27.6744 9.22324 27.1231 8.65674 26.4431 8.65674Z" fill="white" style="fill:white;fill-opacity:1;"/>
<path id="Vector_4" d="M24.8139 13.3818H17.198C16.5174 13.3818 15.9658 13.9467 15.9658 14.6433C16.2429 21.4895 25.7705 21.4863 26.0461 14.6433C26.046 13.9467 25.4943 13.3818 24.8139 13.3818ZM21.0059 17.2805C20.0316 17.2805 19.1819 16.7238 18.7443 15.9049H23.2674C22.8299 16.7238 21.9802 17.2805 21.0059 17.2805Z" fill="white" style="fill:white;fill-opacity:1;"/>
</g>
</g>
<defs>
<clipPath id="clip0_24_2791">
<rect width="42" height="43" fill="white" style="fill:white;fill-opacity:1;"/>
</clipPath>
</defs>
</svg>
