<svg width="44" height="44" viewBox="0 0 44 44" fill="none" xmlns="http://www.w3.org/2000/svg">
<g id="Surgeon" clip-path="url(#clip0_24_2800)">
<path id="Vector" d="M33.2214 27.4854C33.1935 27.4759 31.5749 27.1408 30.7515 27.129L27.076 25.2909C26.7741 25.1402 26.5866 24.837 26.5866 24.4997V21.2836C28.3815 20.3452 29.7224 18.6363 30.1433 16.5684C31.7753 16.331 33.0329 14.9228 33.0329 13.2259C33.0329 11.5787 31.847 10.2039 30.2841 9.90807V8.31207C30.2841 7.95428 29.9941 7.66438 29.6364 7.66438C29.2787 7.66438 28.9887 7.95428 28.9887 8.31207V8.59446H14.4381V4.73766C14.4381 2.83958 15.9823 1.29539 17.8803 1.29539H25.5464C27.4445 1.29539 28.9887 2.83958 28.9887 4.73766V5.37586C28.9887 5.73364 29.2787 6.02355 29.6364 6.02355C29.9941 6.02355 30.2841 5.73364 30.2841 5.37586V4.73766C30.2841 2.1253 28.1588 0 25.5464 0H17.8803C15.268 0 13.1427 2.1253 13.1427 4.73766V9.91507C11.5986 10.226 10.4293 11.5954 10.4293 13.2259C10.4293 14.91 11.6681 16.31 13.2822 16.5632C13.6973 18.5943 15.0266 20.3516 16.876 21.3046V24.4993C16.876 24.8367 16.6882 25.1403 16.3861 25.2913L12.6575 27.1547C11.7634 27.2219 10.0307 27.7263 10.0014 27.7398C6.333 29.1156 3.71484 32.6581 3.71484 36.8011V42.2115C3.71484 43.1977 4.51721 44 5.50334 44H8.26856C8.62626 44 8.91626 43.7101 8.91626 43.3523C8.91626 42.9945 8.62626 42.7046 8.26856 42.7046H5.50334C5.23148 42.7046 5.01023 42.4834 5.01023 42.2115V36.8011C5.01023 33.5344 6.88967 30.6987 9.62388 29.3176V34.6471H9.31152C8.00275 34.6471 6.93803 35.7118 6.93803 37.0205V39.1749C6.93803 39.9595 7.57639 40.5979 8.36105 40.5979H8.92869C9.28639 40.5979 9.57639 40.308 9.57639 39.9502C9.57639 39.5924 9.28639 39.3025 8.92869 39.3025H8.36105C8.29067 39.3025 8.23342 39.2453 8.23342 39.1749V37.0205C8.23342 36.426 8.71703 35.9425 9.31152 35.9425H11.2315C11.826 35.9425 12.3097 36.4261 12.3097 37.0205V39.1749C12.3097 39.2452 12.2524 39.3025 12.1821 39.3025H11.6145C11.2568 39.3025 10.9668 39.5924 10.9668 39.9502C10.9668 40.308 11.2568 40.5979 11.6145 40.5979H12.1821C12.9667 40.5979 13.605 39.9595 13.605 39.1749V37.0205C13.605 35.7118 12.5403 34.6471 11.2315 34.6471H10.9192V28.7941C11.7002 28.5528 12.5295 28.4225 13.3887 28.4225H13.9826C16.659 30.5667 19.2107 31.6395 21.7223 31.6395C24.2339 31.6395 26.7056 30.5667 29.2223 28.4225H30.6105C31.2117 28.4225 31.7982 28.4867 32.3638 28.6077V34.54C31.0337 34.8365 30.0361 36.0253 30.0361 37.4435C30.0361 39.0841 31.3709 40.4189 33.0115 40.4189C34.6522 40.4189 35.9869 39.0841 35.9869 37.4435C35.9869 36.0253 34.9893 34.8365 33.6592 34.54V28.9968C36.7761 30.2186 38.989 33.2561 38.989 36.801V42.2114C38.989 42.4833 38.7678 42.7045 38.4959 42.7045H11.2048C10.8471 42.7045 10.5571 42.9944 10.5571 43.3522C10.5571 43.71 10.8471 43.9999 11.2048 43.9999H38.496C39.4821 43.9999 40.2845 43.1976 40.2845 42.2114V36.801C40.2845 32.3712 37.2914 28.6275 33.2214 27.4854ZM34.6915 37.4435C34.6915 38.3699 33.9379 39.1235 33.0115 39.1235C32.0851 39.1235 31.3315 38.3698 31.3315 37.4435C31.3315 36.5172 32.0851 35.7635 33.0115 35.7635C33.9379 35.7635 34.6915 36.5172 34.6915 37.4435ZM31.7375 13.2259C31.7375 14.1552 31.1257 14.9441 30.2838 15.2115C30.2838 15.203 30.2842 15.1946 30.2842 15.1862V11.2412C31.1259 11.5087 31.7375 12.2971 31.7375 13.2259ZM11.7247 13.2259C11.7247 12.3127 12.3198 11.5325 13.1427 11.2536V15.1863C13.1427 15.1907 13.1428 15.1951 13.1428 15.1995C12.3194 14.9213 11.7247 14.1421 11.7247 13.2259ZM14.4807 15.8764C14.4524 15.6471 14.4381 9.88985 14.4381 9.88985H28.9887C28.9887 9.88985 28.9744 15.6471 28.9461 15.8768C28.6033 18.6665 26.2214 20.7702 23.4056 20.7702H20.022C19.2438 20.7702 18.4907 20.6131 17.7834 20.303C15.9852 19.5155 14.7197 17.8195 14.4807 15.8764ZM14.9096 27.5048C14.9061 27.4974 14.9026 27.4899 14.899 27.4827L16.9654 26.45C17.7093 26.0779 18.1714 25.3305 18.1714 24.4993V21.812C18.7703 21.9794 19.3893 22.0657 20.022 22.0657H23.4056C24.0574 22.0657 24.6903 21.9741 25.2912 21.8027V24.4997C25.2912 25.3311 25.7534 26.0784 26.497 26.4497L28.364 27.3834C28.332 27.4254 28.3046 27.471 28.2835 27.5203C23.8206 31.2708 19.6708 31.2659 14.9096 27.5048Z" fill="white" style="fill:white;fill-opacity:1;"/>
</g>
<defs>
<clipPath id="clip0_24_2800">
<rect width="44" height="44" fill="white" style="fill:white;fill-opacity:1;"/>
</clipPath>
</defs>
</svg>
