<svg width="45" height="45" viewBox="0 0 45 45" fill="none" xmlns="http://www.w3.org/2000/svg">
<g id="Goodbye" clip-path="url(#clip0_24_2619)">
<g id="Group">
<path id="Vector" d="M44.6299 41.7407L36.508 30.2566C36.5051 30.2527 36.508 30.2436 36.51 30.238L36.5211 30.2084C36.8829 29.2488 37.1799 28.2465 37.404 27.2292C37.4823 26.8736 37.2576 26.5217 36.9021 26.4434C36.5462 26.3647 36.1947 26.5898 36.1163 26.9455C35.9057 27.9012 35.6269 28.8425 35.2871 29.7437L35.2759 29.7733C35.1181 30.192 35.1762 30.6573 35.4313 31.018L43.5532 42.5021C43.6817 42.6837 43.8853 42.7808 44.092 42.7808C44.2236 42.7808 44.3566 42.7415 44.4722 42.6596C44.7695 42.4495 44.8401 42.038 44.6299 41.7407Z" fill="black" style="fill:black;fill-opacity:1;"/>
<path id="Vector_2" d="M36.5492 21.2229C36.6153 22.2196 36.6065 23.2379 36.5227 24.2493C36.4926 24.6121 36.7625 24.9307 37.1253 24.9608C37.4883 24.9908 37.8067 24.721 37.8368 24.3582C37.926 23.2816 37.9355 22.1975 37.8648 21.1356C37.6114 17.3215 37.2598 12.0304 37.0628 9.05435C36.9553 7.42962 35.6433 6.13402 34.011 6.04075L33.954 6.03749C32.3661 5.94589 30.9528 7.05882 30.6686 8.62466L29.6094 14.4602C29.3291 14.6317 29.0578 14.8146 28.7944 15.0068L26.1965 11.3335C25.9862 11.0362 25.5748 10.9655 25.2776 11.176C24.9802 11.3862 24.9097 11.7976 25.1199 12.095L27.7709 15.8433C25.5293 17.8885 24.0982 20.7322 23.8356 23.8016L23.7144 25.2188C23.6833 25.5816 23.9522 25.9009 24.315 25.9319C24.3341 25.9336 24.3531 25.9343 24.3719 25.9343C24.7106 25.9343 24.9987 25.6749 25.0281 25.3312L25.1493 23.9141C25.4433 20.4772 27.3792 17.3567 30.3276 15.5667C30.6284 15.3842 30.8369 15.081 30.8997 14.7349L31.966 8.86016C32.1315 7.94855 32.9545 7.30215 33.8787 7.35393L33.9357 7.35718C34.9046 7.41265 35.6834 8.17966 35.747 9.14147C35.9442 12.1175 36.2956 17.4088 36.5492 21.2229Z" fill="black" style="fill:black;fill-opacity:1;"/>
<path id="Vector_3" d="M22.496 40.644C22.2167 40.2491 21.8422 39.9222 21.4129 39.6989L21.2169 39.597C19.6154 38.7639 18.2009 37.5548 17.1262 36.1001C16.9099 35.8072 16.497 35.7452 16.2041 35.9616C15.9112 36.1779 15.8492 36.5907 16.0656 36.8836C17.2589 38.4989 18.8297 39.8416 20.6083 40.7668L20.8043 40.8687C21.0481 40.9956 21.2607 41.1812 21.4194 41.4054L23.7644 44.7212C23.8929 44.9028 24.0965 44.9999 24.3033 44.9999C24.4349 44.9999 24.5678 44.9606 24.6834 44.8787C24.9807 44.6684 25.0513 44.257 24.841 43.9597L22.496 40.644Z" fill="black" style="fill:black;fill-opacity:1;"/>
<path id="Vector_4" d="M4.56079 18.3575C3.90675 17.4326 4.12696 16.148 5.05185 15.4938C5.49992 15.177 6.0446 15.0534 6.58533 15.1463C7.12624 15.2391 7.59857 15.5368 7.91539 15.985L12.9959 23.1509C13.1244 23.3325 13.328 23.4296 13.5348 23.4296C13.6664 23.4296 13.7993 23.3903 13.9149 23.3084C14.2122 23.0981 14.2828 22.6867 14.0725 22.3894L6.35 11.4699C6.03318 11.0218 5.90975 10.4772 6.0025 9.93632C6.09524 9.39551 6.39299 8.92317 6.84106 8.60626C7.28904 8.28944 7.83346 8.16566 8.37454 8.25876C8.91536 8.3515 9.38769 8.64934 9.70452 9.09732L17.1532 19.6296C17.2817 19.8112 17.4853 19.9083 17.6921 19.9083C17.8237 19.9083 17.9566 19.869 18.0722 19.7871C18.3695 19.5769 18.4401 19.1654 18.2298 18.8681L9.03175 5.86218C8.71493 5.41411 8.5915 4.86951 8.68425 4.32861C8.77699 3.7878 9.07483 3.31546 9.5229 2.99855C9.97097 2.68172 10.5157 2.55804 11.0564 2.65104C11.5972 2.74379 12.0695 3.04162 12.3864 3.4897L21.7869 16.7817C21.9154 16.9633 22.119 17.0604 22.3258 17.0604C22.4574 17.0604 22.5903 17.0211 22.7059 16.9392C23.0032 16.729 23.0738 16.3176 22.8635 16.0202L14.768 4.57344C14.1143 3.64855 14.3347 2.36428 15.2594 1.71024C15.7075 1.39342 16.2522 1.26982 16.7929 1.36274C17.3337 1.45548 17.806 1.75323 18.1229 2.20139L23.4899 9.79004C23.7002 10.0873 24.1116 10.1579 24.4089 9.94758C24.7062 9.7373 24.7768 9.32588 24.5665 9.02858L19.1996 1.43992C18.6793 0.7043 17.9038 0.215262 17.0157 0.0630038C16.1278 -0.0891666 15.2336 0.113376 14.4979 0.633621C13.8583 1.086 13.4248 1.72229 13.2166 2.42046C12.7114 1.85661 12.0365 1.48115 11.2791 1.35131C10.3912 1.19896 9.49697 1.40168 8.76134 1.92184C8.02572 2.44208 7.53677 3.21762 7.38442 4.10567C7.23208 4.99373 7.43471 5.88785 7.95495 6.62356L8.16005 6.91349C7.42003 6.88281 6.69434 7.09484 6.07959 7.52964C5.34397 8.0498 4.85502 8.82533 4.70276 9.71339C4.5505 10.6014 4.75313 11.4956 5.27329 12.2313L6.38402 13.8017C5.63926 13.7678 4.90882 13.9798 4.29038 14.4172C2.77193 15.4912 2.41018 17.6002 3.48434 19.119L14.4248 34.5706C14.5533 34.7521 14.7568 34.849 14.9634 34.849C15.0952 34.849 15.2282 34.8096 15.3439 34.7277C15.641 34.5173 15.7114 34.1058 15.501 33.8086L4.56079 18.3575Z" fill="black" style="fill:black;fill-opacity:1;"/>
<path id="Vector_5" d="M9.27603 38.604C4.65149 38.2132 1.20713 34.1329 1.59789 29.5084L1.62707 29.1636C1.65784 28.8007 1.38858 28.4816 1.02569 28.451C0.662799 28.4213 0.343865 28.6895 0.313185 29.0523L0.283999 29.3973C-0.168116 34.7463 3.81592 39.4658 9.16492 39.918C9.18382 39.9196 9.20254 39.9203 9.22118 39.9203C9.56016 39.9203 9.84832 39.6604 9.87742 39.3165C9.9081 38.9536 9.63883 38.6347 9.27603 38.604Z" fill="black" style="fill:black;fill-opacity:1;"/>
<path id="Vector_6" d="M9.60182 34.7495C7.10247 34.5383 5.241 32.3331 5.45216 29.8339L5.48135 29.4893C5.51203 29.1264 5.24276 28.8074 4.87996 28.7767C4.51637 28.7464 4.19805 29.0153 4.16746 29.3782L4.13827 29.7228C3.86575 32.9466 6.2669 35.7911 9.49079 36.0636C9.50969 36.0652 9.5285 36.0659 9.54705 36.0659C9.88602 36.0659 10.1742 35.806 10.2033 35.4621C10.2339 35.0992 9.96462 34.7803 9.60182 34.7495Z" fill="black" style="fill:black;fill-opacity:1;"/>
<path id="Vector_7" d="M23.7677 1.31864C26.6672 1.31864 29.0262 3.67759 29.0262 6.577V6.6795C29.0262 7.04371 29.3214 7.33882 29.6855 7.33882C30.0496 7.33882 30.3448 7.04371 30.3448 6.6795V6.577C30.3448 2.9504 27.3944 0 23.7677 0C23.4036 0 23.1084 0.295111 23.1084 0.659318C23.1084 1.02352 23.4036 1.31864 23.7677 1.31864Z" fill="black" style="fill:black;fill-opacity:1;"/>
<path id="Vector_8" d="M23.7677 5.1868C24.5345 5.1868 25.1582 5.81051 25.1582 6.57717V6.67967C25.1582 7.04388 25.4534 7.33899 25.8175 7.33899C26.1816 7.33899 26.4768 7.04388 26.4768 6.67967V6.57717C26.4768 5.08342 25.2616 3.86816 23.7677 3.86816C23.4036 3.86816 23.1084 4.16327 23.1084 4.52748C23.1084 4.89169 23.4036 5.1868 23.7677 5.1868Z" fill="black" style="fill:black;fill-opacity:1;"/>
</g>
</g>
<defs>
<clipPath id="clip0_24_2619">
<rect width="45" height="45" fill="white" style="fill:white;fill-opacity:1;"/>
</clipPath>
</defs>
</svg>
