<svg width="45" height="45" viewBox="0 0 45 45" fill="none" xmlns="http://www.w3.org/2000/svg">
<g id="Ventilation" clip-path="url(#clip0_24_2652)">
<g id="Group">
<path id="Vector" d="M26.1474 26.9043C24.9644 26.9043 24.002 27.8668 24.002 29.0498C24.002 30.2328 24.9644 31.1953 26.1474 31.1953C27.3305 31.1953 28.2929 30.2328 28.2929 29.0498C28.2929 27.8668 27.3305 26.9043 26.1474 26.9043ZM26.1474 29.877C25.6914 29.877 25.3203 29.5059 25.3203 29.0499C25.3203 28.5938 25.6914 28.2227 26.1474 28.2227C26.6035 28.2227 26.9746 28.5938 26.9746 29.0499C26.9746 29.5059 26.6035 29.877 26.1474 29.877Z" fill="black" style="fill:black;fill-opacity:1;"/>
<path id="Vector_2" d="M26.1474 32.0342C24.9644 32.0342 24.002 32.9967 24.002 34.1797C24.002 35.3627 24.9644 36.3252 26.1474 36.3252C27.3305 36.3252 28.2929 35.3627 28.2929 34.1797C28.2929 32.9967 27.3305 32.0342 26.1474 32.0342ZM26.1474 35.0069C25.6914 35.0069 25.3203 34.6358 25.3203 34.1798C25.3203 33.7237 25.6914 33.3526 26.1474 33.3526C26.6035 33.3526 26.9746 33.7237 26.9746 34.1798C26.9746 34.6358 26.6035 35.0069 26.1474 35.0069Z" fill="black" style="fill:black;fill-opacity:1;"/>
<path id="Vector_3" d="M43.3752 37.5447H35.5853V28.0704C35.5853 27.7063 35.2903 27.4112 34.9261 27.4112C34.562 27.4112 34.267 27.7063 34.267 28.0704V37.5447H22.6267V25.6315H37.9403C39.0038 25.6315 39.869 24.7663 39.869 23.7027V17.6218H40.7388C41.5694 17.6218 42.2451 16.9461 42.2451 16.1154V1.50636C42.2452 0.675703 41.5695 0 40.739 0H16.1548C15.3242 0 14.6485 0.675703 14.6485 1.50636V16.1154C14.6485 16.9461 15.3242 17.6219 16.1548 17.6219H19.2519V18.9415C19.2519 19.7721 19.9276 20.4478 20.7583 20.4478H21.3085V21.8135H13.2925V4.94165C13.3108 3.55693 11.9932 2.56025 10.6254 2.72804C10.7279 1.50311 9.70338 0.311748 8.41174 0.322646H5.66103C4.41043 0.322646 3.3931 1.34007 3.3931 2.59066V9.90659H2.26265C1.20348 9.90659 0.341797 10.7684 0.341797 11.8275V20.0166C0.341797 21.0758 1.20356 21.9375 2.26265 21.9375H3.18093V23.6972H2.29473C1.40193 23.6972 0.675518 24.4236 0.675518 25.3165V26.9476C0.675518 27.3117 0.970566 27.6068 1.3347 27.6068C1.69883 27.6068 1.99388 27.3117 1.99388 26.9476V25.3165C1.99388 25.1505 2.12879 25.0155 2.29473 25.0155H5.3854C5.55134 25.0155 5.68634 25.1505 5.68634 25.3165V26.9476C5.68634 27.3117 5.98139 27.6068 6.34552 27.6068C6.70965 27.6068 7.0047 27.3117 7.0047 26.9476V25.3165C7.0047 24.4236 6.27828 23.6972 5.3854 23.6972H4.49929V21.9375H5.41757C6.47674 21.9375 7.33842 21.0757 7.33842 20.0166V18.9911C7.33842 18.627 7.04337 18.332 6.67924 18.332C6.31511 18.332 6.02006 18.627 6.02006 18.9911V20.0166C6.02006 20.3489 5.74979 20.6191 5.41757 20.6191H2.26265C1.93042 20.6191 1.66016 20.3489 1.66016 20.0166V11.8275C1.66016 11.4953 1.93042 11.225 2.26265 11.225H5.41757C5.74979 11.225 6.02006 11.4953 6.02006 11.8275V15.9024C6.02006 16.2665 6.31511 16.5616 6.67924 16.5616C7.04337 16.5616 7.33842 16.2665 7.33842 15.9024V4.0464H9.30682V23.3291C9.30682 24.5987 10.3397 25.6315 11.6092 25.6315H21.3083V37.5447H13.5184C12.811 37.5447 12.2355 38.1202 12.2355 38.8275V41.1253C12.2355 41.8327 12.811 42.4082 13.5184 42.4082H17.2819V43.576C17.2819 44.3613 17.9208 45.0001 18.706 45.0001H20.1713C20.9566 45.0001 21.5954 44.3612 21.5954 43.576V41.7489C21.5954 41.3848 21.3004 41.0897 20.9362 41.0897H13.5539V38.863H43.3396V41.0897H24.0253C23.6612 41.0897 23.3661 41.3848 23.3661 41.7489C23.3661 42.1131 23.6612 42.4081 24.0253 42.4081H35.2981V43.5759C35.2981 44.3612 35.937 45 36.7222 45H38.1875C38.9728 45 39.6116 44.3611 39.6116 43.5759V42.4081H43.3752C44.0825 42.4081 44.658 41.8326 44.658 41.1253V38.8274C44.658 38.1202 44.0825 37.5447 43.3752 37.5447ZM25.602 21.2028V20.4477H34.267V24.3131H22.6267V23.1317H23.6731C24.7367 23.1318 25.602 22.2665 25.602 21.2028ZM38.5508 23.7027C38.5508 24.0393 38.277 24.3132 37.9403 24.3132H35.5853V20.4478H36.1355C36.9661 20.4478 37.6419 19.7721 37.6419 18.9414V17.6218H38.5508V23.7027H38.5508ZM20.5703 18.9414V16.9626C20.5703 16.5985 20.2752 16.3034 19.9111 16.3034H16.1548C16.0511 16.3034 15.9668 16.2191 15.9668 16.1154V1.50636C15.9668 1.40265 16.0511 1.31836 16.1548 1.31836H40.739C40.8427 1.31836 40.927 1.40265 40.927 1.50636V16.1154C40.927 16.2192 40.8427 16.3035 40.739 16.3035H36.9827C36.6186 16.3035 36.3235 16.5986 36.3235 16.9627V18.9415C36.3235 19.0452 36.2392 19.1295 36.1355 19.1295H20.7583C20.6546 19.1293 20.5703 19.045 20.5703 18.9414ZM22.6267 20.4477H24.2836V21.2028C24.2836 21.5394 24.0098 21.8133 23.6732 21.8133H22.6268V20.4477H22.6267ZM6.67933 2.72804C6.3152 2.72804 6.02015 3.02309 6.02015 3.38722V10.0039C5.83048 9.94104 5.62807 9.9065 5.41766 9.9065H4.71154V2.59066C4.71154 2.06701 5.13755 1.64101 5.66111 1.64101H8.41183C8.90226 1.64514 9.3795 2.12968 9.30708 2.72804H6.67933ZM11.6094 24.3132C11.0667 24.3132 10.6254 23.8717 10.6254 23.3291V4.0464C11.2017 3.95824 11.9354 4.20003 11.9741 4.94165V22.4726C11.9741 22.8367 12.2692 23.1318 12.6333 23.1318H21.3085V24.3132H11.6094ZM20.2772 42.4081V43.5759C20.2772 43.6342 20.2298 43.6816 20.1715 43.6816H18.7062C18.6479 43.6816 18.6005 43.6342 18.6005 43.5759V42.4081H20.2772ZM38.2932 43.5759C38.2932 43.6342 38.2458 43.6816 38.1875 43.6816H36.7222C36.6639 43.6816 36.6165 43.6342 36.6165 43.5759V42.4081H38.2932V43.5759Z" fill="black" style="fill:black;fill-opacity:1;"/>
<path id="Vector_4" d="M39.2099 15.2458C39.574 15.2458 39.869 14.9508 39.869 14.5866V3.03516C39.869 2.67103 39.574 2.37598 39.2099 2.37598H17.6836C17.3195 2.37598 17.0244 2.67103 17.0244 3.03516V14.5866C17.0244 14.9508 17.3195 15.2458 17.6836 15.2458H39.2099ZM38.5507 13.9274H23.8424V3.69434H38.5507V13.9274ZM18.3428 3.69434H22.5241V13.9274H18.3428V3.69434Z" fill="black" style="fill:black;fill-opacity:1;"/>
<path id="Vector_5" d="M26.7026 16.3032H23.1836C22.8195 16.3032 22.5244 16.5983 22.5244 16.9624C22.5244 17.3265 22.8195 17.6216 23.1836 17.6216H26.7026C27.0667 17.6216 27.3617 17.3265 27.3617 16.9624C27.3617 16.5983 27.0667 16.3032 26.7026 16.3032Z" fill="black" style="fill:black;fill-opacity:1;"/>
<path id="Vector_6" d="M29.0674 17.6221C29.4314 17.6221 29.7266 17.3269 29.7266 16.9629C29.7266 16.5988 29.4314 16.3037 29.0674 16.3037C28.7033 16.3037 28.4082 16.5988 28.4082 16.9629C28.4082 17.3269 28.7033 17.6221 29.0674 17.6221Z" fill="black" style="fill:black;fill-opacity:1;"/>
<path id="Vector_7" d="M31.3887 17.6221C31.7527 17.6221 32.0479 17.3269 32.0479 16.9629C32.0479 16.5988 31.7527 16.3037 31.3887 16.3037C31.0246 16.3037 30.7295 16.5988 30.7295 16.9629C30.7295 17.3269 31.0246 17.6221 31.3887 17.6221Z" fill="black" style="fill:black;fill-opacity:1;"/>
<path id="Vector_8" d="M33.71 17.6221C34.074 17.6221 34.3691 17.3269 34.3691 16.9629C34.3691 16.5988 34.074 16.3037 33.71 16.3037C33.3459 16.3037 33.0508 16.5988 33.0508 16.9629C33.0508 17.3269 33.3459 17.6221 33.71 17.6221Z" fill="black" style="fill:black;fill-opacity:1;"/>
</g>
</g>
<defs>
<clipPath id="clip0_24_2652">
<rect width="45" height="45" fill="white" style="fill:white;fill-opacity:1;"/>
</clipPath>
</defs>
</svg>
