<svg width="45" height="45" viewBox="0 0 45 45" fill="none" xmlns="http://www.w3.org/2000/svg">
<g id="Pillow" clip-path="url(#clip0_24_2668)">
<g id="Group">
<path id="Vector" d="M43.335 35.2881C43.8204 35.2881 44.2139 34.8946 44.2139 34.4092C44.2139 33.9238 43.8204 33.5303 43.335 33.5303C42.8496 33.5303 42.4561 33.9238 42.4561 34.4092C42.4561 34.8946 42.8496 35.2881 43.335 35.2881Z" fill="black" style="fill:black;fill-opacity:1;"/>
<path id="Vector_2" d="M43.4883 38.4302C43.5577 37.9731 43.2589 37.5381 42.808 37.4396C42.5505 37.3833 42.2771 37.4475 42.0724 37.6101C41.9142 37.7357 41.8043 37.9133 41.7612 38.1101L41.7595 38.1162C41.7489 38.1655 41.7375 38.2155 41.727 38.2648C41.6953 38.4054 41.6988 38.5469 41.7366 38.6848L42.8713 42.8711L38.5295 41.6942C38.3309 41.6397 38.1173 41.6581 37.9301 41.7451C36.5344 42.3982 34.3863 42.7436 31.7188 42.7436H31.6591C29.4495 42.7436 26.8682 42.5291 23.7665 42.0888C22.2864 41.8787 20.8257 41.7758 19.299 41.7758H19.2929C17.8998 41.7768 16.6772 41.8568 15.496 41.9341C14.5011 41.9991 13.5615 42.0606 12.665 42.0606H12.6387C10.9406 42.0588 9.6293 41.8532 8.25205 41.3706C8.08242 41.3117 7.90312 41.3047 7.73086 41.3522L2.12871 42.8709L3.26338 38.6846C3.30117 38.5467 3.30469 38.4051 3.27305 38.2646C2.26758 33.7386 1.75781 28.7393 1.75781 23.4079C1.75781 16.0189 2.72813 9.83935 3.30732 6.81416C3.33193 6.68232 3.32754 6.54961 3.29238 6.41953L2.12871 2.12871L6.47051 3.30557C6.66035 3.35742 6.87393 3.3416 7.05498 3.26162C8.32939 2.7 11.0417 1.75781 14.8799 1.75781C17.8304 1.75781 20.9188 2.31064 24.0574 3.39873C24.772 3.64658 25.5577 3.76611 26.4604 3.76611C27.5133 3.76523 28.5899 3.60527 29.6314 3.45146C29.7123 3.43916 32.2058 3.03935 33.358 3.0832C34.2158 3.11581 35.7012 3.26162 36.7479 3.629C36.9167 3.68789 37.0969 3.69492 37.2691 3.64746L42.8713 2.12871L41.7076 6.41953C41.6725 6.54961 41.6681 6.68232 41.6927 6.81416C42.2719 9.83935 43.2422 16.0181 43.2422 23.4079C43.2422 25.8012 43.1376 28.154 42.9328 30.4022C42.9117 30.636 42.9829 30.8645 43.1323 31.0447C43.2826 31.2249 43.4944 31.3365 43.7282 31.3576C43.9743 31.3796 44.2169 31.2978 44.3988 31.1326C44.5623 30.9841 44.6634 30.7819 44.6836 30.5622C44.8937 28.2612 45 25.8539 45 23.4079C44.9991 15.9917 44.0332 9.74707 43.4575 6.68408L44.9692 1.10918C45.0519 0.805957 44.9648 0.479883 44.7425 0.257519C44.5245 0.0395508 44.1896 -0.0500976 43.8908 0.0307617L37.067 1.88174C35.9086 1.50732 34.6983 1.32539 33.3686 1.32539H33.3642C31.9904 1.32539 29.5515 1.68662 29.5515 1.68662C28.4396 1.85186 27.3894 2.00918 26.47 2.00918H26.4604C25.7563 2.0083 25.1587 1.92041 24.634 1.7376C21.3091 0.584473 18.0281 0 14.8816 0H14.8799C13.1651 0 11.4935 0.174023 9.91055 0.517676C8.73984 0.77168 7.6377 1.11182 6.63486 1.5293L1.10918 0.0307617C0.81123 -0.0500976 0.475488 0.0395508 0.25752 0.257519C0.0351563 0.479883 -0.0518555 0.805957 0.0307617 1.10918L1.54248 6.68408C0.966797 9.74619 0.000878906 15.9899 0 23.4079C0 28.7842 0.508887 33.8396 1.51084 38.4337L0.0307617 43.8908C-0.0518555 44.194 0.0351563 44.5201 0.25752 44.7424C0.475488 44.9604 0.81123 45.05 1.10918 44.9691L7.93125 43.119C9.38144 43.5964 10.8721 43.8187 12.6229 43.8187H12.6387C13.6424 43.8169 14.6285 43.7527 15.6718 43.6851C16.8064 43.6103 17.9807 43.5338 19.2691 43.5338H19.2929C20.7378 43.5338 22.1203 43.6306 23.5187 43.8291C26.7056 44.2809 29.3695 44.5015 31.6635 44.5015C33.0258 44.4988 34.2026 44.425 35.26 44.2747C36.4597 44.105 37.4766 43.8413 38.3687 43.4713L43.8908 44.969C43.9655 44.9892 44.0429 44.9998 44.1202 44.9998C44.3522 44.9998 44.579 44.9058 44.7425 44.7422C44.9648 44.5199 45.0519 44.1939 44.9692 43.8906L43.4883 38.4302Z" fill="black" style="fill:black;fill-opacity:1;"/>
<path id="Vector_3" d="M15.2565 35.0536C14.8842 35.3651 14.8349 35.9195 15.1464 36.2917C15.3203 36.4994 15.5697 36.6066 15.821 36.6066C16.0199 36.6066 16.22 36.5393 16.3845 36.4017C17.3629 35.5831 18.3087 34.6756 19.2045 33.7062H24.6579C24.927 33.7062 25.1813 33.583 25.3479 33.3717C28.0086 29.999 29.7089 26.6439 30.4016 23.3995C30.9649 20.7609 30.8676 18.1941 30.1124 15.7705C28.8257 11.6408 26.0856 9.3866 25.9696 9.29264C25.725 9.09445 25.3931 9.04224 25.0995 9.15597C24.806 9.26952 24.5955 9.53135 24.5477 9.84257C23.738 15.1251 18.3591 19.2628 18.2754 19.3264C18.0066 19.5293 17.8772 19.8679 17.9424 20.1983L18.2978 21.9992L17.6481 21.5726C17.4439 21.4386 17.1931 21.3956 16.9559 21.4539C16.7187 21.5122 16.5165 21.6666 16.3977 21.8801L14.3492 25.5621C14.2033 25.8242 14.2013 26.1425 14.3436 26.4065L17.7384 32.7018C16.9534 33.5382 16.1224 34.3291 15.2565 35.0536ZM16.1195 25.996L17.4742 23.5611L19.0834 24.6174C19.3793 24.8116 19.7628 24.8096 20.0564 24.6118C20.3501 24.4141 20.4965 24.0597 20.428 23.7125L19.7702 20.3802C21.0262 19.3334 24.5978 16.0623 25.9138 11.7317C26.7142 12.6714 27.7859 14.2128 28.4342 16.2934C29.935 21.11 28.52 26.3752 24.2285 31.9484H20.7178C21.7881 30.612 22.7547 29.1938 23.5732 27.7437C25.375 24.5515 26.3673 21.3939 26.3673 18.8527C26.3673 18.3673 25.9739 17.9738 25.4884 17.9738C25.003 17.9738 24.6095 18.3673 24.6095 18.8527C24.6095 22.4296 22.3527 27.2358 18.9785 31.2978L16.1195 25.996Z" fill="black" style="fill:black;fill-opacity:1;"/>
</g>
</g>
<defs>
<clipPath id="clip0_24_2668">
<rect width="45" height="45" fill="white" style="fill:white;fill-opacity:1;"/>
</clipPath>
</defs>
</svg>
