<svg width="45" height="45" viewBox="0 0 45 45" fill="none" xmlns="http://www.w3.org/2000/svg">
<g id="Info" clip-path="url(#clip0_24_2635)">
<path id="Vector" d="M32.6953 5.27344C32.2102 5.27344 31.8164 5.66723 31.8164 6.15234C31.8164 6.63746 32.2102 7.03125 32.6953 7.03125C33.1804 7.03125 33.5742 6.63746 33.5742 6.15234C33.5742 5.66723 33.1804 5.27344 32.6953 5.27344Z" fill="black" style="fill:black;fill-opacity:1;"/>
<path id="Vector_2" d="M15.4688 37.9688C14.9836 37.9688 14.5898 38.3625 14.5898 38.8477C14.5898 39.3328 14.9836 39.7266 15.4688 39.7266C15.9539 39.7266 16.3477 39.3328 16.3477 38.8477C16.3477 38.3625 15.9539 37.9688 15.4688 37.9688Z" fill="black" style="fill:black;fill-opacity:1;"/>
<path id="Vector_3" d="M40.2151 32.1923L31.4944 34.94C30.9835 33.6216 29.7036 32.6953 28.2163 32.6953H22.7067C22.3695 32.6953 22.1927 32.5202 22.0726 32.4371C18.3475 29.8622 13.609 29.178 9.31641 30.5756V30.0586C9.31641 29.5731 8.92296 29.1797 8.4375 29.1797H0.878906C0.393448 29.1797 0 29.5731 0 30.0586V44.1211C0 44.6066 0.393448 45 0.878906 45H8.4375C8.92296 45 9.31641 44.6066 9.31641 44.1211V43.4193L10.5795 44.2619C11.3042 44.7446 12.1471 45 13.0174 45H28.7014C29.3761 45 30.0528 44.841 30.6594 44.5403C30.6594 44.5403 43.0561 38.6049 43.0606 38.6029C44.6618 37.8022 45.3996 35.9184 44.7765 34.221C44.1365 32.4797 42.0917 31.5702 40.2151 32.1923ZM1.75781 43.2422V30.9375H7.55859V43.2422H1.75781ZM42.2805 37.0274C42.2805 37.0274 29.8862 42.9613 29.8821 42.9634C29.5161 43.1457 29.1079 43.2422 28.7014 43.2422H13.0174C12.4952 43.2422 11.9895 43.0891 11.5549 42.7993L9.31641 41.3065V32.4358L9.51828 32.3637C13.3683 30.9873 17.6739 31.5479 21.0429 33.8626C21.5205 34.2502 22.11 34.4531 22.7067 34.4531H28.2163C29.1498 34.4531 29.9206 35.1823 29.971 36.1117C29.9728 36.1447 29.9741 36.1776 29.9741 36.2109C29.9741 37.1801 29.1855 37.9688 28.2163 37.9688H19.2807C18.7952 37.9688 18.4018 38.3625 18.4018 38.8477C18.4018 39.3331 18.7952 39.7266 19.2807 39.7266H28.2163C29.982 39.7266 31.4473 38.4182 31.6945 36.7201C31.6945 36.7201 40.7593 33.864 40.7641 33.8623C41.734 33.5389 42.8154 33.9811 43.1265 34.8273C43.4451 35.6953 43.0894 36.6195 42.2805 37.0274Z" fill="black" style="fill:black;fill-opacity:1;"/>
<path id="Vector_4" d="M32.6953 0C25.9106 0 20.3906 5.51994 20.3906 12.3047C20.3906 15.2858 21.4563 18.1305 23.4016 20.3693L22.1749 25.2751C22.0914 25.6081 22.2095 25.959 22.4773 26.1739C22.7427 26.3868 23.1104 26.4293 23.4204 26.2745L28.3382 23.8156C29.728 24.3426 31.1916 24.6094 32.6953 24.6094C39.4801 24.6094 45 19.0894 45 12.3047C45 5.51994 39.4801 0 32.6953 0ZM32.6953 22.8516C31.2877 22.8516 29.922 22.5793 28.6359 22.0424C28.4 21.9438 28.1329 21.9527 27.9042 22.0671L24.3436 23.8475L25.2201 20.3412C25.2929 20.0511 25.2129 19.7438 25.008 19.5258C23.164 17.5637 22.1484 14.9991 22.1484 12.3047C22.1484 6.48914 26.8798 1.75781 32.6953 1.75781C38.5109 1.75781 43.2422 6.48914 43.2422 12.3047C43.2422 18.1202 38.5109 22.8516 32.6953 22.8516Z" fill="black" style="fill:black;fill-opacity:1;"/>
<path id="Vector_5" d="M32.6953 8.78906C32.2099 8.78906 31.8164 9.18251 31.8164 9.66797V18.457C31.8164 18.9425 32.2099 19.3359 32.6953 19.3359C33.1808 19.3359 33.5742 18.9425 33.5742 18.457V9.66797C33.5742 9.18251 33.1808 8.78906 32.6953 8.78906Z" fill="black" style="fill:black;fill-opacity:1;"/>
</g>
<defs>
<clipPath id="clip0_24_2635">
<rect width="45" height="45" fill="white" style="fill:white;fill-opacity:1;"/>
</clipPath>
</defs>
</svg>
