<svg width="45" height="45" viewBox="0 0 45 45" fill="none" xmlns="http://www.w3.org/2000/svg">
<g id="Queue" clip-path="url(#clip0_24_2603)">
<g id="Group">
<g id="Group_2">
<path id="Vector" d="M25.0298 40.1199V34.0588C25.0298 33.0083 25.3009 32.3458 25.6441 31.5069C26.1502 30.2703 26.78 28.7313 26.8206 25.4293C26.8206 25.4281 26.8205 25.4268 26.8205 25.4256C26.8205 25.4241 26.8207 25.4226 26.8207 25.4211V17.0874C26.8207 14.7573 25.9212 13.5388 24.9407 12.6021C26.5223 11.5846 27.5726 9.81272 27.5726 7.79959C27.5726 7.05788 27.4273 6.32689 27.1491 5.64539C27.2941 5.58123 27.4262 5.5016 27.5428 5.40431C27.8921 5.11277 28.0844 4.68519 28.0844 4.20047C28.0844 2.48774 25.61 0 21.7328 0C19.559 0 17.6773 0.986221 16.5702 2.7058C15.354 4.59492 15.2887 7.07713 16.3887 9.52154C16.7669 10.7151 17.5022 11.7121 18.4577 12.4109C18.1754 13.2846 17.954 14.2495 17.7975 15.2906C17.208 15.7634 16.8298 16.4879 16.8298 17.2992V29.9355C16.8298 30.9531 17.4243 31.8345 18.285 32.2533C18.4124 32.9035 18.4961 33.6059 18.5059 34.6518V44.3408C18.5059 44.7049 18.801 45 19.1651 45H27.865C28.2186 45 28.5093 44.7209 28.5237 44.3676C28.5764 43.0736 28.2365 42.0356 27.5135 41.2826C26.7522 40.4896 25.7492 40.2122 25.0298 40.1199ZM25.5024 17.0874V24.762H21.9974V17.2992C21.9974 15.8779 20.8388 14.7216 19.4148 14.7216C19.3524 14.7216 19.2907 14.7246 19.2293 14.729C19.3408 14.1438 19.4754 13.5904 19.6319 13.0716C20.317 13.3563 21.0665 13.5112 21.8478 13.5112C22.4809 13.5112 23.0898 13.4066 23.6596 13.2164C24.6736 14.1144 25.5024 15.0006 25.5024 17.0874ZM17.351 8.3896C16.6923 6.56244 16.8032 4.77949 17.6788 3.41956C18.5383 2.08415 20.0161 1.31836 21.7328 1.31836C25.0023 1.31836 26.766 3.36393 26.766 4.20038C26.766 4.33529 26.7201 4.3737 26.6979 4.39216C26.6549 4.42819 26.5174 4.51195 26.174 4.51195H20.6363C19.2598 4.51195 18.8965 5.58747 18.6045 6.4517C18.3521 7.19859 18.1114 7.91147 17.351 8.3896ZM17.8406 9.63044C19.1649 8.91114 19.5573 7.75028 19.8535 6.87357C20.1598 5.96681 20.2622 5.83022 20.6362 5.83022H25.7861C26.0928 6.4401 26.2542 7.11387 26.2542 7.7995C26.2542 10.222 24.2774 12.1929 21.8477 12.1929C20.0958 12.1929 18.5502 11.1837 17.8406 9.63044ZM18.1481 17.2992C18.1481 16.6049 18.7163 16.04 19.4148 16.04C20.1119 16.04 20.679 16.6049 20.679 17.2992V20.4942H18.1481V17.2992ZM19.0445 31.1396C19.0414 31.1387 19.0384 31.1377 19.0354 31.1369C18.5217 30.9763 18.1481 30.4985 18.1481 29.9355V21.8126H20.679V29.9355C20.679 30.6299 20.1119 31.1948 19.4148 31.1948C19.2859 31.1948 19.1617 31.1753 19.0445 31.1396ZM21.9974 29.9355V26.0803H25.4848C25.3806 28.668 24.8747 29.9063 24.4239 31.0076C24.0575 31.9031 23.7114 32.7489 23.7114 34.0588V40.0766H19.8242V34.6456C19.8158 33.7547 19.7581 33.0899 19.6669 32.5007C20.973 32.3737 21.9974 31.2719 21.9974 29.9355ZM19.8242 43.6816V41.3949H24.3706C24.7045 41.3949 25.8492 41.4526 26.5624 42.1956C26.9147 42.5624 27.1245 43.0607 27.189 43.6816H19.8242V43.6816Z" fill="black" style="fill:black;fill-opacity:1;"/>
<path id="Vector_2" d="M43.245 41.2822C42.4832 40.4895 41.4803 40.2122 40.7609 40.1199V34.0588C40.7609 33.0088 41.0323 32.3466 41.3756 31.5081C41.8823 30.2713 42.5128 28.7321 42.5519 25.429C42.5519 25.4279 42.5518 25.4268 42.5518 25.4256C42.5518 25.4241 42.552 25.4227 42.552 25.4213V22.3743C42.552 22.0103 42.2569 21.7151 41.8928 21.7151C41.5287 21.7151 41.2336 22.0103 41.2336 22.3743V24.7621H37.7311V17.2993C37.7311 15.8781 36.5715 14.7218 35.146 14.7218C35.0844 14.7218 35.0236 14.7247 34.9631 14.729C35.0743 14.1444 35.2085 13.591 35.365 13.0729C36.0493 13.3569 36.7982 13.5114 37.5789 13.5114C38.2121 13.5114 38.8209 13.4067 39.3908 13.2166C40.4047 14.1146 41.2335 15.0009 41.2335 17.0876V19.3324C41.2335 19.6965 41.5286 19.9916 41.8927 19.9916C42.2568 19.9916 42.5519 19.6965 42.5519 19.3324V17.0876C42.5519 14.7575 41.6523 13.5389 40.6719 12.6022C42.2535 11.5847 43.3037 9.81281 43.3037 7.79968C43.3037 7.05568 43.1588 6.32461 42.8811 5.64504C43.026 5.58088 43.1579 5.50134 43.2744 5.40404C43.6238 5.11233 43.8161 4.68466 43.8161 4.19977C43.8162 2.4873 41.3426 0 37.4666 0C35.2911 0 33.4084 0.98666 32.3014 2.70694C31.0859 4.5958 31.0215 7.07757 32.1223 9.52128C32.4994 10.7157 33.2349 11.7134 34.1906 12.4124C33.9083 13.2851 33.6876 14.2497 33.5312 15.2898C32.9418 15.7627 32.5635 16.4875 32.5635 17.2992V29.9355C32.5635 30.9526 33.1568 31.8337 34.0161 32.2528C34.1452 32.9092 34.2293 33.6129 34.2371 34.6518V44.3408C34.2371 44.7049 34.5321 45 34.8963 45H43.5988C43.9525 45 44.2433 44.7207 44.2574 44.3671C44.3091 43.0731 43.9684 42.0352 43.245 41.2822ZM33.0844 8.38942C32.4249 6.56271 32.535 4.78011 33.4099 3.42035C34.2697 2.0845 35.7482 1.31836 37.4666 1.31836C40.7348 1.31836 42.4978 3.36349 42.4978 4.19968C42.4978 4.33494 42.4517 4.37344 42.4295 4.39198C42.3864 4.42811 42.2488 4.51195 41.9053 4.51195H36.3676C34.9907 4.51195 34.6276 5.58791 34.3358 6.45249C34.0838 7.19895 33.8433 7.91156 33.0844 8.38942ZM33.5737 9.63053C34.8971 8.91132 35.289 7.75063 35.585 6.87401C35.8911 5.96681 35.9935 5.83031 36.3676 5.83031H41.5182C41.8244 6.4372 41.9854 7.11097 41.9854 7.79959C41.9854 10.2221 40.0087 12.193 37.5789 12.193C36.7837 12.193 36.0317 11.9847 35.3808 11.6127C35.3427 11.5837 35.3007 11.559 35.2557 11.5385C34.5293 11.0905 33.9394 10.4335 33.5737 9.63053ZM33.8819 17.2992C33.8819 16.6049 34.449 16.04 35.1461 16.04C35.8446 16.04 36.4128 16.6049 36.4128 17.2992V20.4942H33.8819V17.2992ZM34.7736 31.1389C34.772 31.1384 34.7704 31.1379 34.7687 31.1375C34.2554 30.9772 33.8819 30.499 33.8819 29.9356V21.8127H36.4128V29.9355C36.4128 30.6299 35.8446 31.1948 35.1461 31.1948C35.0164 31.1948 34.8913 31.1751 34.7736 31.1389ZM37.7311 29.9355V26.0803H41.2163C41.1132 28.6686 40.6068 29.9069 40.1556 31.0083C39.789 31.9036 39.4426 32.7492 39.4426 34.0588V40.0765H35.5554V34.6468C35.5488 33.7598 35.4909 33.0942 35.3986 32.5006C36.7059 32.3737 37.7311 31.2718 37.7311 29.9355ZM35.5555 43.6816V41.3949H40.1019C40.4357 41.3949 41.5804 41.4526 42.2944 42.1957C42.647 42.5626 42.857 43.0608 42.9223 43.6816H35.5555Z" fill="black" style="fill:black;fill-opacity:1;"/>
<path id="Vector_3" d="M10.1596 40.1175V34.0588C10.1596 33.0088 10.4309 32.3466 10.7743 31.5081C11.2809 30.2713 11.9113 28.7321 11.9504 25.429C11.9504 25.4278 11.9503 25.4267 11.9504 25.4255C11.9504 25.424 11.9505 25.4226 11.9505 25.4212V22.1177C11.9505 21.7536 11.6555 21.4585 11.2913 21.4585C10.9272 21.4585 10.6322 21.7536 10.6322 22.1177V24.762H7.12718V17.2992C7.12718 15.878 5.9686 14.7217 4.5446 14.7217C4.4822 14.7217 4.4205 14.7247 4.35915 14.7291C4.4706 14.1438 4.60524 13.5904 4.76169 13.0717C5.4468 13.3564 6.19633 13.5113 6.9775 13.5113C7.61075 13.5113 8.21957 13.4067 8.78945 13.2165C9.80327 14.1146 10.6321 15.0008 10.6321 17.0875V19.0757C10.6321 19.4397 10.9271 19.7349 11.2913 19.7349C11.6554 19.7349 11.9504 19.4397 11.9504 19.0757V17.0875C11.9504 14.7574 11.051 13.5388 10.0705 12.6021C11.6521 11.5846 12.7023 9.81272 12.7023 7.79959C12.7023 7.05779 12.5571 6.32681 12.2789 5.64539C12.4239 5.58123 12.556 5.50169 12.6726 5.40431C13.0218 5.11277 13.2141 4.68519 13.2141 4.20047C13.2142 2.48774 10.7399 0 6.86272 0C4.68892 0 2.80727 0.986221 1.70011 2.7058C0.483877 4.59492 0.418574 7.07713 1.51853 9.52154C1.89672 10.7151 2.6321 11.7121 3.58747 12.4109C3.30525 13.2843 3.08377 14.2493 2.92732 15.2906C2.33793 15.7634 1.95974 16.4879 1.95974 17.2992V29.9355C1.95974 30.9531 2.55414 31.8345 3.41485 32.2534C3.54229 32.904 3.62597 33.6063 3.63572 34.6518V44.3408C3.63572 44.7049 3.93077 45 4.2949 45H12.9975C13.3512 45 13.642 44.7207 13.6561 44.3671C13.7078 43.0726 13.3669 42.034 12.6428 41.2806C11.8807 40.4874 10.8785 40.2099 10.1596 40.1175ZM2.48084 8.3896C1.82219 6.56244 1.93311 4.7794 2.80858 3.41947C3.66833 2.08415 5.14595 1.31836 6.86272 1.31836C10.1322 1.31836 11.8959 3.36393 11.8959 4.20038C11.8959 4.33529 11.85 4.3737 11.8279 4.39216C11.7848 4.42819 11.6473 4.51195 11.304 4.51195H5.7661C4.38965 4.51195 4.02631 5.58747 3.73434 6.4517C3.482 7.19859 3.24118 7.91147 2.48084 8.3896ZM2.97039 9.63044C4.29473 8.91114 4.68716 7.75028 4.98326 6.87357C5.28965 5.96681 5.39204 5.83022 5.76602 5.83022H10.916C11.2227 6.44001 11.384 7.11378 11.384 7.7995C11.384 10.222 9.40724 12.1929 6.9775 12.1929C5.22558 12.1929 3.68002 11.1837 2.97039 9.63044ZM3.27801 17.2992C3.27801 16.6049 3.84622 16.04 4.5446 16.04C5.24175 16.04 5.80882 16.6049 5.80882 17.2992V20.4942H3.27801V17.2992ZM4.17695 31.1403C4.17256 31.1389 4.16816 31.1376 4.16368 31.1364C3.65084 30.9752 3.27801 30.498 3.27801 29.9356V21.8127H5.80882V29.9355C5.80882 30.6299 5.24175 31.1948 4.5446 31.1948C4.41681 31.1948 4.29341 31.1755 4.17695 31.1403ZM7.12718 29.9355V26.0803H10.6149C10.5119 28.6687 10.0055 29.907 9.55437 31.0083C9.18769 31.9036 8.84131 32.7492 8.84131 34.0588V40.074H4.95408V34.6456C4.94573 33.7549 4.88808 33.0901 4.79685 32.5006C6.1029 32.3737 7.12718 31.2719 7.12718 29.9355ZM4.95408 43.6816V41.3924H9.50049C9.83395 41.3924 10.9776 41.4503 11.6922 42.194C12.0453 42.5615 12.2557 43.0602 12.3208 43.6816H4.95408Z" fill="black" style="fill:black;fill-opacity:1;"/>
</g>
</g>
</g>
<defs>
<clipPath id="clip0_24_2603">
<rect width="45" height="45" fill="white" style="fill:white;fill-opacity:1;"/>
</clipPath>
</defs>
</svg>
