<svg width="24" height="24" viewBox="0 0 24 24" fill="none" xmlns="http://www.w3.org/2000/svg">
<path fill-rule="evenodd" clip-rule="evenodd" d="M20.6143 5.649C20.714 5.73631 20.7954 5.84258 20.8536 5.96162C20.9119 6.08066 20.946 6.21011 20.9538 6.34242C20.9616 6.47474 20.943 6.60729 20.8992 6.73237C20.8553 6.85745 20.787 6.97255 20.6982 7.071L10.1842 18.74C10.0951 18.8388 9.98706 18.9188 9.86654 18.9754C9.74603 19.0319 9.61545 19.0638 9.48244 19.0692C9.34944 19.0746 9.2167 19.0534 9.092 19.0068C8.9673 18.9603 8.85315 18.8893 8.75625 18.798L2.67225 13.071C2.48973 12.8967 2.37922 12.6603 2.36255 12.4085C2.34589 12.1567 2.42429 11.9078 2.58225 11.711C2.66752 11.6043 2.77357 11.516 2.89399 11.4516C3.0144 11.3871 3.14666 11.3478 3.28273 11.336C3.41881 11.3243 3.55585 11.3402 3.68556 11.383C3.81526 11.4258 3.93491 11.4945 4.03725 11.585L8.75725 15.831C8.95433 16.0084 9.21379 16.1002 9.47857 16.0864C9.74336 16.0725 9.99179 15.954 10.1692 15.757L19.2122 5.73C19.3883 5.53484 19.6341 5.41682 19.8964 5.40147C20.1588 5.38613 20.4167 5.47469 20.6143 5.648V5.649Z" fill="url(#paint0_linear_22_1898)" style=""/>
<defs>
<linearGradient id="paint0_linear_22_1898" x1="11.6579" y1="5.39977" x2="21.9864" y2="6.3329" gradientUnits="userSpaceOnUse">
<stop stop-color="#1FB462" style="stop-color:#1FB462;stop-color:color(display-p3 0.1216 0.7059 0.3843);stop-opacity:1;"/>
<stop offset="1" stop-color="#36CD32" style="stop-color:#36CD32;stop-color:color(display-p3 0.2098 0.8042 0.1977);stop-opacity:1;"/>
</linearGradient>
</defs>
</svg>
