<svg width="16" height="16" viewBox="0 0 16 16" fill="none" xmlns="http://www.w3.org/2000/svg">
<path d="M12.0003 13.3333H4.00033C3.26699 13.3333 2.66699 12.7333 2.66699 12V4C2.66699 3.26667 3.26699 2.66667 4.00033 2.66667H6.66699C7.06699 2.66667 7.33366 2.93333 7.33366 3.33333C7.33366 3.73333 7.06699 4 6.66699 4H4.00033V12H12.0003V9.33333C12.0003 8.93333 12.267 8.66667 12.667 8.66667C13.067 8.66667 13.3337 8.93333 13.3337 9.33333V12C13.3337 12.7333 12.7337 13.3333 12.0003 13.3333ZM13.3337 6.66667C12.9337 6.66667 12.667 6.4 12.667 6V3.33333H10.0003C9.60033 3.33333 9.33366 3.06667 9.33366 2.66667C9.33366 2.26667 9.60033 2 10.0003 2H13.3337C13.7337 2 14.0003 2.26667 14.0003 2.66667V6C14.0003 6.4 13.7337 6.66667 13.3337 6.66667Z" fill="black" style="fill:black;fill-opacity:1;"/>
<path d="M8.66667 8C8.46667 8 8.33333 7.93333 8.2 7.8C7.93333 7.53333 7.93333 7.13333 8.2 6.86667L12.8667 2.2C13.1333 1.93333 13.5333 1.93333 13.8 2.2C14.0667 2.46667 14.0667 2.86667 13.8 3.13333L9.13333 7.8C9 7.93333 8.86667 8 8.66667 8Z" fill="black" style="fill:black;fill-opacity:1;"/>
</svg>
