<svg width="182" height="112" viewBox="0 0 182 112" fill="none" xmlns="http://www.w3.org/2000/svg">
<g id="Group">
<path id="Vector" fill-rule="evenodd" clip-rule="evenodd" d="M143.232 19.6698C149.794 10.6883 162.193 1.0321 179.065 -7.02173C183.46 -9.1132 181.483 -15.59 176.639 -14.9912C141.168 -10.6059 118.174 4.56567 105.619 27.1248C101.076 35.3804 97.9771 44.319 96.4491 53.5718C95.4215 59.5847 95.1539 64.0966 95.1539 69.3084C95.1539 80.4917 99.7025 91.2169 107.799 99.1247C115.896 107.032 126.877 111.475 138.327 111.475C149.777 111.475 160.759 107.032 168.855 99.1247C176.952 91.2169 181.5 80.4917 181.5 69.3084C181.5 46.0239 161.856 27.1248 139.294 27.1248C140.486 23.937 140.762 23.0347 143.232 19.6698ZM48.2505 19.6698C54.8128 10.6883 67.2122 1.0321 84.0843 -7.02173C88.4793 -9.1132 86.502 -15.59 81.6579 -14.9912C46.1868 -10.6059 23.1928 4.56567 10.638 27.1248C6.09531 35.3804 2.99603 44.319 1.46805 53.5718C0.440526 59.5847 0.172852 64.0966 0.172852 69.3084C0.172851 74.8458 1.28956 80.329 3.45922 85.4449C5.62887 90.5608 8.80899 95.2092 12.818 99.1247C16.827 103.04 21.5864 106.146 26.8244 108.265C32.0624 110.384 37.6765 111.475 43.346 111.475C49.0156 111.475 54.6297 110.384 59.8677 108.265C65.1057 106.146 69.8651 103.04 73.8741 99.1247C77.8831 95.2092 81.0632 90.5608 83.2329 85.4449C85.4025 80.329 86.5192 74.8458 86.5192 69.3084C86.5192 46.0239 66.8754 27.1248 44.3131 27.1248C45.5047 23.937 45.781 23.0347 48.2505 19.6698Z" fill="#F6F5F4" style="fill:#F6F5F4;fill:color(display-p3 0.9647 0.9608 0.9569);fill-opacity:1;"/>
</g>
</svg>
