<svg width="24" height="25" viewBox="0 0 24 25" fill="none" xmlns="http://www.w3.org/2000/svg">
<g clip-path="url(#clip0_2005_182)">
<path d="M12 0.5C5.37831 0.5 0 5.87831 0 12.5C0 19.1217 5.37831 24.5 12 24.5C18.6217 24.5 24 19.1217 24 12.5C24 5.87831 18.6217 0.5 12 0.5ZM12 23.459C5.95663 23.459 1.04096 18.5434 1.04096 12.5C1.04096 6.45663 5.95663 1.54096 12 1.54096C18.0434 1.54096 22.959 6.45663 22.959 12.5C22.959 18.5434 18.0434 23.459 12 23.459Z" fill="#84766F" style="fill:#84766F;fill:color(display-p3 0.5187 0.4627 0.4347);fill-opacity:1;"/>
<path d="M18.2454 9.8975H14.6021V6.25412C14.6021 5.96497 14.3707 5.73364 14.0816 5.73364H9.91774C9.62858 5.73364 9.39725 5.96497 9.39725 6.25412V9.8975H5.75388C5.46472 9.8975 5.2334 10.1288 5.2334 10.418V14.5818C5.2334 14.871 5.46472 15.1023 5.75388 15.1023H9.39725V18.7457C9.39725 19.0348 9.62858 19.2662 9.91774 19.2662H14.0816C14.3707 19.2662 14.6021 19.0348 14.6021 18.7457V15.1023H18.2454C18.5346 15.1023 18.7659 14.871 18.7659 14.5818V10.418C18.737 10.1288 18.5057 9.8975 18.2454 9.8975ZM17.7539 14.0614H14.0816C13.7924 14.0614 13.5611 14.2927 13.5611 14.5818V18.2252H10.4382V14.5818C10.4382 14.2927 10.2069 14.0614 9.91774 14.0614H6.27436V10.9385H9.91774C10.2069 10.9385 10.4382 10.7071 10.4382 10.418V6.77461H13.59V10.418C13.59 10.7071 13.8213 10.9385 14.1105 10.9385H17.7539V14.0614Z" fill="#84766F" style="fill:#84766F;fill:color(display-p3 0.5187 0.4627 0.4347);fill-opacity:1;"/>
</g>
<defs>
<clipPath id="clip0_2005_182">
<rect width="24" height="24" fill="white" style="fill:white;fill-opacity:1;" transform="translate(0 0.5)"/>
</clipPath>
</defs>
</svg>
