<svg width="25" height="25" viewBox="0 0 25 25" fill="none" xmlns="http://www.w3.org/2000/svg">
<g clip-path="url(#clip0_2005_197)">
<path d="M12.3912 13.4788L16.8912 16.8538C16.97 16.9128 17.0597 16.9558 17.1551 16.9803C17.2505 17.0047 17.3498 17.0101 17.4473 16.9962C17.5448 16.9823 17.6386 16.9493 17.7234 16.8991C17.8081 16.8489 17.8822 16.7825 17.9412 16.7037C18.0003 16.625 18.0433 16.5353 18.0678 16.4399C18.0922 16.3445 18.0976 16.2452 18.0837 16.1477C18.0698 16.0502 18.0368 15.9564 17.9866 15.8716C17.9364 15.7869 17.87 15.7128 17.7913 15.6537L13.625 12.5V6.125C13.625 5.92609 13.546 5.73532 13.4053 5.59467C13.2647 5.45402 13.0739 5.375 12.875 5.375C12.6761 5.375 12.4853 5.45402 12.3447 5.59467C12.204 5.73532 12.125 5.92609 12.125 6.125V12.875C12.125 13.124 12.2292 13.3483 12.3912 13.4788Z" fill="#84766F" style="fill:#84766F;fill:color(display-p3 0.5187 0.4627 0.4347);fill-opacity:1;"/>
<path d="M13.25 1.25C7.76034 1.25 3.07246 5.21225 2.15746 10.625L1.87246 10.2013C1.76107 10.0362 1.58866 9.92207 1.39315 9.88409C1.19765 9.84612 0.995061 9.88736 0.829963 9.99875C0.664866 10.1101 0.550781 10.2826 0.512805 10.4781C0.474828 10.6736 0.516073 10.8762 0.627463 11.0413L2.12746 13.2913C2.18838 13.3839 2.26908 13.4619 2.36375 13.5196C2.45842 13.5773 2.56471 13.6133 2.67496 13.625H2.74996C2.84831 13.6247 2.94563 13.605 3.03636 13.567C3.12708 13.529 3.20944 13.4736 3.27871 13.4037L5.15371 11.5287C5.2876 11.3866 5.36085 11.198 5.35795 11.0028C5.35504 10.8075 5.2762 10.6211 5.13814 10.4831C5.00008 10.345 4.81368 10.2662 4.61846 10.2633C4.42324 10.2604 4.23457 10.3336 4.09246 10.4675L3.62746 10.9362C4.49109 5.621 9.49996 2.01275 14.8148 2.87637C20.1297 3.74 23.7387 8.7485 22.8751 14.0637C22.1082 18.7835 18.0316 22.2507 13.25 22.25C11.764 22.2769 10.2935 21.9446 8.96361 21.2813C7.63367 20.6179 6.4836 19.6432 5.61121 18.44C5.55409 18.3597 5.48171 18.2915 5.39822 18.2392C5.31472 18.1869 5.22174 18.1516 5.12459 18.1352C5.02744 18.1188 4.92801 18.1218 4.83199 18.1438C4.73597 18.1659 4.64523 18.2066 4.56496 18.2638C4.48469 18.3209 4.41646 18.3933 4.36416 18.4767C4.31186 18.5602 4.27652 18.6532 4.26015 18.7504C4.24379 18.8475 4.24672 18.947 4.26877 19.043C4.29083 19.139 4.33159 19.2297 4.38871 19.31C5.39898 20.709 6.73223 21.8433 8.27504 22.6163C9.81785 23.3893 11.5246 23.7783 13.25 23.75C19.4633 23.75 24.5 18.7134 24.5 12.5C24.5 6.28662 19.4633 1.25 13.25 1.25Z" fill="#84766F" style="fill:#84766F;fill:color(display-p3 0.5187 0.4627 0.4347);fill-opacity:1;"/>
</g>
<defs>
<clipPath id="clip0_2005_197">
<rect width="24" height="24" fill="white" style="fill:white;fill-opacity:1;" transform="translate(0.5 0.5)"/>
</clipPath>
</defs>
</svg>
