<svg width="40" height="32" viewBox="0 0 40 32" fill="none" xmlns="http://www.w3.org/2000/svg">
<g id="Group">
<path id="Vector" d="M20 0.5C13.0826 0.5 0 1.47531 0 5.16672V10.5C0.000700229 10.733 0.0626791 10.9618 0.179717 11.1633C0.296754 11.3648 0.464734 11.532 0.666797 11.648V12.5002C0.666797 13.6045 1.56219 14.4999 2.66664 14.4999H3.45609C3.59341 14.8885 3.84747 15.2252 4.1835 15.4639C4.51953 15.7026 4.92111 15.8316 5.33328 15.8333H7.33336C7.67789 15.8314 8.01602 15.7395 8.31391 15.5666C8.49332 15.8518 8.74203 16.087 9.03685 16.2502C9.33167 16.4134 9.66302 16.4994 10 16.5H12.6666C13.0112 16.4979 13.3492 16.406 13.6474 16.2333C13.8268 16.5185 14.0754 16.7537 14.3702 16.9169C14.665 17.0801 14.9963 17.1659 15.3333 17.1665H18.6667C19.1603 17.1649 19.6356 16.9795 20 16.6466C20.3644 16.9795 20.8397 17.1649 21.3333 17.1666H24.6667C25.0037 17.166 25.335 17.0802 25.6298 16.917C25.9246 16.7538 26.1732 16.5186 26.3526 16.2334C26.6507 16.406 26.9888 16.498 27.3334 16.5001H30C30.337 16.4994 30.6684 16.4135 30.9632 16.2502C31.258 16.087 31.5067 15.8518 31.6861 15.5665C31.984 15.7395 32.322 15.8315 32.6666 15.8333H34.6667C35.0789 15.8316 35.4805 15.7026 35.8165 15.4639C36.1525 15.2252 36.4066 14.8885 36.5439 14.4999H37.3334C38.4378 14.4999 39.3332 13.6046 39.3332 12.5002V11.648C39.5353 11.532 39.7032 11.3648 39.8203 11.1633C39.9373 10.9618 39.9993 10.733 40 10.5V5.16672C40 1.47531 26.9174 0.5 20 0.5ZM20 1.83328C32.078 1.83328 38.6667 4.03328 38.6667 5.16672V9.11789C38.3428 8.8242 37.9192 8.66496 37.482 8.67258C37.0529 8.67378 36.6358 8.81417 36.2934 9.07266C36.0578 8.65697 35.7122 8.31423 35.2946 8.0821C34.877 7.84996 34.4035 7.73741 33.9261 7.7568C33.4752 7.75771 33.0295 7.85276 32.6174 8.03585C32.2054 8.21894 31.8361 8.48605 31.5332 8.82008C31.2656 8.3837 30.8854 8.0274 30.4327 7.78855C29.9799 7.5497 29.4712 7.4371 28.9599 7.46258C28.4371 7.46255 27.9204 7.57577 27.4455 7.79445C26.9706 8.01313 26.5487 8.33209 26.2088 8.72937C25.9201 8.2292 25.4988 7.81854 24.9914 7.54276C24.484 7.26697 23.9102 7.13678 23.3334 7.16656C22.6729 7.1671 22.0228 7.33116 21.4412 7.64412C20.8595 7.95707 20.3644 8.40918 20 8.96008C19.6356 8.40918 19.1405 7.95707 18.5588 7.64412C17.9772 7.33116 17.3271 7.1671 16.6666 7.16656C16.0891 7.13662 15.5147 7.26702 15.0068 7.54334C14.4988 7.81966 14.0773 8.23112 13.7888 8.73219C13.4489 8.33479 13.0269 8.01576 12.5519 7.79706C12.0769 7.57836 11.5602 7.46518 11.0373 7.46531C10.5267 7.43985 10.0187 7.55217 9.56644 7.79051C9.1142 8.02885 8.73439 8.38443 8.4668 8.82C8.16391 8.48672 7.79487 8.22025 7.38322 8.03761C6.97157 7.85496 6.52636 7.76015 6.07602 7.75922C5.59823 7.73954 5.12428 7.85199 4.70626 8.08421C4.28825 8.31643 3.94236 8.65942 3.70664 9.07547C3.36437 8.81704 2.94747 8.67665 2.51859 8.67539C2.08161 8.66689 1.65779 8.82511 1.33328 9.11789V5.16672C1.33328 4.03336 7.92203 1.83328 20 1.83328ZM2.00016 12.5002V10.7219C2.00016 10.6025 2.02547 10.0059 2.51859 10.0059C3.02797 10.0892 3.38469 10.5544 3.33344 11.068V13.1666H2.66664C2.48988 13.1666 2.32037 13.0964 2.19539 12.9714C2.0704 12.8464 2.00018 12.6769 2.00016 12.5002ZM7.33336 14.4999H5.33328C5.15651 14.4999 4.98698 14.4297 4.86198 14.3047C4.73698 14.1797 4.66674 14.0102 4.66672 13.8334V10.5C4.65452 10.312 4.68257 10.1237 4.74898 9.94741C4.8154 9.77117 4.91867 9.61112 5.05188 9.47797C5.18505 9.34477 5.34509 9.2415 5.52133 9.17503C5.69756 9.10856 5.88594 9.08043 6.07391 9.0925C7.13719 9.09375 7.99891 9.95555 7.99984 11.0188V13.8334C7.99984 14.2014 7.70133 14.4999 7.33336 14.4999ZM12.6666 15.1667H10C9.82316 15.1667 9.65357 15.0964 9.52853 14.9714C9.40348 14.8464 9.33322 14.6768 9.3332 14.4999V10.5C9.32233 10.2733 9.35895 10.0469 9.44072 9.83521C9.52249 9.62353 9.64761 9.43127 9.80805 9.27078C9.96853 9.11033 10.1608 8.9852 10.3725 8.90341C10.5841 8.82163 10.8106 8.78499 11.0373 8.79586C12.305 8.79742 13.3322 9.82492 13.3334 11.0927V14.4999C13.3334 14.5875 13.3162 14.6742 13.2827 14.7551C13.2492 14.836 13.2001 14.9095 13.1382 14.9714C13.0762 15.0334 13.0027 15.0825 12.9218 15.116C12.8409 15.1495 12.7542 15.1667 12.6666 15.1667ZM18.6666 15.8333H15.3333C15.1565 15.8333 14.987 15.7631 14.862 15.638C14.7369 15.513 14.6667 15.3435 14.6667 15.1667V10.5C14.6539 10.234 14.6968 9.96819 14.7928 9.71974C14.8888 9.47128 15.0356 9.24564 15.2239 9.05729C15.4123 8.86894 15.6379 8.72205 15.8863 8.62605C16.1348 8.53005 16.4005 8.48706 16.6666 8.49984C18.1394 8.49984 19.3332 9.69406 19.3332 11.1668V15.1668C19.3332 15.5348 19.0348 15.8332 18.6667 15.8332L18.6666 15.8333ZM25.3333 15.1667C25.3333 15.5348 25.0348 15.8333 24.6667 15.8333H21.3333C21.1565 15.8332 20.987 15.763 20.8621 15.638C20.7371 15.513 20.6669 15.3435 20.6669 15.1667V11.1668C20.6669 9.69406 21.8606 8.49984 23.3334 8.49984C23.5995 8.48706 23.8652 8.53005 24.1137 8.62605C24.3621 8.72205 24.5877 8.86894 24.7761 9.05729C24.9644 9.24564 25.1112 9.47128 25.2072 9.71974C25.3032 9.96819 25.3461 10.234 25.3333 10.5V15.1667ZM30.6669 14.4999C30.6669 14.6768 30.5966 14.8464 30.4715 14.9714C30.3465 15.0965 30.1769 15.1667 30 15.1667H27.3334C27.2458 15.1667 27.1591 15.1495 27.0782 15.116C26.9973 15.0825 26.9238 15.0334 26.8618 14.9714C26.7999 14.9095 26.7508 14.836 26.7173 14.7551C26.6838 14.6742 26.6666 14.5875 26.6666 14.4999V11.0927C26.6678 9.82492 27.695 8.79742 28.9627 8.79586C29.1893 8.78498 29.4158 8.82161 29.6275 8.9034C29.8392 8.98518 30.0315 9.11032 30.192 9.27078C30.3524 9.43127 30.4775 9.62353 30.5593 9.83521C30.6411 10.0469 30.6777 10.2733 30.6668 10.5L30.6669 14.4999ZM35.3333 13.8334C35.3333 14.2014 35.0348 14.4999 34.6667 14.4999H32.6666C32.4899 14.4999 32.3204 14.4297 32.1954 14.3047C32.0704 14.1797 32.0002 14.0102 32.0002 13.8334V11.0188C32.001 9.95555 32.8629 9.09375 33.9261 9.0925C34.1141 9.08043 34.3024 9.10856 34.4787 9.17503C34.6549 9.2415 34.8149 9.34477 34.9481 9.47797C35.0813 9.61112 35.1846 9.77117 35.251 9.94741C35.3174 10.1237 35.3455 10.312 35.3333 10.5V13.8334ZM37.9998 12.5002C37.9998 12.8681 37.7014 13.1666 37.3334 13.1666H36.6666V11.068C36.6153 10.5543 36.9723 10.0889 37.482 10.0059C37.9755 10.0059 37.9998 10.6025 37.9998 10.7219V12.5002ZM0.666797 22.1553V27.3048C0.666797 30.8866 13.3133 31.8333 20 31.8333C26.6867 31.8333 39.3332 30.8866 39.3332 27.3048V22.1553C39.3325 21.9191 39.2677 21.6875 39.1457 21.4853C39.0238 21.283 38.8493 21.1175 38.6408 21.0066C38.6569 20.8962 38.6656 20.7849 38.6667 20.6734V19.514C38.6655 18.4355 37.7912 17.5615 36.7127 17.5605H36.6208C36.3608 17.5607 36.1035 17.6129 35.864 17.714C35.6245 17.8151 35.4076 17.9631 35.2262 18.1492C34.7407 17.6671 34.0842 17.3966 33.4 17.3966H32.6C32.2136 17.3974 31.8322 17.4845 31.4838 17.6515C31.1353 17.8185 30.8285 18.0612 30.5859 18.362C30.2213 18.1686 29.8153 18.0662 29.4027 18.0635H27.9333C27.4854 18.0646 27.0455 18.1819 26.6565 18.4038C26.2676 18.6258 25.9428 18.9449 25.7141 19.3299C25.2534 18.9446 24.6725 18.7323 24.0719 18.7299H21.9332C21.5672 18.7306 21.2056 18.8092 20.8722 18.9603C20.5389 19.1115 20.2416 19.3319 20 19.6068C19.7584 19.3319 19.461 19.1116 19.1277 18.9604C18.7944 18.8093 18.4327 18.7307 18.0667 18.7301H15.9332C15.3327 18.7324 14.7519 18.9447 14.2914 19.3301C14.0626 18.9451 13.7379 18.626 13.3489 18.404C12.9599 18.182 12.52 18.0647 12.0721 18.0636H10.6C10.1873 18.0662 9.78137 18.1686 9.4168 18.362C9.17381 18.061 8.8666 17.8181 8.51764 17.6511C8.16868 17.484 7.78679 17.3971 7.39992 17.3967H6.6C5.91577 17.3965 5.25925 17.6671 4.77383 18.1493C4.59232 17.9632 4.37544 17.8153 4.13595 17.7142C3.89646 17.6131 3.63917 17.5609 3.37922 17.5606H3.28734C2.20883 17.5619 1.33484 18.4356 1.33328 19.5141V20.6712C1.33453 20.783 1.34305 20.8944 1.35922 21.0048C1.15045 21.116 0.975771 21.2817 0.853822 21.4843C0.731873 21.6869 0.667232 21.9189 0.666797 22.1554V22.1553ZM36.0001 19.5139C36.0007 19.1716 36.2784 18.8945 36.6208 18.8938H36.7127C36.8771 18.8941 37.0347 18.9595 37.1511 19.0757C37.2674 19.192 37.3329 19.3495 37.3334 19.514V20.6712C37.3334 20.7915 37.3087 21.388 36.8152 21.388C36.3055 21.3051 35.9485 20.8396 36.0001 20.326V19.5139ZM32.6001 18.73H33.4C34.0995 18.73 34.6667 19.297 34.6667 19.9968V22.5666C34.6752 22.7503 34.644 22.9337 34.5752 23.1043C34.5065 23.2749 34.4018 23.4286 34.2683 23.5551C34.1349 23.6816 33.9757 23.7779 33.8017 23.8374C33.6277 23.8969 33.4429 23.9183 33.2599 23.9H33.1668C32.739 23.9016 32.3249 23.7491 32.0002 23.4705V20.6605C31.9989 20.1633 31.8536 19.6772 31.582 19.2607C31.6973 19.0977 31.8498 18.9645 32.0268 18.8722C32.2039 18.7799 32.4004 18.7311 32.6001 18.73ZM26.6666 20.6633C26.6666 19.9638 27.2339 19.3968 27.9334 19.3968H29.4C30.0995 19.3968 30.6668 19.9638 30.6668 20.6632V23.882C30.6733 24.1036 30.633 24.3242 30.5485 24.5292C30.464 24.7342 30.3372 24.9191 30.1764 25.0718C30.0156 25.2245 29.8243 25.3416 29.6152 25.4153C29.4061 25.4891 29.1838 25.518 28.9627 25.5H28.8608C27.6508 25.4966 26.6709 24.517 26.6666 23.3073V20.6605V20.6633ZM21.9333 20.0633H24.0668C24.7662 20.0633 25.3332 20.6303 25.3332 21.3301V25.1927C25.3332 25.5381 25.3332 26.4595 23.3334 26.4595H23.2187C22.883 26.459 22.5508 26.3925 22.2408 26.2636C21.9309 26.1348 21.6494 25.9461 21.4124 25.7084C21.1753 25.4708 20.9875 25.1888 20.8595 24.8785C20.7316 24.5682 20.6661 24.2357 20.6668 23.9V21.3273C20.668 20.6287 21.2348 20.0633 21.9333 20.0633ZM15.9333 20.0633H18.0667C18.7662 20.0633 19.3331 20.6303 19.3331 21.3301V23.9C19.3313 25.3086 18.19 26.45 16.7813 26.4512H16.6666C14.6667 26.4512 14.6667 25.5327 14.6667 25.1848V21.3273C14.6683 20.6287 15.2348 20.0633 15.9333 20.0633ZM12.0721 19.3968C12.7716 19.3968 13.3386 19.9638 13.3386 20.6632V23.3101C13.3331 24.521 12.3502 25.4997 11.1392 25.5H11.0373C10.816 25.5181 10.5934 25.4892 10.3841 25.4152C10.1748 25.3413 9.98348 25.224 9.82266 25.0709C9.66183 24.9179 9.5351 24.7327 9.45076 24.5273C9.36642 24.322 9.32636 24.1011 9.3332 23.8792V20.6605C9.3332 19.9611 9.90055 19.3941 10.6 19.3941L12.0721 19.3968ZM6.60523 18.73H7.40539C7.6048 18.7309 7.80113 18.7793 7.97815 18.8711C8.15518 18.9629 8.30781 19.0955 8.42344 19.258C8.15182 19.6745 8.00662 20.1608 8.00539 20.658V23.4672C7.68131 23.7473 7.26706 23.9012 6.83867 23.9005H6.74531C6.56185 23.9197 6.37641 23.899 6.2017 23.8398C6.02698 23.7807 5.8671 23.6845 5.73301 23.5578C5.59892 23.4311 5.49379 23.277 5.42479 23.1059C5.3558 22.9349 5.32459 22.7509 5.33328 22.5666V19.9934C5.33508 19.2952 5.9018 18.73 6.6 18.73H6.60523ZM2.66664 19.514C2.66685 19.3495 2.73233 19.1918 2.8487 19.0755C2.96508 18.9592 3.12284 18.8939 3.28734 18.8938H3.37922C3.54374 18.8938 3.70154 18.9591 3.81793 19.0754C3.93432 19.1917 3.99978 19.3495 3.99992 19.514V20.326C4.05148 20.8397 3.69477 21.3048 3.18539 21.388C2.69195 21.388 2.66664 20.788 2.66664 20.6712V19.514ZM3.18539 22.7214C3.4668 22.7205 3.74467 22.6586 3.99992 22.5402V22.5667C3.99261 22.9252 4.05906 23.2813 4.19514 23.613C4.33122 23.9448 4.53403 24.245 4.79098 24.495C5.04793 24.7451 5.35354 24.9397 5.68883 25.0667C6.02412 25.1937 6.38194 25.2504 6.74008 25.2334H6.8332C7.29874 25.2312 7.75802 25.126 8.17813 24.9254C8.59344 26.132 9.76351 26.9129 11.0373 26.8333H11.1392C11.9878 26.83 12.8062 26.5184 13.4421 25.9566C13.6841 26.7906 14.4421 27.7861 16.6666 27.7861H16.7813C17.4168 27.7861 18.0425 27.6301 18.6037 27.332C19.1649 27.0338 19.6443 26.6025 20 26.0759C20.3555 26.6028 20.8349 27.0343 21.3961 27.3327C21.9573 27.6311 22.5832 27.7872 23.2188 27.7873H23.3334C25.5606 27.7873 26.3159 26.7921 26.5579 25.958C27.1941 26.5193 28.0124 26.8303 28.8608 26.8333H28.9627C30.2362 26.9139 31.4063 26.1335 31.8219 24.9272C32.2419 25.128 32.7012 25.2333 33.1668 25.2354H33.2599C33.9841 25.2699 34.6896 25.0026 35.2091 24.4969C35.466 24.2468 35.6688 23.9467 35.8048 23.615C35.9409 23.2833 36.0074 22.9272 36.0001 22.5688V22.538C36.2553 22.6571 36.5335 22.7191 36.8152 22.7198C37.2521 22.7281 37.6758 22.5694 37.9998 22.2761V27.3048C37.9998 28.3894 31.6467 30.5 20 30.5C8.35328 30.5 2.00016 28.3894 2.00016 27.3048L1.97727 22.2527C2.30305 22.5611 2.73684 22.7294 3.18539 22.7214Z" fill="black" style="fill:black;fill-opacity:1;"/>
</g>
</svg>
