<svg width="26" height="36" viewBox="0 0 26 36" fill="none" xmlns="http://www.w3.org/2000/svg">
<g id="Group">
<path id="Vector" d="M13.1061 20.5027C13.3897 20.5027 13.6195 20.2728 13.6195 19.9893C13.6195 19.7058 13.3897 19.476 13.1061 19.476C12.8226 19.476 12.5928 19.7058 12.5928 19.9893C12.5928 20.2728 12.8226 20.5027 13.1061 20.5027Z" fill="black" style="fill:black;fill-opacity:1;"/>
<path id="Vector_2" d="M13.1061 22.5989C13.3897 22.5989 13.6195 22.3691 13.6195 22.0856C13.6195 21.802 13.3897 21.5722 13.1061 21.5722C12.8226 21.5722 12.5928 21.802 12.5928 22.0856C12.5928 22.3691 12.8226 22.5989 13.1061 22.5989Z" fill="black" style="fill:black;fill-opacity:1;"/>
<path id="Vector_3" d="M16.8285 16.738L20.251 13.615C22.2617 11.8182 23.2457 9.37967 23.2884 6.12833V3.43315H24.9569C25.2563 3.43315 25.4702 3.17646 25.4702 2.877V0.566836C25.4702 0.26737 25.2136 0.0534668 24.9141 0.0534668H1.21356C0.914099 0.0534668 0.700195 0.310151 0.700195 0.566836V2.877C0.700195 3.17646 0.95688 3.39037 1.21356 3.39037H2.88201V6.12833C2.92479 9.33689 3.90875 11.8182 5.91945 13.615L9.34191 16.738C10.0692 17.3797 10.3686 18.6203 9.29912 19.6043L5.91945 22.6845C3.90875 24.4813 2.92479 26.9198 2.88201 30.1711V32.5241H1.21356C0.914099 32.5241 0.700195 32.7807 0.700195 33.0374V35.3476C0.700195 35.6471 0.95688 35.861 1.21356 35.861H24.9997C25.2991 35.861 25.5558 35.6471 25.5558 35.3476V33.0802C25.5558 32.7807 25.2991 32.5668 24.9997 32.5668H23.3312V30.1711C23.2884 26.9626 22.3045 24.4813 20.2938 22.6845L16.9141 19.6043C16.4863 19.1765 16.144 18.7487 16.1013 18.1497C16.1013 17.5936 16.4007 17.0802 16.8285 16.738ZM1.72693 1.0802H24.4435V2.32085H1.72693V1.0802ZM24.4435 34.8342H1.72693L1.76971 33.5936H24.4435V34.8342ZM14.989 18.1497C14.989 19.0481 15.4168 19.7326 16.144 20.3743L19.5237 23.4545C21.3205 25.0802 22.1761 27.2192 22.2189 30.1711V32.5241H3.95153V30.1283C3.99431 27.1765 4.84993 25.0374 6.64672 23.4118L10.0264 20.3315C11.267 19.1337 11.6948 17.4225 10.0692 15.8823L6.64672 12.7593C4.84993 11.1337 3.99431 8.99464 3.95153 6.04277V3.34758H22.2189V6.12833C22.1761 9.0802 21.3205 11.2192 19.5237 12.8449C19.1387 13.1872 16.1013 16.0107 16.1013 16.0107C15.374 16.6096 15.0317 17.2941 14.989 18.1497Z" fill="black" style="fill:black;fill-opacity:1;"/>
<path id="Vector_4" d="M20.1224 10.4064C20.2507 10.1925 20.2507 9.9358 20.0796 9.76468C19.9085 9.59355 19.6518 9.55077 19.4379 9.67912C17.3416 10.7486 16.5288 11.1764 13.2775 10.1069C11.1812 9.42243 8.91382 9.59355 6.90313 10.5347C6.56088 10.7059 6.5181 11.1337 6.732 11.3903C6.94591 11.6042 11.609 16.0534 11.6518 16.0962C11.994 16.4813 12.2079 16.9946 12.2507 17.508C12.2935 17.893 12.6357 18.2353 13.1491 18.2353C13.1491 18.2353 13.7053 18.278 13.962 17.7219C14.1331 17.3369 14.3898 16.3529 14.9459 15.7968C15.0315 15.754 18.4111 12.5026 18.839 12.0748C19.3523 11.5615 19.7801 11.0053 20.1224 10.4064ZM14.1759 14.9411C13.6625 15.369 13.3202 15.9251 13.1063 16.5668C12.978 16.0962 12.7213 15.6256 12.3363 15.2834C12.1652 15.1123 9.29885 12.3743 8.05821 11.1764C9.6411 10.6203 11.3523 10.5775 12.9352 11.0909C15.2454 11.8182 16.5288 11.9037 17.7694 11.5187C17.0849 12.1604 14.1759 14.9411 14.1759 14.9411ZM5.74805 30.8556C5.74805 31.1551 6.00473 31.369 6.26142 31.369H19.9085C20.2079 31.369 20.4218 31.1123 20.4218 30.8128C20.3363 26.877 17.1705 23.7112 13.2347 23.6256C9.21329 23.5401 5.83361 26.7486 5.74805 30.8556ZM19.3523 30.2994H6.81757C7.07425 27.262 9.51275 24.8235 12.5502 24.5668C16.0154 24.2674 19.0529 26.8342 19.3523 30.2994Z" fill="black" style="fill:black;fill-opacity:1;"/>
</g>
</svg>
