<svg width="38" height="37" viewBox="0 0 38 37" fill="none" xmlns="http://www.w3.org/2000/svg">
<g id="Group">
<g id="Outline">
<path id="Vector" d="M10.3573 4.78564C8.69663 4.80124 7.09059 5.38111 5.80296 6.43002C5.73567 6.48023 5.67919 6.54349 5.63688 6.61602C5.59458 6.68854 5.56733 6.76885 5.55674 6.85214C5.54616 6.93543 5.55247 7.02 5.57529 7.1008C5.59811 7.1816 5.63698 7.25697 5.68957 7.32242C5.74216 7.38787 5.8074 7.44205 5.8814 7.48172C5.95539 7.5214 6.03662 7.54577 6.12024 7.55336C6.20385 7.56095 6.28814 7.55162 6.36807 7.52592C6.448 7.50022 6.52194 7.45867 6.58546 7.40377C7.65134 6.5334 8.98132 6.051 10.3573 6.03564C10.5231 6.03564 10.6821 5.9698 10.7993 5.85259C10.9165 5.73538 10.9823 5.57641 10.9823 5.41064C10.9823 5.24488 10.9165 5.08591 10.7993 4.9687C10.6821 4.85149 10.5231 4.78564 10.3573 4.78564Z" fill="black" style="fill:black;fill-opacity:1;"/>
<path id="Vector_2" d="M37.0037 16.8513C37.604 15.32 37.849 13.6725 37.7205 12.0329C37.592 10.3932 37.0933 8.80406 36.2619 7.385L36.8687 7.05313C37.1356 6.9074 37.3582 6.69253 37.5133 6.43107C37.6684 6.16961 37.7503 5.8712 37.7503 5.56719C37.7503 5.26318 37.6684 4.96478 37.5133 4.70331C37.3582 4.44185 37.1356 4.22698 36.8687 4.08125L36.1056 3.66375C35.4924 3.32878 34.9885 2.82459 34.6537 2.21125L34.2362 1.44875C34.0903 1.18213 33.8753 0.959682 33.6138 0.80472C33.3523 0.649759 33.054 0.567993 32.75 0.567993C32.446 0.567993 32.1477 0.649759 31.8862 0.80472C31.6247 0.959682 31.4097 1.18213 31.2637 1.44875L30.8462 2.21188C30.7422 2.39757 30.6221 2.57386 30.4875 2.73875C26.5544 1.495 22.42 2.84875 19 6.5075C14.4437 1.625 9.44625 1.59875 6.00625 3.33875C3.0725 3.55938 1.15937 4.52625 0.479995 6.15125C0.272544 6.72102 0.188986 7.32848 0.234898 7.9331C0.280811 8.53772 0.455137 9.12559 0.746245 9.6575C0.00987106 12.0142 0.0980448 14.5514 0.996245 16.8513C1.61078 18.3334 2.38626 19.7435 3.30875 21.0563C4.39 22.715 5.41125 24.2825 5.83125 26.155C5.98463 26.9585 6.0635 27.7745 6.06687 28.5925C6.06735 29.5712 6.17677 30.5468 6.39312 31.5013C7.23125 34.6925 9.105 36.49 11.5806 36.4331C15.4787 36.3444 16.4444 32.5544 17.22 29.5125C17.6825 27.7 18.0994 25.795 19.0012 25.795C19.9031 25.795 20.32 27.6994 20.7825 29.5125C21.5581 32.5544 22.5237 36.3406 26.4212 36.4331C28.8856 36.4613 30.7719 34.6944 31.6087 31.5013C31.8251 30.5468 31.9345 29.5712 31.935 28.5925C31.9384 27.7745 32.0172 26.9585 32.1706 26.155C32.3017 25.5897 32.4848 25.0378 32.7175 24.5063C35.2531 24.205 36.9306 23.2694 37.56 21.7738C38.0856 20.5275 37.8137 18.9994 36.7956 17.3406C36.8625 17.1763 36.9412 17.0188 37.0037 16.8513ZM31.9425 2.8125L32.36 2.05C32.3984 1.98015 32.4548 1.92188 32.5234 1.8813C32.592 1.84072 32.6703 1.81931 32.75 1.81931C32.8297 1.81931 32.908 1.84072 32.9766 1.8813C33.0452 1.92188 33.1016 1.98015 33.14 2.05L33.5575 2.8125C34.0065 3.63567 34.6827 4.31236 35.5056 4.76188L36.2694 5.17938C36.3392 5.21767 36.3975 5.27405 36.4381 5.34261C36.4787 5.41117 36.5002 5.48939 36.5002 5.56907C36.5002 5.64875 36.4787 5.72696 36.4381 5.79552C36.3975 5.86408 36.3392 5.92046 36.2694 5.95875L35.5056 6.37625C34.6828 6.8253 34.0065 7.50156 33.5575 8.32438L33.14 9.08813C33.1016 9.15799 33.0452 9.21625 32.9766 9.25683C32.908 9.29742 32.8297 9.31883 32.75 9.31883C32.6703 9.31883 32.592 9.29742 32.5234 9.25683C32.4548 9.21625 32.3984 9.15799 32.36 9.08813L31.9425 8.32563C31.4939 7.50183 30.8176 6.82463 29.9944 6.375L29.2306 5.95688C29.1607 5.91867 29.1024 5.86236 29.0618 5.79385C29.0212 5.72534 28.9997 5.64716 28.9997 5.5675C28.9997 5.48785 29.0212 5.40967 29.0618 5.34116C29.1024 5.27265 29.1607 5.21633 29.2306 5.17813L29.9937 4.76063C30.8167 4.31154 31.4931 3.6353 31.9425 2.8125ZM1.63 6.63563C1.82939 6.25592 2.10526 5.92162 2.44022 5.65378C2.77518 5.38594 3.16198 5.19037 3.57625 5.07938C2.73522 5.89283 2.03003 6.83583 1.4875 7.8725C1.42443 7.45405 1.47449 7.02633 1.6325 6.63375L1.63 6.63563ZM30.9456 25.8856C30.7742 26.7637 30.6852 27.656 30.68 28.5506C30.682 29.4377 30.586 30.3222 30.3937 31.1881C29.9969 32.7075 28.93 35.2331 26.4475 35.1881C23.4969 35.1188 22.7306 32.1138 21.99 29.2088C21.3869 26.8763 20.8387 24.4725 18.9275 24.5463C17.1325 24.615 16.5912 26.9213 16.0075 29.2088C15.2662 32.1138 14.5006 35.1138 11.55 35.1881C9.05562 35.2506 8.00062 32.7094 7.60374 31.1881C7.41147 30.3222 7.31547 29.4377 7.31749 28.5506C7.31225 27.656 7.22332 26.7637 7.05187 25.8856C6.58312 23.7931 5.45187 22.0569 4.3575 20.3775C3.48376 19.1408 2.74872 17.8118 2.16562 16.4144C1.52205 14.7556 1.34439 12.9525 1.65187 11.2C4.1075 14.6375 9.5075 18.4163 15.995 21.1481C21.6244 23.4806 26.87 24.7344 31.3287 24.6181C31.1745 25.0302 31.0474 25.452 30.9481 25.8806L30.9456 25.8856ZM31.8794 23.3363C27.8794 23.6238 22.1612 22.39 16.4775 19.9963C9.56937 17.0875 3.9775 13.0213 2.09437 9.56625C2.83219 7.55781 4.22642 5.85725 6.05124 4.74C9.15812 2.88875 14.0475 2.72875 18.4762 7.8025C19.1712 9.1875 19.9375 11.0481 23.375 11.0844C23.5408 11.0844 23.6997 11.0185 23.8169 10.9013C23.9341 10.7841 24 10.6251 24 10.4594C24 10.2936 23.9341 10.1346 23.8169 10.0174C23.6997 9.90023 23.5408 9.83438 23.375 9.83438C20.9375 9.83438 20.3062 8.69188 19.75 7.54938C22.62 4.38938 26.025 3.03313 29.3 3.71625L28.6331 4.08063C28.3663 4.22644 28.1437 4.44139 27.9886 4.70289C27.8335 4.9644 27.7517 5.26284 27.7517 5.56688C27.7517 5.87092 27.8335 6.16935 27.9886 6.43086C28.1437 6.69237 28.3663 6.90731 28.6331 7.05313L29.3962 7.47063C30.0096 7.8054 30.5136 8.30964 30.8481 8.92313L31.2656 9.685C31.4114 9.9518 31.6264 10.1744 31.8879 10.3295C32.1494 10.4846 32.4478 10.5664 32.7519 10.5664C33.0559 10.5664 33.3543 10.4846 33.6159 10.3295C33.8774 10.1744 34.0923 9.9518 34.2381 9.685L34.6556 8.92188C34.8136 8.63589 35.0091 8.3723 35.2369 8.13813C35.9463 9.38531 36.3683 10.7752 36.472 12.2063C36.5757 13.6374 36.3585 15.0736 35.8362 16.41C35.2525 17.8081 34.5168 19.1377 33.6425 20.375C32.9983 21.3251 32.4104 22.3123 31.8819 23.3313L31.8794 23.3363ZM36.4025 21.2925C36.0237 22.1925 34.955 22.83 33.3931 23.1438C33.7875 22.4463 34.2306 21.7606 34.6875 21.06C35.1794 20.3044 35.6744 19.5288 36.1212 18.7181C36.3443 19.1032 36.4847 19.5306 36.5336 19.9729C36.5824 20.4153 36.5386 20.863 36.405 21.2875L36.4025 21.2925Z" fill="black" style="fill:black;fill-opacity:1;"/>
<path id="Vector_3" d="M30.3901 12.0431L29.9626 11.8124C29.6655 11.65 29.4214 11.4054 29.2595 11.1081L29.0257 10.6812C28.9204 10.4883 28.765 10.3274 28.576 10.2153C28.3869 10.1032 28.1711 10.0442 27.9513 10.0443C27.7316 10.0435 27.5158 10.1019 27.3264 10.2133C27.137 10.3247 26.9811 10.485 26.8751 10.6774L26.6414 11.1049C26.4797 11.4036 26.2354 11.6492 25.9376 11.8124L25.5107 12.0456C25.318 12.1509 25.1572 12.3062 25.0452 12.4952C24.9331 12.6841 24.874 12.8997 24.874 13.1193C24.874 13.339 24.9331 13.5546 25.0452 13.7435C25.1572 13.9324 25.318 14.0877 25.5107 14.1931L25.9382 14.4274C26.2356 14.5895 26.4799 14.8338 26.642 15.1312L26.8757 15.5581C26.981 15.7509 27.1362 15.9119 27.3252 16.0241C27.5141 16.1363 27.7298 16.1955 27.9495 16.1956C28.1692 16.1955 28.3849 16.1363 28.5739 16.0243C28.7629 15.9122 28.9183 15.7514 29.0238 15.5587L29.2576 15.1306C29.4198 14.8337 29.6638 14.5896 29.9607 14.4274L30.3882 14.1937C30.5809 14.0883 30.7418 13.933 30.8538 13.7441C30.9658 13.5552 31.0249 13.3396 31.0249 13.1199C31.0249 12.9003 30.9658 12.6847 30.8538 12.4958C30.7418 12.3069 30.5809 12.1516 30.3882 12.0462L30.3901 12.0431ZM29.3632 13.3281C28.8562 13.6046 28.4394 14.0212 28.1626 14.5281L27.9751 14.9549L27.7413 14.5287C27.4648 14.0215 27.0479 13.6047 26.5407 13.3281L26.1132 13.1406L26.5401 12.9068C27.0474 12.6301 27.4643 12.2133 27.7413 11.7062L27.9288 11.2787L28.1626 11.7056C28.4396 12.2125 28.8563 12.6292 29.3632 12.9062L29.7907 13.0937L29.3632 13.3281Z" fill="black" style="fill:black;fill-opacity:1;"/>
<path id="Vector_4" d="M4.625 9.31689C4.97018 9.31689 5.25 9.03707 5.25 8.69189C5.25 8.34672 4.97018 8.06689 4.625 8.06689C4.27982 8.06689 4 8.34672 4 8.69189C4 9.03707 4.27982 9.31689 4.625 9.31689Z" fill="black" style="fill:black;fill-opacity:1;"/>
</g>
</g>
</svg>
