<svg width="40" height="41" viewBox="0 0 40 41" fill="none" xmlns="http://www.w3.org/2000/svg">
<g id="Group">
<path id="Vector" d="M13.075 25.1152C13.1558 25.1489 13.2425 25.1664 13.33 25.1666C13.4176 25.1669 13.5043 25.1498 13.5853 25.1165C13.6663 25.0832 13.7399 25.0343 13.8019 24.9725C13.864 24.9108 13.9133 24.8374 13.947 24.7566L14.887 22.4999H18.443L19.383 24.7566C19.5248 25.0965 19.9152 25.257 20.255 25.1153C20.5949 24.9736 20.7554 24.5831 20.6137 24.2433L17.2804 16.2433C17.2297 16.1219 17.1443 16.0181 17.0348 15.9452C16.9253 15.8722 16.7967 15.8333 16.6651 15.8333C16.5335 15.8333 16.4049 15.8722 16.2954 15.9452C16.1859 16.0181 16.1004 16.1219 16.0498 16.2433L12.7164 24.2433C12.6827 24.3241 12.6653 24.4107 12.665 24.4983C12.6648 24.5858 12.6818 24.6726 12.7151 24.7535C12.7484 24.8345 12.7974 24.9081 12.8591 24.9702C12.9208 25.0322 12.9942 25.0815 13.075 25.1152ZM16.665 18.2332L17.887 21.1666H15.443L16.665 18.2332Z" fill="black" style="fill:black;fill-opacity:1;"/>
<path id="Vector_2" fill-rule="evenodd" clip-rule="evenodd" d="M21.9987 23.8333C21.6305 23.8333 21.332 24.1317 21.332 24.4999C21.332 24.8682 21.6305 25.1666 21.9987 25.1666H25.9987C26.3669 25.1666 26.6654 24.8682 26.6654 24.4999C26.6654 24.1317 26.3669 23.8333 25.9987 23.8333H24.6654V17.1666H25.9987C26.3669 17.1666 26.6654 16.8681 26.6654 16.4999C26.6654 16.1317 26.3669 15.8333 25.9987 15.8333H21.9987C21.6305 15.8333 21.332 16.1317 21.332 16.4999C21.332 16.8681 21.6305 17.1666 21.9987 17.1666H23.3321V23.8333H21.9987Z" fill="black" style="fill:black;fill-opacity:1;"/>
<path id="Vector_3" d="M0.66497 29.8333C0.66497 31.3061 1.8589 32.5 3.33162 32.5C3.66565 32.4987 3.9964 32.434 4.30628 32.3093C5.88227 33.516 8.1063 34.1453 10.8396 34.1453C11.2516 34.1453 11.6796 34.126 12.1136 34.098C14.0496 38.054 16.8429 40.5 19.9983 40.5C23.1536 40.5 25.9469 38.054 27.8836 34.1C28.3183 34.128 28.7456 34.1473 29.1576 34.1473C31.8909 34.1473 34.1149 33.5179 35.6909 32.3113C36.0007 32.4352 36.3312 32.4993 36.6649 32.5C37.8419 32.4966 38.8775 31.722 39.2132 30.5938C39.5489 29.4657 39.1053 28.2509 38.1215 27.6046C38.2148 25.458 37.3849 23.0219 35.6956 20.5C37.3849 17.9786 38.2149 15.5426 38.1215 13.3953C39.2741 12.6515 39.6723 11.1534 39.0411 9.93553C38.41 8.71765 36.9564 8.17917 35.6842 8.69193C33.8729 7.30595 31.1982 6.69196 27.8842 6.90795C25.9497 2.94869 23.155 0.5 19.9983 0.5C16.8416 0.5 14.047 2.94869 12.1103 6.90801C8.79765 6.69333 6.12431 7.30798 4.31028 8.69199C3.03886 8.18337 1.58898 8.72263 0.958909 9.93848C0.328842 11.1543 0.724283 12.6499 1.87294 13.3954C1.78096 15.5414 2.6116 17.9773 4.30096 20.5C2.6116 23.022 1.78096 25.458 1.87498 27.6047C1.50385 27.8462 1.19883 28.1765 0.987547 28.5657C0.776265 28.9548 0.665392 29.3905 0.66497 29.8333ZM1.99833 29.8333C1.99833 29.097 2.59526 28.5 3.33168 28.5C4.06811 28.5 4.66504 29.0969 4.66504 29.8333C4.66504 30.5698 4.06811 31.1667 3.33168 31.1667C2.97806 31.1667 2.63891 31.0262 2.38886 30.7762C2.13881 30.5261 1.99833 30.187 1.99833 29.8333ZM12.9377 8.31335C14.7124 8.52587 16.461 8.91834 18.1563 9.48471C16.963 10.0173 15.7977 10.6105 14.665 11.2621C13.5283 11.9181 12.4272 12.634 11.3663 13.4067C11.7159 11.66 12.2424 9.95339 12.9377 8.31335ZM28.6297 13.4067C27.5691 12.6339 26.4682 11.918 25.3316 11.2621C24.2005 10.6113 23.0373 10.0181 21.8463 9.48471C23.5399 8.91864 25.2866 8.52617 27.0596 8.31335C27.7545 9.95344 28.2806 11.66 28.6297 13.4067ZM27.059 32.6867C25.2842 32.4742 23.5356 32.0817 21.8403 31.5154C23.0336 30.9828 24.1989 30.3896 25.3316 29.738C26.4683 29.082 27.5694 28.3661 28.6303 27.5934C28.2808 29.3401 27.7543 31.0467 27.059 32.6867ZM24.665 12.4173C26.1684 13.2825 27.6057 14.2579 28.965 15.3354C29.2102 17.046 29.3327 18.7719 29.3316 20.5C29.3329 22.2281 29.2106 23.9541 28.9656 25.6647C27.606 26.7421 26.1686 27.7175 24.665 28.5827C23.1662 29.4496 21.6066 30.2067 19.9983 30.848C18.39 30.2063 16.8303 29.4488 15.3316 28.5813C13.8282 27.7161 12.391 26.7408 11.0317 25.6633C10.5436 22.2375 10.5436 18.7598 11.0317 15.334C12.3911 14.257 13.8283 13.2821 15.3316 12.4173C16.8317 11.5498 18.3927 10.7922 20.0023 10.1506C21.6093 10.7925 23.1676 11.5501 24.665 12.4173ZM30.465 16.5954C31.7947 17.7725 33.0024 19.0807 34.0697 20.5C33.0038 21.9191 31.7977 23.2273 30.4697 24.4047C30.6006 23.1073 30.6658 21.8041 30.6651 20.5C30.6654 19.196 30.5998 17.8928 30.4684 16.5954H30.465ZM9.53164 24.4047C8.20163 23.2279 6.99393 21.9197 5.92695 20.5C6.99281 19.0809 8.19888 17.7728 9.52692 16.5954C9.26467 19.1919 9.26467 21.8082 9.52692 24.4047H9.53164ZM14.669 29.738C15.8001 30.3888 16.9633 30.982 18.1543 31.5154C16.4607 32.0814 14.7139 32.4739 12.941 32.6867C12.2459 31.0466 11.7196 29.3401 11.3703 27.5934C12.4298 28.3661 13.5295 29.0819 14.665 29.738H14.669ZM19.9983 39.1667C17.4943 39.1667 15.219 37.1807 13.541 33.9594C15.7505 33.6461 17.9169 33.0816 19.9983 32.2767C22.0805 33.0819 24.2479 33.6465 26.4583 33.9594C24.777 37.1807 22.5023 39.1667 19.9983 39.1667ZM36.665 31.1667C35.9287 31.1667 35.3317 30.5698 35.3317 29.8333C35.3317 29.0969 35.9286 28.5 36.665 28.5C37.4015 28.5 37.9984 29.0969 37.9984 29.8333C37.9984 30.5698 37.4014 31.1667 36.665 31.1667ZM36.805 27.1807C36.7577 27.1807 36.713 27.1667 36.665 27.1667C35.1922 27.1667 33.9983 28.3606 33.9983 29.8333C34.0008 30.4295 34.205 31.0073 34.5777 31.4726C33.1257 32.4306 31.0063 32.886 28.4677 32.7906C29.2942 30.7257 29.8801 28.5724 30.2136 26.3733C31.938 24.9848 33.4985 23.4044 34.865 21.6627C35.9906 23.2969 36.6603 25.2016 36.805 27.1807ZM37.9983 11.1667C37.9983 11.903 37.4014 12.5 36.665 12.5C35.9285 12.5 35.3316 11.9031 35.3316 11.1667C35.3316 10.4302 35.9285 9.8333 36.665 9.8333C37.4014 9.8333 37.9983 10.4303 37.9983 11.1667ZM34.5777 9.52736C34.2051 9.99274 34.0009 10.5705 33.9983 11.1667C33.9983 12.6394 35.1922 13.8333 36.665 13.8333C36.713 13.8333 36.7576 13.822 36.805 13.8193C36.6605 15.7984 35.9908 17.7032 34.865 19.3373C33.4982 17.5955 31.9375 16.0151 30.213 14.6267C29.8789 12.4275 29.2924 10.2742 28.465 8.20935C31.0057 8.11336 33.1263 8.56667 34.5777 9.52736ZM19.9983 1.83336C22.5023 1.83336 24.7777 3.81935 26.4557 7.04068C24.2473 7.35416 22.082 7.9187 20.0017 8.72335C17.9195 7.91813 15.7521 7.35357 13.5417 7.04068C15.2196 3.81935 17.4943 1.83336 19.9983 1.83336ZM3.33162 9.83337C4.06798 9.83337 4.66498 10.4303 4.66498 11.1667C4.66498 11.9032 4.06804 12.5001 3.33162 12.5001C2.59519 12.5001 1.99826 11.9032 1.99826 11.1667C1.99826 10.4303 2.59526 9.83337 3.33162 9.83337ZM3.19167 13.8193C3.23898 13.8193 3.28366 13.8333 3.33168 13.8333C4.80447 13.8333 5.99833 12.6394 5.99833 11.1667C5.99584 10.5705 5.79165 9.99271 5.41898 9.52736C6.87031 8.56936 8.98963 8.11468 11.529 8.20935C10.7025 10.2743 10.1166 12.4276 9.783 14.6267C8.05886 16.0151 6.49837 17.5953 5.13167 19.3367C4.00565 17.7029 3.33595 15.7983 3.19167 13.8193ZM5.13167 21.6633C6.499 23.4046 8.05991 24.9848 9.78431 26.3733C10.1183 28.5727 10.7046 30.7262 11.5317 32.7913C8.99435 32.8873 6.87366 32.4306 5.42167 31.4726C5.79335 31.0069 5.99658 30.4292 5.99833 29.8333C5.99833 28.3606 4.8044 27.1667 3.33168 27.1667C3.28366 27.1667 3.23904 27.1787 3.19167 27.1807C3.33619 25.2018 4.00587 23.2972 5.13167 21.6633Z" fill="black" style="fill:black;fill-opacity:1;"/>
</g>
</svg>
