<svg width="24" height="25" viewBox="0 0 24 25" fill="none" xmlns="http://www.w3.org/2000/svg">
<g clip-path="url(#clip0_2005_226)">
<path d="M23.3972 3.46385L21.0361 1.10275C20.0658 0.299082 19.0955 0.299082 18.1252 1.10275C17.3795 1.84854 17.3272 3.02885 17.9676 3.83613L15.5026 6.30129L12.9871 3.78579C12.7168 3.5155 12.2785 3.5155 12.0081 3.78579C11.7376 4.05625 11.7376 4.49454 12.0081 4.76482L12.8064 5.56319L2.99319 15.3763C2.9126 15.4569 2.85316 15.5562 2.82013 15.6653C2.7871 15.7743 2.78151 15.8899 2.80386 16.0016L3.58958 19.9313L0.202676 23.3182C-0.0675586 23.5885 -0.0675586 24.0268 0.202676 24.2973C0.52916 24.5675 0.855457 24.5675 1.18175 24.2973L4.56866 20.9104L8.49829 21.6963C8.72239 21.74 8.93094 21.6768 9.1236 21.5069L18.9367 11.6936L19.7351 12.4919C20.0614 12.7624 20.3878 12.7624 20.7141 12.4919C20.9844 12.2216 20.9844 11.7833 20.7141 11.5128L18.1986 8.99753L20.6638 6.53238C21.5949 7.17325 22.506 7.12071 23.3972 6.37474C23.786 5.986 24 5.46911 24 4.91927C24 4.36957 23.786 3.85258 23.3972 3.46385ZM8.40655 20.2658L4.92955 19.5704L4.23411 16.0936L6.05839 14.2693L10.2306 18.4415L8.40655 20.2658ZM16.361 12.3111L15.1335 11.0836C14.8632 10.8131 14.4248 10.8131 14.1544 11.0836C13.8841 11.3539 13.8841 11.7922 14.1544 12.0627L15.3819 13.2902L13.7855 14.8869L12.5577 13.6593C12.2875 13.3889 11.8491 13.3889 11.5787 13.6593C11.3084 13.9296 11.3084 14.368 11.5787 14.6384L12.8064 15.866L11.2097 17.4626L7.03729 13.2902L13.7853 6.54222L17.9577 10.7147L16.361 12.3111ZM17.2196 8.01846L16.4817 7.28032L18.9367 4.8251L19.6748 5.56319L17.2196 8.01846ZM22.4181 5.39561C22.1554 5.65821 21.728 5.65821 21.4655 5.39561L19.1043 3.03452C18.8417 2.77193 18.8417 2.34452 19.1043 2.08179C19.4218 1.81882 19.7395 1.81882 20.057 2.08179L22.418 4.44293C22.6811 4.76046 22.6811 5.07794 22.4181 5.39561Z" fill="#84766F" style="fill:#84766F;fill:color(display-p3 0.5187 0.4627 0.4347);fill-opacity:1;"/>
</g>
<defs>
<clipPath id="clip0_2005_226">
<rect width="24" height="24" fill="white" style="fill:white;fill-opacity:1;" transform="translate(0 0.5)"/>
</clipPath>
</defs>
</svg>
