<svg width="25" height="25" viewBox="0 0 25 25" fill="none" xmlns="http://www.w3.org/2000/svg">
<g clip-path="url(#clip0_2005_278)">
<path d="M12.5 16.9478C11.829 16.9478 11.2666 17.5102 11.2666 18.1811C11.2666 18.8521 11.829 19.4145 12.5 19.4145C13.1463 19.4145 13.7334 18.8521 13.7038 18.2107C13.7334 17.5052 13.1759 16.9478 12.5 16.9478Z" fill="#84766F" style="fill:#84766F;fill:color(display-p3 0.5187 0.4627 0.4347);fill-opacity:1;"/>
<path d="M23.916 21.3188C24.6906 19.9818 24.6955 18.3883 23.9259 17.0562L16.1999 3.67638C15.4352 2.32951 14.0538 1.53027 12.5046 1.53027C10.9555 1.53027 9.57409 2.33445 8.80939 3.67144L1.07355 17.0661C0.303914 18.413 0.308848 20.0164 1.08835 21.3534C1.85799 22.6756 3.23446 23.4699 4.77373 23.4699H20.2059C21.7501 23.4699 23.1365 22.6657 23.916 21.3188ZM22.2386 20.3518C21.8094 21.0919 21.0496 21.531 20.201 21.531H4.7688C3.93009 21.531 3.17525 21.1018 2.7559 20.3765C2.33161 19.6414 2.32668 18.7632 2.75097 18.0232L10.4868 4.63349C10.9062 3.89839 11.6561 3.46423 12.5046 3.46423C13.3483 3.46423 14.1031 3.90332 14.5225 4.63842L22.2534 18.0281C22.6678 18.7484 22.6629 19.6167 22.2386 20.3518Z" fill="#84766F" style="fill:#84766F;fill:color(display-p3 0.5187 0.4627 0.4347);fill-opacity:1;"/>
<path d="M12.1934 8.28922C11.6063 8.45696 11.2412 8.98978 11.2412 9.63608C11.2708 10.0258 11.2955 10.4205 11.3251 10.8103C11.409 12.2953 11.4928 13.7507 11.5767 15.2357C11.6063 15.7389 11.996 16.104 12.4993 16.104C13.0025 16.104 13.3972 15.7142 13.4218 15.2061C13.4218 14.9002 13.4218 14.619 13.4515 14.3082C13.5057 13.356 13.5649 12.4038 13.6192 11.4516C13.6488 10.8349 13.7031 10.2182 13.7327 9.60154C13.7327 9.37953 13.7031 9.18219 13.6192 8.98485C13.3676 8.43229 12.7805 8.15108 12.1934 8.28922Z" fill="#84766F" style="fill:#84766F;fill:color(display-p3 0.5187 0.4627 0.4347);fill-opacity:1;"/>
</g>
<defs>
<clipPath id="clip0_2005_278">
<rect width="24" height="24" fill="white" style="fill:white;fill-opacity:1;" transform="translate(0.5 0.5)"/>
</clipPath>
</defs>
</svg>
