<svg width="24" height="25" viewBox="0 0 24 25" fill="none" xmlns="http://www.w3.org/2000/svg">
<g clip-path="url(#clip0_2005_215)">
<path d="M21.2499 24.4999H2.75006C1.23305 24.4999 0 23.2669 0 21.7499V5.24988C0 3.73286 1.23305 2.5 2.75006 2.5H21.2499C22.767 2.5 24 3.73281 24 5.24988V21.7499C24 23.2669 22.767 24.4999 21.2499 24.4999ZM2.75006 4C2.061 4 1.5 4.56086 1.5 5.24988V21.7499C1.5 22.4389 2.06105 22.9999 2.75006 22.9999H21.2499C21.939 22.9999 22.5 22.4389 22.5 21.7499V5.24988C22.5 4.56081 21.939 4 21.2499 4H2.75006Z" fill="#84766F" style="fill:#84766F;fill:color(display-p3 0.5187 0.4627 0.4347);fill-opacity:1;"/>
<path d="M23.25 10.0001H0.75C0.336 10.0001 0 9.66406 0 9.25006C0 8.83606 0.336 8.50006 0.75 8.50006H23.25C23.664 8.50006 24 8.83606 24 9.25006C24 9.66406 23.664 10.0001 23.25 10.0001ZM5.75006 6.5C5.33606 6.5 5.00006 6.164 5.00006 5.75V1.25C5.00006 0.836 5.33606 0.5 5.75006 0.5C6.16406 0.5 6.50006 0.836 6.50006 1.25V5.75C6.50006 6.164 6.16406 6.5 5.75006 6.5ZM18.2499 6.5C17.8359 6.5 17.4999 6.164 17.4999 5.75V1.25C17.4999 0.836 17.8359 0.5 18.2499 0.5C18.6639 0.5 18.9999 0.836 18.9999 1.25V5.75C18.9999 6.164 18.6639 6.5 18.2499 6.5Z" fill="#84766F" style="fill:#84766F;fill:color(display-p3 0.5187 0.4627 0.4347);fill-opacity:1;"/>
</g>
<defs>
<clipPath id="clip0_2005_215">
<rect width="24" height="24" fill="white" style="fill:white;fill-opacity:1;" transform="translate(0 0.5)"/>
</clipPath>
</defs>
</svg>
