<svg width="40" height="41" viewBox="0 0 40 41" fill="none" xmlns="http://www.w3.org/2000/svg">
<g id="Group">
<path id="Vector" d="M38.9953 5.43975L35.0601 1.50459C33.4429 0.165137 31.8258 0.165137 30.2087 1.50459C28.9658 2.74756 28.8787 4.71475 29.946 6.06021L25.8377 10.1688L21.6452 5.97631C21.1947 5.52584 20.4641 5.52584 20.0134 5.97631C19.5626 6.42709 19.5626 7.15756 20.0134 7.60803L21.344 8.93865L4.98865 25.2939C4.85434 25.4282 4.75526 25.5936 4.70021 25.7754C4.64517 25.9572 4.63586 26.1498 4.67311 26.3361L5.98264 32.8854L0.337793 38.5304C-0.112598 38.9808 -0.112598 39.7114 0.337793 40.1622C0.881934 40.6126 1.42576 40.6126 1.96959 40.1622L7.61443 34.5173L14.1638 35.8271C14.5373 35.9001 14.8849 35.7947 15.206 35.5115L31.5612 19.156L32.8919 20.4865C33.4356 20.9373 33.9797 20.9373 34.5236 20.4865C34.974 20.0361 34.974 19.3055 34.5236 18.8547L30.3311 14.6626L34.4397 10.554C35.9915 11.6221 37.51 11.5345 38.9954 10.2912C39.6433 9.64334 40 8.78186 40 7.86545C40 6.94928 39.6433 6.08764 38.9953 5.43975ZM14.0109 33.443L8.21592 32.284L7.05686 26.4893L10.0973 23.4488L17.0511 30.4026L14.0109 33.443ZM27.2683 20.1852L25.2225 18.1394C24.772 17.6886 24.0414 17.6886 23.5907 18.1394C23.1402 18.5898 23.1402 19.3204 23.5907 19.7712L25.6365 21.817L22.9758 24.4782L20.9295 22.4322C20.4791 21.9815 19.7485 21.9815 19.2978 22.4322C18.8473 22.8827 18.8473 23.6133 19.2978 24.064L21.344 26.11L18.6829 28.7711L11.7288 21.817L22.9754 10.5704L29.9295 17.5244L27.2683 20.1852ZM28.6994 13.0308L27.4694 11.8005L31.5612 7.7085L32.7914 8.93865L28.6994 13.0308ZM37.3636 8.65936C36.9256 9.09701 36.2133 9.09701 35.7758 8.65936L31.8405 4.7242C31.4029 4.28654 31.4029 3.5742 31.8405 3.13631C32.3697 2.69803 32.8991 2.69803 33.4283 3.13631L37.3633 7.07154C37.8018 7.60076 37.8018 8.1299 37.3636 8.65936Z" fill="black" style="fill:black;fill-opacity:1;"/>
</g>
</svg>
