<svg width="30" height="31" viewBox="0 0 30 31" fill="none" xmlns="http://www.w3.org/2000/svg">
<g id="Group">
<path id="Vector" fill-rule="evenodd" clip-rule="evenodd" d="M15 0.5C6.71602 0.5 0 7.21602 0 15.5C0 23.784 6.71602 30.5 15 30.5C23.284 30.5 30 23.784 30 15.5C30 7.21602 23.284 0.5 15 0.5ZM21.9527 10.7012C21.7271 13.073 20.7504 18.8287 20.2535 21.4854C20.0432 22.6098 19.6289 22.9865 19.2281 23.0234C18.3574 23.1037 17.6959 22.4475 16.8521 21.8943C15.532 21.0289 14.7861 20.4904 13.5047 19.6461C12.0234 18.6699 12.9838 18.1338 13.8275 17.2572C14.0484 17.0275 17.8863 13.5365 17.9607 13.2201C17.9701 13.1803 17.9789 13.0326 17.891 12.9547C17.8031 12.8768 17.6736 12.9037 17.5805 12.9248C17.448 12.9547 15.3387 14.3486 11.2535 17.1066C10.6547 17.518 10.1127 17.7178 9.62637 17.7078C9.09082 17.6961 8.06074 17.4049 7.29492 17.1559C6.35566 16.8506 5.60918 16.6889 5.67422 16.1703C5.70762 15.9002 6.07969 15.6242 6.78984 15.3418C11.1627 13.4363 14.0783 12.1807 15.5373 11.5736C19.7033 9.84107 20.5688 9.53984 21.1329 9.52988C21.8397 9.5174 22.0103 10.1008 21.9527 10.7012Z" fill="#41ACD9" style="fill:#41ACD9;fill:color(display-p3 0.2543 0.6733 0.8528);fill-opacity:1;"/>
</g>
</svg>
