<svg width="30" height="30" viewBox="0 0 30 30" fill="none" xmlns="http://www.w3.org/2000/svg">
<g id="Group">
<g id="Layer 2">
<g id="08.whatsapp">
<path id="Vector" d="M19.145 10.8553L19.1154 10.8257C18.1343 9.84981 16.8378 9.25514 15.4582 9.14816C14.0786 9.04118 12.706 9.42889 11.5862 10.2418C10.4664 11.0548 9.67267 12.2398 9.3471 13.5847C9.02154 14.9296 9.18543 16.3465 9.80944 17.5816L10.066 18.0868L9.58641 20.4118V20.4414L11.8897 19.8947L12.4147 20.1553C13.5074 20.6976 14.7427 20.8835 15.9466 20.6866C17.1505 20.4897 18.2622 19.9201 19.1252 19.0579C20.2087 17.9691 20.8187 16.4967 20.8224 14.9606C20.8261 13.4246 20.2232 11.9492 19.145 10.8553ZM18.9121 17.3684C18.6298 17.8125 18.1818 18.3553 17.6233 18.4914C16.6364 18.7303 15.1344 18.4914 13.2535 16.7526L13.2298 16.7309C11.5937 15.2033 11.1594 13.9303 11.2562 12.9217C11.3134 12.3493 11.791 11.8322 12.1937 11.4928C12.2575 11.4384 12.3333 11.3998 12.4148 11.3801C12.4963 11.3603 12.5813 11.3601 12.663 11.3793C12.7446 11.3985 12.8206 11.4367 12.8848 11.4906C12.949 11.5446 12.9996 11.613 13.0325 11.6901L13.6384 13.0717C13.6779 13.1599 13.6928 13.2571 13.6813 13.3531C13.6698 13.4491 13.6325 13.5401 13.5733 13.6164L13.2654 14.0112C13.2014 14.0931 13.1632 14.1923 13.1559 14.296C13.1485 14.3997 13.1722 14.5032 13.2239 14.5934C13.5165 15.0238 13.8665 15.4122 14.264 15.748C14.6909 16.1611 15.1764 16.5089 15.7048 16.7803C15.8011 16.8193 15.9068 16.8287 16.0084 16.8073C16.1101 16.7858 16.203 16.7345 16.2752 16.6599L16.6285 16.3026C16.6945 16.227 16.7803 16.1715 16.8762 16.1421C16.9721 16.1128 17.0744 16.111 17.1713 16.1368L18.6121 16.5513C18.6922 16.5748 18.7657 16.6165 18.8269 16.6732C18.8881 16.7299 18.9354 16.8001 18.9648 16.8782C18.9943 16.9562 19.0052 17.0401 18.9968 17.1231C18.9883 17.2061 18.9606 17.2861 18.916 17.3566L18.9121 17.3684Z" fill="white" style="fill:white;fill-opacity:1;"/>
<path id="Vector_2" d="M15 0C12.0333 0 9.13319 0.879735 6.66645 2.52796C4.19972 4.17618 2.27713 6.51886 1.14181 9.25975C0.00649923 12.0006 -0.290551 15.0166 0.288228 17.9264C0.867006 20.8361 2.29562 23.5088 4.3934 25.6066C6.49119 27.7044 9.16394 29.133 12.0737 29.7118C14.9834 30.2906 17.9994 29.9935 20.7403 28.8582C23.4811 27.7229 25.8238 25.8003 27.4721 23.3336C29.1203 20.8668 30 17.9667 30 15C30 11.0218 28.4197 7.20644 25.6066 4.3934C22.7936 1.58035 18.9783 0 15 0ZM22.4349 15.1757C22.3944 16.4214 22.0416 17.637 21.4091 18.711C20.7765 19.785 19.8843 20.6829 18.8144 21.3223C17.7446 21.9618 16.5312 22.3223 15.2858 22.3708C14.0403 22.4193 12.8026 22.1543 11.6862 21.6L7.93619 22.4921C7.8795 22.5051 7.8202 22.5008 7.766 22.4797C7.7118 22.4585 7.6652 22.4216 7.63224 22.3737C7.60972 22.3416 7.59406 22.3053 7.58625 22.2669C7.57843 22.2285 7.57864 22.189 7.58685 22.1507L8.37632 18.3178C7.86027 17.3066 7.58243 16.1908 7.56407 15.0557C7.54571 13.9206 7.78732 12.7964 8.2704 11.7691C8.75348 10.7417 9.46521 9.83857 10.3511 9.1287C11.237 8.41884 12.2736 7.92109 13.3816 7.67357C14.4895 7.42606 15.6393 7.43533 16.7431 7.70068C17.8469 7.96604 18.8753 8.48043 19.7497 9.20449C20.624 9.92855 21.3211 10.8431 21.7876 11.8781C22.254 12.913 22.4775 14.041 22.4408 15.1757H22.4349Z" fill="white" style="fill:white;fill-opacity:1;"/>
</g>
</g>
</g>
</svg>
