<svg width="30" height="31" viewBox="0 0 30 31" fill="none" xmlns="http://www.w3.org/2000/svg">
<g id="Group">
<g id="Layer 2">
<g id="08.whatsapp">
<path id="Vector" d="M19.145 11.3554L19.1154 11.3258C18.1343 10.35 16.8378 9.75528 15.4582 9.6483C14.0786 9.54132 12.706 9.92902 11.5862 10.742C10.4664 11.5549 9.67267 12.74 9.3471 14.0849C9.02154 15.4298 9.18543 16.8467 9.80944 18.0817L10.066 18.587L9.58641 20.912V20.9416L11.8897 20.3949L12.4147 20.6554C13.5074 21.1978 14.7427 21.3836 15.9466 21.1867C17.1505 20.9899 18.2622 20.4202 19.1252 19.558C20.2087 18.4693 20.8187 16.9968 20.8224 15.4608C20.8261 13.9247 20.2232 12.4494 19.145 11.3554ZM18.9121 17.8686C18.6298 18.3126 18.1818 18.8554 17.6233 18.9916C16.6364 19.2304 15.1344 18.9916 13.2535 17.2528L13.2298 17.2311C11.5937 15.7034 11.1594 14.4304 11.2562 13.4218C11.3134 12.8495 11.791 12.3324 12.1937 11.9929C12.2575 11.9385 12.3333 11.8999 12.4148 11.8802C12.4963 11.8605 12.5813 11.8602 12.663 11.8794C12.7446 11.8986 12.8206 11.9368 12.8848 11.9908C12.949 12.0448 12.9996 12.1131 13.0325 12.1903L13.6384 13.5718C13.6779 13.66 13.6928 13.7573 13.6813 13.8532C13.6698 13.9492 13.6325 14.0402 13.5733 14.1166L13.2654 14.5113C13.2014 14.5933 13.1632 14.6924 13.1559 14.7961C13.1485 14.8998 13.1722 15.0034 13.2239 15.0936C13.5165 15.5239 13.8665 15.9124 14.264 16.2482C14.6909 16.6612 15.1764 17.0091 15.7048 17.2804C15.8011 17.3195 15.9068 17.3289 16.0084 17.3074C16.1101 17.286 16.203 17.2346 16.2752 17.16L16.6285 16.8028C16.6945 16.7272 16.7803 16.6716 16.8762 16.6423C16.9721 16.613 17.0744 16.6111 17.1713 16.637L18.6121 17.0515C18.6922 17.0749 18.7657 17.1166 18.8269 17.1733C18.8881 17.2301 18.9354 17.3002 18.9648 17.3783C18.9943 17.4564 19.0052 17.5402 18.9968 17.6233C18.9883 17.7063 18.9606 17.7862 18.916 17.8567L18.9121 17.8686Z" fill="#47CF65" style="fill:#47CF65;fill:color(display-p3 0.2787 0.8106 0.3957);fill-opacity:1;"/>
<path id="Vector_2" d="M15 0.5C12.0333 0.5 9.13319 1.37973 6.66645 3.02796C4.19972 4.67618 2.27713 7.01886 1.14181 9.75975C0.00649923 12.5006 -0.290551 15.5166 0.288228 18.4264C0.867006 21.3361 2.29562 24.0088 4.3934 26.1066C6.49119 28.2044 9.16394 29.633 12.0737 30.2118C14.9834 30.7906 17.9994 30.4935 20.7403 29.3582C23.4811 28.2229 25.8238 26.3003 27.4721 23.8336C29.1203 21.3668 30 18.4667 30 15.5C30 11.5218 28.4197 7.70644 25.6066 4.8934C22.7936 2.08035 18.9783 0.5 15 0.5ZM22.4349 15.6757C22.3944 16.9214 22.0416 18.137 21.4091 19.211C20.7765 20.285 19.8843 21.1829 18.8144 21.8223C17.7446 22.4618 16.5312 22.8223 15.2858 22.8708C14.0403 22.9193 12.8026 22.6543 11.6862 22.1L7.93619 22.9921C7.8795 23.0051 7.8202 23.0008 7.766 22.9797C7.7118 22.9585 7.6652 22.9216 7.63224 22.8737C7.60972 22.8416 7.59406 22.8053 7.58625 22.7669C7.57843 22.7285 7.57864 22.689 7.58685 22.6507L8.37632 18.8178C7.86027 17.8066 7.58243 16.6908 7.56407 15.5557C7.54571 14.4206 7.78732 13.2964 8.2704 12.2691C8.75348 11.2417 9.46521 10.3386 10.3511 9.6287C11.237 8.91884 12.2736 8.42109 13.3816 8.17357C14.4895 7.92606 15.6393 7.93533 16.7431 8.20068C17.8469 8.46604 18.8753 8.98043 19.7497 9.70449C20.624 10.4286 21.3211 11.3431 21.7876 12.3781C22.254 13.413 22.4775 14.541 22.4408 15.6757H22.4349Z" fill="#47CF65" style="fill:#47CF65;fill:color(display-p3 0.2787 0.8106 0.3957);fill-opacity:1;"/>
</g>
</g>
</g>
</svg>
