<svg width="238" height="63" viewBox="0 0 238 63" fill="none" xmlns="http://www.w3.org/2000/svg">
<g id="Frame" clip-path="url(#clip0_6_2988)">
<g id="&#208;&#161;&#208;&#187;&#208;&#190;&#208;&#185;_x0020_1">
<g id="_2841091336144">
<path id="Vector" d="M220.484 33.3247C221.056 34.7262 220.933 35.0929 222.633 34.9611C224.333 34.83 224.387 31.2614 224.387 31.2614L221.731 28.0515C221.731 28.0515 219.912 31.9226 220.484 33.3247H220.484ZM209.946 21.2596L209.485 21.5362L209.021 21.8096C208.713 21.9925 208.405 22.1784 208.103 22.3794C207.801 22.5807 207.505 22.7966 207.225 23.0371C206.945 23.2769 206.679 23.5372 206.436 23.8176L206.912 23.8305C206.604 23.3412 206.23 22.8898 205.814 22.4848C205.397 22.0803 204.938 21.722 204.46 21.4028C203.981 21.0853 203.485 20.8002 202.984 20.5402C202.483 20.2786 201.98 20.0348 201.481 19.7954L201.294 19.7055L201.195 19.658L201.091 19.6107C200.953 19.5492 200.815 19.4935 200.676 19.441C200.397 19.3376 200.118 19.2529 199.84 19.1761C199.285 19.0218 198.737 18.9043 198.207 18.7792C197.68 18.6525 197.17 18.512 196.707 18.3202C196.477 18.2229 196.26 18.112 196.061 17.982C195.863 17.8513 195.683 17.7037 195.525 17.5362C195.485 17.4941 195.447 17.4512 195.41 17.4072L195.357 17.3402L195.298 17.2645C195.223 17.1639 195.152 17.0614 195.085 16.9564C194.951 16.7467 194.836 16.528 194.737 16.3019C194.64 16.0755 194.562 15.8411 194.506 15.5999C194.449 15.3585 194.412 15.1112 194.392 14.8597C194.352 14.3559 194.391 13.8364 194.469 13.313C194.508 13.0519 194.559 12.7896 194.618 12.5269C194.675 12.2634 194.74 12.0001 194.81 11.7361C195.088 10.6805 195.433 9.61595 195.67 8.51613C195.789 7.96665 195.88 7.40805 195.917 6.84573C195.954 6.28333 195.935 5.71693 195.834 5.16906C195.831 5.72605 195.761 6.27344 195.648 6.80885C195.535 7.34454 195.379 7.86902 195.203 8.38798C194.85 9.42572 194.416 10.4401 194.047 11.504C193.955 11.7706 193.867 12.0395 193.786 12.3131C193.707 12.587 193.635 12.8654 193.574 13.1489C193.451 13.7151 193.38 14.306 193.397 14.9103C193.412 15.5135 193.534 16.1273 193.758 16.7008C193.87 16.9875 194.009 17.2637 194.168 17.5244C194.247 17.6548 194.332 17.782 194.42 17.9055L194.487 17.9958C194.512 18.0293 194.536 18.0604 194.561 18.0924C194.611 18.156 194.664 18.218 194.718 18.2776C194.935 18.5186 195.185 18.7289 195.45 18.9041C195.714 19.0798 195.992 19.2233 196.272 19.3432C196.834 19.5842 197.402 19.7282 197.952 19.8577C198.504 19.9872 199.043 20.092 199.561 20.2233C199.82 20.2885 200.073 20.3615 200.317 20.4446C200.439 20.4858 200.56 20.5294 200.678 20.5773L200.764 20.6131L200.854 20.6523L201.045 20.7365C201.554 20.9624 202.061 21.1785 202.556 21.407C203.049 21.6376 203.535 21.8736 203.998 22.1426C204.462 22.4092 204.905 22.7044 205.313 23.0407C205.723 23.3762 206.096 23.7545 206.427 24.1717L206.682 24.4942L206.903 24.1847C207.103 23.9039 207.318 23.6339 207.555 23.3794C207.791 23.1251 208.045 22.8824 208.311 22.6495C208.576 22.4159 208.853 22.1893 209.129 21.9606C209.404 21.7302 209.681 21.5013 209.946 21.2593L209.946 21.2596ZM222.633 23.4467C222.299 23.5081 221.995 23.6309 221.703 23.7753C221.413 23.9227 221.138 24.0978 220.881 24.2992C220.625 24.5002 220.388 24.7284 220.181 24.9856C219.977 25.244 219.795 25.5307 219.704 25.8589C219.786 25.8038 219.866 25.7491 219.943 25.6945C220.531 26.5442 221.17 27.3498 221.82 28.1448C222.501 28.9743 223.2 29.7878 223.9 30.598C224.602 31.4054 225.298 32.2316 226.116 32.9341C226.218 33.0218 226.322 33.1078 226.427 33.1908C226.53 33.2733 226.631 33.3626 226.733 33.449C226.937 33.6238 227.151 33.7883 227.373 33.9395C227.818 34.2418 228.289 34.4997 228.769 34.738C228.296 34.4874 227.831 34.2173 227.397 33.9048C227.181 33.7487 226.973 33.5803 226.775 33.4016C226.675 33.3129 226.577 33.2214 226.474 33.1338C226.371 33.0477 226.271 32.9608 226.172 32.8705C225.381 32.1513 224.715 31.3127 224.035 30.4853C223.354 29.6579 222.677 28.8294 222.019 27.9856C221.39 27.1755 220.772 26.3547 220.213 25.5008L220.487 25.3008C220.737 25.1156 220.984 24.9292 221.227 24.7374C221.431 24.5762 221.633 24.4117 221.832 24.2393C221.929 24.3999 222.03 24.5525 222.133 24.7049C222.27 24.9064 222.411 25.1044 222.554 25.3002C222.841 25.6914 223.137 26.0743 223.441 26.4514C223.746 26.8275 224.059 27.1979 224.383 27.5578C224.546 27.7374 224.711 27.9149 224.881 28.0882C225.05 28.2625 225.23 28.4304 225.403 28.5938C226.097 29.2578 226.733 29.9843 227.4 30.6833C227.734 31.0338 228.085 31.3664 228.449 31.6844C228.814 32 229.19 32.3064 229.603 32.5577C229.198 32.2943 228.832 31.9773 228.478 31.652C228.125 31.3245 227.785 30.9825 227.464 30.6243C226.82 29.9079 226.205 29.1625 225.524 28.4717C225.352 28.2982 225.183 28.1325 225.021 27.9556C224.858 27.7799 224.7 27.5996 224.544 27.4173C224.233 27.0517 223.933 26.6762 223.641 26.2945C223.35 25.9123 223.067 25.5245 222.795 25.1295C222.658 24.9325 222.525 24.7334 222.396 24.532C222.287 24.3613 222.18 24.1877 222.085 24.0137C222.274 23.8399 222.46 23.6582 222.633 23.4468L222.633 23.4467ZM217.28 14.1982C217.289 14.1228 217.285 14.0492 217.272 13.9835C217.261 13.9158 217.24 13.8534 217.215 13.7932C217.164 13.6743 217.092 13.5691 217.005 13.4819C216.832 13.3062 216.607 13.1969 216.371 13.1545C216.136 13.1126 215.885 13.14 215.662 13.2476C215.55 13.3011 215.447 13.3765 215.359 13.4712C215.315 13.5203 215.276 13.5723 215.242 13.632C215.208 13.6902 215.181 13.7572 215.163 13.8316C215.231 13.867 215.292 13.8987 215.346 13.925L215.501 14.0015C215.596 14.0471 215.679 14.0884 215.756 14.1215C215.91 14.1883 216.041 14.2301 216.179 14.2537C216.316 14.2771 216.456 14.2826 216.624 14.271C216.709 14.2659 216.801 14.2549 216.905 14.2431L217.076 14.2231C217.137 14.2168 217.203 14.2073 217.28 14.1984V14.1982ZM162.201 46.9613C162.188 46.7598 162.163 46.5612 162.133 46.3638C162.105 46.1669 162.069 45.971 162.031 45.7757C161.952 45.3864 161.854 45.0015 161.741 44.6209C161.684 44.4306 161.624 44.2407 161.558 44.0535C161.495 43.8648 161.424 43.679 161.352 43.4933C161.28 43.3076 161.2 43.1251 161.12 42.942C161.08 42.8505 161.036 42.7607 160.993 42.6698C160.949 42.5788 160.909 42.4935 160.856 42.393C160.755 42.2061 160.648 42.0305 160.536 41.8597C160.421 41.6912 160.305 41.5267 160.185 41.368C159.945 41.0507 159.698 40.7472 159.453 40.4487C159.207 40.1497 158.965 39.854 158.739 39.5466C158.513 39.2379 158.305 38.9189 158.144 38.5501C158.126 38.7515 158.145 38.9573 158.184 39.1588C158.221 39.3607 158.281 39.5582 158.35 39.7507C158.49 40.1356 158.676 40.4977 158.872 40.8448C159.069 41.1925 159.282 41.5239 159.488 41.8497C159.591 42.0132 159.695 42.1727 159.791 42.334C159.89 42.4936 159.984 42.653 160.067 42.8117C160.107 42.8842 160.152 42.9751 160.195 43.0593L160.322 43.3172C160.41 43.488 160.492 43.6613 160.578 43.8339L161.089 44.8754C161.262 45.2236 161.436 45.5736 161.618 45.9216C161.711 46.0957 161.802 46.2696 161.899 46.4433C161.995 46.6167 162.093 46.7903 162.201 46.9617L162.201 46.9613ZM169.572 25.573C169.516 25.857 169.487 26.1454 169.476 26.4362C169.463 26.7268 169.471 27.0187 169.493 27.3105C169.518 27.6024 169.558 27.8935 169.616 28.1832C169.643 28.3284 169.677 28.4716 169.715 28.6151C169.734 28.687 169.754 28.7585 169.774 28.8299L169.833 29.0322C169.867 29.1546 169.899 29.2866 169.926 29.4162C169.953 29.5468 169.979 29.6784 170.001 29.8123C170.044 30.0797 170.082 30.3512 170.116 30.6297C170.15 30.9071 170.186 31.1898 170.229 31.4768C170.24 31.5488 170.252 31.6207 170.264 31.6927L170.3 31.9013C170.32 32.0247 170.337 32.1546 170.348 32.2824C170.442 33.3141 170.264 34.3931 170.006 35.4683C169.877 36.0078 169.726 36.549 169.576 37.0959C169.502 37.3691 169.425 37.6437 169.354 37.9211C169.282 38.1977 169.213 38.4768 169.156 38.7603C169.317 38.5198 169.467 38.2754 169.613 38.0287C169.76 37.7821 169.9 37.5316 170.035 37.2783C170.305 36.7705 170.551 36.2472 170.761 35.7038C170.813 35.5674 170.863 35.4304 170.911 35.2914C170.958 35.1528 171.001 35.0124 171.043 34.8713C171.128 34.5889 171.195 34.2993 171.251 34.0058C171.362 33.4184 171.407 32.8056 171.35 32.1897C171.335 32.035 171.315 31.8839 171.287 31.7277L171.209 31.3141C171.158 31.0415 171.112 30.7624 171.057 30.48C171.001 30.1978 170.944 29.9105 170.865 29.6236C170.826 29.4796 170.786 29.3357 170.737 29.1927C170.688 29.0487 170.636 28.9099 170.575 28.7648C170.559 28.727 170.546 28.6984 170.531 28.6643L170.519 28.6375L170.508 28.6141L170.487 28.5683C170.458 28.5064 170.431 28.4439 170.404 28.3814C170.35 28.2564 170.299 28.1293 170.249 28.0014C170.15 27.7455 170.059 27.4844 169.977 27.2187C169.894 26.9531 169.821 26.6833 169.753 26.4091C169.686 26.1345 169.628 25.8562 169.573 25.5727L169.572 25.573ZM192.003 27.023C191.889 27.3891 191.86 27.7864 191.884 28.1759C191.907 28.5671 191.981 28.9531 192.078 29.3307C192.276 30.0863 192.573 30.805 192.896 31.5014C193.218 32.1981 193.578 32.8699 193.925 33.5362C194.097 33.8691 194.271 34.1983 194.426 34.5291C194.506 34.6933 194.581 34.8572 194.649 35.0208C194.683 35.1024 194.715 35.1838 194.744 35.264C194.759 35.3047 194.773 35.3444 194.786 35.3846L194.828 35.513C194.944 35.8678 195.057 36.2271 195.169 36.587L195.515 37.6695C195.755 38.391 196.004 39.1169 196.317 39.8298C196.357 39.9197 196.394 40.0057 196.439 40.0983L196.473 40.1673C196.486 40.1925 196.497 40.2166 196.51 40.2394C196.534 40.2856 196.559 40.3315 196.586 40.3768C196.694 40.5568 196.815 40.7287 196.948 40.8883C197.217 41.2077 197.531 41.4676 197.847 41.693C198.162 41.92 198.48 42.1205 198.783 42.3395C199.086 42.5587 199.377 42.7959 199.648 43.0671C199.472 42.7275 199.243 42.4087 198.985 42.1192C198.727 41.828 198.446 41.5624 198.186 41.2974C197.926 41.0324 197.688 40.7651 197.506 40.4743C197.413 40.3303 197.333 40.181 197.265 40.0251C197.249 39.9862 197.232 39.947 197.216 39.9079C197.208 39.8878 197.2 39.869 197.194 39.8505L197.171 39.7897C197.142 39.7082 197.11 39.6179 197.08 39.532C196.963 39.1827 196.85 38.8289 196.746 38.4701C196.64 38.1126 196.535 37.752 196.434 37.3888L196.12 36.2986C196.012 35.9342 195.901 35.5704 195.785 35.2044L195.763 35.1368L195.738 35.0632C195.721 35.0136 195.704 34.9644 195.685 34.9165C195.649 34.8194 195.61 34.7251 195.571 34.6325C195.491 34.4467 195.406 34.2681 195.319 34.0924C195.14 33.7437 194.954 33.4067 194.761 33.0763C194.568 32.7472 194.375 32.4209 194.177 32.099L193.886 31.6156C193.788 31.455 193.692 31.2943 193.597 31.133C193.216 30.4897 192.849 29.8426 192.546 29.1685C192.395 28.8315 192.262 28.4867 192.162 28.1307C192.064 27.7741 191.997 27.4054 192.003 27.0231L192.003 27.023ZM146.007 42.6736C146.196 42.3421 146.373 42.0028 146.54 41.6598C146.72 41.2876 146.89 40.9105 147.051 40.5294C147.221 40.1264 147.38 39.7196 147.531 39.3096C147.688 38.8861 147.834 38.4593 147.973 38.0296C148.113 37.5945 148.244 37.1569 148.367 36.7164C148.488 36.2794 148.601 35.8398 148.705 35.3984C148.805 34.9688 148.897 34.5368 148.977 34.1029C149.538 31.0967 152.503 26.5845 154.38 23.9567C154.399 23.811 154.419 23.667 154.438 23.5265C154.626 22.1137 154.927 20.7139 155.358 19.3551C156.898 14.5039 160.257 10.484 165.3 9.10734C173.679 6.82102 180.101 6.90582 183.919 6.99061C185.041 7.01571 185.939 7.04024 186.595 7.00506C189.481 6.84925 195.799 4.35758 195.799 4.35758C195.799 4.35758 197.593 0.697462 198.764 0.0743065C199.934 -0.548278 209.166 2.94605 209.166 2.94605C209.166 2.94605 209.21 2.93759 209.29 2.92371C209.49 3.23495 209.711 3.52281 209.931 3.80744C210.199 4.15005 210.471 4.48326 210.727 4.81856C210.982 5.1549 211.221 5.49362 211.415 5.85857C211.513 6.04081 211.599 6.23066 211.673 6.42916C211.749 6.62841 211.808 6.83708 211.869 7.05573C211.988 6.61834 211.959 6.13807 211.821 5.69325C211.682 5.24692 211.445 4.84128 211.171 4.48145C210.897 4.11973 210.584 3.79898 210.25 3.50551C209.997 3.28648 209.735 3.08019 209.452 2.89642C210.993 2.64593 218.343 1.66447 220.712 5.28267C223.365 9.33275 223.677 9.64418 224.301 11.6688C224.925 13.6943 232.727 21.6382 229.918 32.2302C229.866 32.4278 229.811 32.6203 229.756 32.8095C234.208 36.3603 237.989 35.9056 238 36.7519C238.01 37.5989 231.472 36.5366 228.943 35.0419C225.616 42.4989 219.122 40.8323 217.436 35.5015C215.563 29.5829 219.932 28.3365 219.152 26.9349C219.148 26.9277 217.67 26.7296 217.511 26.652C217.002 26.4038 216.59 26.0092 216.283 25.5372C215.996 25.0946 215.933 24.5653 215.695 24.1033C215.438 23.6045 215.17 23.5782 214.648 23.4605C213.923 23.2964 212.717 23.0503 212.18 23.7474C211.4 24.76 207.89 25.4607 207.188 27.018C206.486 28.5757 208.28 36.9077 208.358 39.0881C208.436 41.2686 210.776 45.24 211.4 48.1993C212.024 51.1581 211.868 54.8964 212.336 56.3761C212.804 57.8553 214.052 59.2573 214.052 60.3476C214.052 61.0729 213.882 62.0041 213.271 62.4767C212.661 62.9487 211.691 62.8266 210.966 62.8193C209.891 62.8087 208.816 62.7724 207.742 62.7201C207.163 62.6921 206.027 62.7908 205.664 62.2407C205.444 61.9048 205.235 61.088 205.195 60.6985C205.124 60.02 205.43 59.2121 205.652 58.5833C205.945 57.7513 206.583 56.876 206.53 55.9704C206.489 55.2768 206.397 54.5873 206.289 53.9016C206.135 52.9268 206.019 51.8657 205.706 50.9249C205.628 50.691 203.834 47.1091 199.778 43.6047C199.778 43.6047 197.984 48.4331 197.593 49.3672C197.144 50.4446 196.832 51.59 196.479 52.7009C196.056 54.0282 195.312 57.3708 195.729 58.7697C195.904 59.36 196.122 60.0411 196.538 60.4975C197.138 61.1576 197.341 62.9999 195.955 62.9999C194.708 62.9543 193.46 62.9085 192.214 62.8634C191.484 62.8366 190.753 62.812 190.024 62.7829C189.039 62.7439 188.719 61.9906 188.761 61.0416C188.794 60.3062 189.322 59.6094 189.534 58.9142C189.664 58.4856 189.776 58.0604 189.865 57.6191C190.066 56.6233 190.238 54.0594 190.412 53.059C190.864 50.4573 191.294 47.8516 191.793 45.2584C192.184 43.2196 192.46 40.898 193.382 39.0105C194.863 35.973 192.679 37.6346 192.133 37.9722C191.175 38.5642 189.421 38.5815 188.345 38.7578C185.667 39.1975 182.966 39.5177 180.258 39.6957C178.088 39.8385 175.905 39.8921 173.732 39.7638C172.724 39.704 171.717 39.6053 170.72 39.4397C170.025 39.3236 169.349 38.9715 168.856 39.5524C168.44 40.0434 168.299 40.5762 168.323 41.2156C168.355 42.0273 168.45 42.8206 168.531 43.6532C168.775 46.1333 168.965 48.6709 169.206 51.1358C169.298 52.0738 169.332 55.0877 169.621 55.9844C169.88 56.7889 170.38 57.5166 170.652 58.3323C170.986 59.3315 171.689 60.1416 171.547 61.2537C171.398 62.4232 170.24 62.7936 169.171 62.6514C168.348 62.5424 167.488 62.6491 166.654 62.6748C165.983 62.6953 165.311 62.7127 164.639 62.7256C164.198 62.7339 163.588 62.8981 163.235 62.6011C162.366 61.8719 162.851 60.1946 163.274 59.4248C163.95 58.1928 163.359 56.516 163.188 55.2273C163.048 54.1778 162.949 51.0883 162.649 50.0679C162.258 48.7446 162.098 47.5761 162.098 47.5761C161.018 49.0841 159.167 53.7877 158.174 55.3551C157.556 56.3291 157.209 57.035 157.158 58.2089C157.107 59.3652 157.06 60.9473 156.27 61.8769C154.842 63.5553 153.346 60.6651 152.663 59.7154C152.054 58.8678 151.304 58.0041 150.794 57.1003C150.421 56.4381 150.587 55.6681 150.86 54.9873C151.011 54.6114 151.176 54.3596 151.469 54.0941C152.102 53.5195 152.729 53.0882 153.291 52.4332C153.89 51.7334 154.477 51.0232 155.043 50.2961C156.001 49.0666 158.447 44.0919 158.514 42.437C158.545 41.6642 158.254 40.8336 158.054 40.0985C157.698 38.7876 157.287 37.4908 156.875 36.1957C156.421 34.7663 155.955 33.3402 155.504 31.909C155.297 31.2535 155.001 30.5655 154.967 29.8775C154.926 29.0557 154.622 28.4626 154.398 27.668C154.359 27.5296 154.327 27.388 154.301 27.2434C152.956 28.8091 151.689 30.4712 150.912 32.3391C150.262 33.9042 150.079 35.6829 149.562 37.3011C149.134 38.6433 148.574 39.9489 147.844 41.1569C147.724 41.3556 147.6 41.5519 147.471 41.7456C147.215 42.1329 146.941 42.5083 146.646 42.8665C146.507 43.0356 146.302 43.3258 146.094 43.412C145.966 43.4662 145.709 43.3451 145.708 43.1856C145.707 43.0528 145.939 42.7929 146.007 42.6735L146.007 42.6736Z" fill="#9C918B" style="fill:#9C918B;fill:color(display-p3 0.6118 0.5686 0.5451);fill-opacity:1;"/>
<path id="Vector_2" d="M1.56917 33.3388C3.47597 31.1644 6.21324 29.6691 8.90099 28.696C10.562 28.0954 12.2973 27.6895 14.0575 27.5238C14.8995 27.4445 15.9013 27.3078 16.7337 27.4927C17.5566 27.6755 18.2386 27.6276 19.0958 27.6276C20.4253 27.6276 21.6807 27.2645 22.974 26.9676C24.0504 26.721 25.1247 26.4654 26.1952 26.1898C27.2296 25.9236 28.1324 25.6011 29.1421 25.2508C33.0166 23.905 38.7598 24.6214 40.6779 28.7704C41.3657 30.2594 42.1523 31.7814 42.5409 33.369C43.0876 35.6075 44.5753 37.5569 45.6344 39.5688C45.6344 39.5688 47.0917 41.2649 48.7908 39.5688C50.4899 37.8727 54.1988 33.2349 56.9037 38.1154C57.3342 38.8937 57.6561 39.5907 56.9723 40.3243C56.3227 41.0191 55.3399 41.266 54.4941 40.88C53.9283 40.6201 53.5454 39.9539 52.9339 39.7785C52.2444 39.5806 51.9414 40.3996 51.5204 40.8661C50.4728 42.0233 48.9336 43.5413 47.2307 43.4109C45.4249 43.2718 43.5904 42.9439 42.019 41.9993C41.0932 41.443 40.3846 40.7098 39.7237 39.8679C39.2989 39.3273 38.1673 38.3894 37.4131 38.8553C37.0264 39.0945 37.2645 39.6559 37.2322 40.0359C37.1597 40.8354 36.5273 40.2534 36.175 40.033C35.6587 39.7105 34.9539 39.5203 34.5406 39.0495C34.1596 38.6159 32.4777 39.512 32.091 39.6715C31.7214 39.8239 31.1576 39.951 30.8832 40.2344C30.4889 40.6435 30.1556 41.6728 30.0145 42.2168C29.7251 43.3187 29.5936 44.1232 29.9536 45.1818C30.2679 46.1034 30.3651 47.1535 30.5498 48.1093C30.8203 49.5085 31.2279 50.9661 31.3155 52.3926C31.3823 53.4298 31.4108 54.47 31.4508 55.5083C31.5004 56.7618 31.4108 58.0151 31.7613 59.2365C31.9042 59.7377 32.1557 60.0383 32.4985 60.4445C32.7995 60.8005 33.1747 61.2356 33.2548 61.7121C33.5043 63.2091 31.4737 62.6627 30.5937 62.6153C29.7441 62.5697 27.8126 62.8803 27.3382 62.0072C26.8677 61.1388 27.2125 59.6231 27.2106 58.646C27.2068 57.6049 27.1743 56.5628 27.0982 55.5245C27.0201 54.47 26.9039 53.4075 26.66 52.377C26.561 51.9642 26.4467 51.549 26.2752 51.1595C26.2257 51.047 25.7381 50.3711 25.7514 50.3159C25.4275 51.6059 25.0999 52.8948 24.7685 54.183C24.4771 55.3257 24.0313 56.7592 23.7817 57.9135C23.6617 58.4673 23.5741 59.0383 23.6008 59.6069C23.6142 59.8624 23.6275 60.1403 23.7361 60.3746C23.8199 60.5592 24.0886 60.6959 24.0886 60.9296C24.0886 61.3854 24.1704 62.0368 23.6809 62.3034C23.2085 62.5616 22.3341 62.2359 21.8446 62.1354C21.1054 61.9836 20.3511 61.9211 19.6196 61.7246C18.8767 61.5244 18.8043 60.8525 18.991 60.0983C19.1187 59.5754 19.5206 59.1883 19.7073 58.6929C19.8882 58.2113 19.8254 57.6814 19.9282 57.1757C20.1511 56.0681 20.3683 54.6236 20.5682 53.5112C20.7663 52.4198 20.9569 51.3255 21.094 50.2248C21.1684 49.6445 21.3512 48.8695 21.176 48.2911C20.9817 47.6538 18.6882 48.1469 18.2824 48.1988C17.3586 48.3172 16.4347 48.4583 15.5128 48.5877C14.7165 48.6988 13.8861 48.5314 13.5412 49.3701C13.1927 50.212 12.7773 50.9613 12.3164 51.7635C11.8535 52.567 11.3983 54.608 11.0097 55.4504C10.7564 56.0011 10.682 56.6166 10.463 57.1499C10.2725 57.612 10.0515 58.099 9.94295 58.5878C9.78668 59.2931 10.0344 59.894 10.2039 60.5752C10.3316 61.0858 9.97723 61.7894 9.40378 61.7224C9.03621 61.6795 8.4838 61.0913 8.20565 60.8708C7.47984 60.2952 6.80554 59.6623 6.09497 59.0709C5.78263 58.8115 5.57303 57.9288 6.09497 57.1498C6.50834 56.5295 8.73891 51.8132 9.2857 49.0289C8.29706 48.953 7.48365 48.7477 6.97895 48.3426C6.97895 48.3426 6.14648 49.2253 5.62646 50.4192C5.2226 51.3443 5.2207 52.5206 5.15214 53.5093C5.06253 54.7708 4.97311 57.4053 5.15785 58.6556C5.25308 59.3019 5.63598 59.7052 5.97698 60.2236C6.25314 60.6411 6.81706 61.1675 6.87601 61.6644C7.02466 62.8811 5.37877 62.6759 4.66258 62.5586C3.6968 62.4 1.47756 62.7221 1.09847 61.4099C0.991815 61.0386 1.17094 60.2665 1.17284 59.8468C1.17474 59.4529 1.29473 59.1267 1.37472 58.7482C1.58422 57.7635 1.51184 56.6728 1.51565 55.6694C1.52518 53.8825 1.59764 50.7133 1.1576 48.9653C0.582344 46.6811 -1.3435 36.6609 1.56907 33.3383L1.56917 33.3388ZM7.08179 48.135C7.18283 48.0848 7.27986 48.0273 7.37518 47.9685C7.47041 47.9085 7.56373 47.8447 7.65515 47.7796C7.83989 47.6477 8.01329 47.5023 8.18089 47.3494C8.51618 47.0419 8.81709 46.6994 9.09144 46.3362C9.63613 45.6087 10.0686 44.8018 10.4057 43.9621C10.7429 43.1213 10.9848 42.2437 11.1201 41.3508C11.2534 40.4594 11.2896 39.546 11.143 38.6606C11.0572 39.551 10.901 40.4153 10.6895 41.265C10.4781 42.1143 10.2095 42.9462 9.88762 43.7552C9.56376 44.5631 9.18466 45.3485 8.72939 46.0901C8.27221 46.8317 7.74266 47.5292 7.0817 48.135H7.08179ZM27.1553 27.5239C26.8868 27.4954 26.6144 27.4899 26.3419 27.5066C26.0676 27.5256 25.7915 27.5724 25.5228 27.6534C25.2542 27.7326 24.9952 27.8491 24.7494 27.9904C24.5056 28.1316 24.277 28.2994 24.0618 28.4774C23.8485 28.656 23.6484 28.847 23.4542 29.0388C23.355 29.1349 23.2618 29.2324 23.1665 29.3299L23.0255 29.4762C22.9816 29.5226 22.9283 29.5818 22.8979 29.6079C22.8198 29.6782 22.7188 29.7512 22.616 29.8244C22.513 29.898 22.4008 29.9717 22.2883 30.0476C22.1759 30.1241 22.0617 30.2033 21.9454 30.2897C21.8292 30.3762 21.713 30.4703 21.5988 30.5871C21.5416 30.6457 21.4844 30.7092 21.4292 30.7855C21.374 30.8632 21.3224 30.9469 21.2805 31.064L21.271 31.0874L21.2596 31.126C21.2501 31.1545 21.2463 31.1744 21.2386 31.2001C21.2272 31.2481 21.2196 31.2979 21.2139 31.3476C21.2024 31.4475 21.2024 31.5483 21.2139 31.6454C21.2367 31.8406 21.3034 32.0154 21.3778 32.1666C21.4539 32.319 21.5435 32.4505 21.633 32.5729C21.8158 32.8155 22.0063 33.0209 22.1797 33.215C22.2235 33.2629 22.2654 33.3111 22.3034 33.3579L22.4311 33.5096C22.5111 33.6084 22.5931 33.7104 22.6749 33.8132C22.9969 34.2249 23.3054 34.649 23.6006 35.0857C23.8997 35.5216 24.1892 35.9661 24.477 36.417C24.7684 36.8657 25.0598 37.3209 25.357 37.7701C25.5056 37.9939 25.6579 38.2214 25.8218 38.4486C25.9856 38.6756 26.157 38.9033 26.357 39.1208C26.557 39.3378 26.7799 39.5505 27.0561 39.7284C27.1952 39.8167 27.3475 39.8958 27.5133 39.9528C27.6809 40.0102 27.8619 40.0448 28.0428 40.0494C28.2237 40.0543 28.4047 40.0292 28.5723 39.9823C28.738 39.9348 28.8923 39.8679 29.0333 39.7893C29.1743 39.7101 29.3019 39.6207 29.4219 39.5259C29.4505 39.5031 29.4829 39.4774 29.5077 39.4551L29.5896 39.3859C29.6429 39.3395 29.6944 39.2921 29.7477 39.2442C29.9572 39.0527 30.1554 38.8435 30.3382 38.6193C30.5192 38.3944 30.6848 38.1528 30.8183 37.8933C30.9555 37.6344 31.0639 37.3605 31.1364 37.0782C31.1707 36.9376 31.1993 36.7946 31.2183 36.6518C31.2297 36.5804 31.2373 36.509 31.2431 36.4372L31.2507 36.3299L31.2545 36.2272C31.2697 35.7256 31.4127 35.2218 31.5803 34.7134C31.6641 34.4586 31.7499 34.2001 31.8183 33.9356C31.8831 33.6707 31.9326 33.4013 31.9402 33.1312C31.8145 33.6578 31.5631 34.1247 31.3211 34.6075C31.1993 34.8484 31.0831 35.0968 30.984 35.3584C30.8849 35.6195 30.8087 35.8935 30.7631 36.178L30.7479 36.2759L30.7307 36.3685C30.7193 36.4303 30.704 36.4912 30.6907 36.5514C30.6583 36.672 30.6221 36.7907 30.5783 36.9057C30.4925 37.1367 30.3821 37.3566 30.2468 37.5625C30.1116 37.7671 29.9592 37.9607 29.7858 38.1404C29.6162 38.3206 29.4277 38.4874 29.2296 38.6464C29.182 38.6862 29.1306 38.7252 29.0811 38.7636L29.0029 38.8207C28.9781 38.8401 28.9553 38.8557 28.9305 38.873C28.8353 38.9396 28.7381 38.997 28.641 39.0432C28.4468 39.1371 28.2562 39.1806 28.0829 39.165C27.9095 39.1505 27.74 39.0778 27.5666 38.9591C27.3952 38.8398 27.2295 38.6746 27.0713 38.4905C26.7571 38.1198 26.477 37.6807 26.1894 37.2289L25.3227 35.8742C25.0293 35.4224 24.7303 34.9683 24.4159 34.5211C24.0979 34.0765 23.7702 33.6358 23.4141 33.214C23.3245 33.1085 23.2331 33.0048 23.1397 32.8993L23.0025 32.7464C22.9549 32.6924 22.9054 32.6404 22.8578 32.5902C22.6673 32.3898 22.4806 32.2113 22.3301 32.0299C22.0216 31.6567 21.9358 31.3671 22.1758 31.1233C22.3149 30.9625 22.5149 30.7965 22.7205 30.6317C22.8254 30.5485 22.9319 30.4643 23.0406 30.374C23.1492 30.2829 23.2596 30.1878 23.3701 30.0654C23.433 29.9947 23.4635 29.9493 23.5092 29.8952L23.6331 29.7384L23.8826 29.4283C24.0503 29.2229 24.2197 29.0242 24.3988 28.8363C24.7531 28.459 25.1532 28.1333 25.6237 27.9135C26.0923 27.6926 26.618 27.5776 27.1552 27.524L27.1553 27.5239ZM37.2454 32.4043C37.3159 32.2881 37.3159 32.175 37.2759 32.0741C37.2359 31.9736 37.1482 31.8921 37.0455 31.8514C36.9444 31.8101 36.8302 31.8095 36.7368 31.8497C36.6416 31.891 36.5616 31.9636 36.5178 32.0929C36.6131 32.19 36.6779 32.2442 36.7273 32.2887C36.775 32.3317 36.8074 32.3568 36.8379 32.3691C36.8702 32.3813 36.9045 32.3813 36.9655 32.383C37.0284 32.3847 37.1103 32.3914 37.2455 32.4043H37.2454ZM25.3876 49.7446C25.0104 48.9061 24.5818 48.0937 24.0733 47.3193C23.8199 46.9325 23.5438 46.5577 23.2485 46.1989C23.0998 46.0192 22.9456 45.8457 22.7874 45.6743C22.6293 45.5042 22.4598 45.3395 22.3035 45.1811C21.6731 44.5407 21.0711 43.8777 20.6063 43.1256C20.374 42.7502 20.1796 42.3524 20.0368 41.9311C19.9644 41.7208 19.9073 41.5042 19.8634 41.2833C19.8405 41.1727 19.8215 41.0614 19.8082 40.9485C19.791 40.8358 19.7815 40.7221 19.772 40.607C19.7491 40.7204 19.7358 40.8346 19.7224 40.9502C19.7129 41.0657 19.7091 41.1816 19.7091 41.2985C19.7072 41.5321 19.7301 41.7665 19.7701 41.9986C19.852 42.4629 20.0119 42.9147 20.2215 43.3376C20.4329 43.7617 20.6939 44.1573 20.9797 44.5278C21.1226 44.713 21.2749 44.8909 21.4293 45.0662C21.5855 45.2391 21.7435 45.4081 21.9055 45.5735C22.0732 45.7395 22.2332 45.8918 22.3875 46.0537C22.5456 46.2134 22.6961 46.3779 22.8485 46.5442C23.1494 46.8768 23.4371 47.2215 23.7191 47.5753C24.2829 48.2812 24.8125 49.0253 25.3877 49.7446H25.3876ZM9.47434 48.8167C9.89914 48.8995 10.3316 48.9273 10.762 48.9328C11.1925 48.9368 11.623 48.9151 12.0496 48.8736C12.4782 48.8317 12.903 48.77 13.3239 48.6863C13.7449 48.6009 14.164 48.4978 14.5716 48.3494C14.1392 48.3604 13.7125 48.3918 13.2878 48.4251C12.863 48.4597 12.4401 48.4989 12.0173 48.5407L10.7487 48.6706C10.3258 48.7171 9.90286 48.7612 9.47434 48.8169V48.8167Z" fill="#9C918B" style="fill:#9C918B;fill:color(display-p3 0.6118 0.5686 0.5451);fill-opacity:1;"/>
<path id="Vector_3" d="M68.0151 45.0927C68.0398 44.9638 68.0531 44.8317 68.0632 44.6992C68.0705 44.5671 68.0733 44.4342 68.071 44.3014C68.0684 44.036 68.0453 43.7709 68.0146 43.5081C67.9502 42.9815 67.8464 42.462 67.7262 41.9486C67.6071 41.4352 67.4659 40.9285 67.3248 40.4254C67.2523 40.1744 67.1811 39.9236 67.1132 39.6747C67.0422 39.4177 66.9621 39.1615 66.8767 38.9121C66.5342 37.9129 66.1421 36.951 65.8241 35.9672C65.6621 35.4756 65.5193 34.9803 65.4202 34.4757C65.3231 33.9714 65.2659 33.4558 65.3421 32.9342C65.2925 33.0563 65.2563 33.184 65.2259 33.3136C65.1973 33.4437 65.1783 33.5758 65.1649 33.7085C65.1364 33.9742 65.1364 34.2425 65.1516 34.5093C65.1859 35.0431 65.283 35.5688 65.4049 36.0844C65.6525 37.116 66.0144 38.1087 66.3478 39.0901C66.4297 39.3361 66.511 39.5778 66.5804 39.8249C66.6543 40.0793 66.7341 40.3293 66.8135 40.5794L67.2981 42.0669C67.4563 42.5622 67.6087 43.0577 67.74 43.5593C67.8698 44.0615 67.9832 44.5676 68.015 45.0926L68.0151 45.0927ZM55.2653 53.3479C56.5492 52.3855 57.5491 50.624 58.4807 49.3508C59.9608 47.3316 61.5399 45.3586 62.3476 42.9685C62.7552 41.7588 63.3419 40.6268 63.3991 39.3507C63.4944 37.1875 64.4696 35.1332 64.4696 32.956C64.4696 32.3049 64.5687 31.6355 64.4658 30.9881C64.0696 28.4903 63.5687 26.0034 63.3572 23.4797C63.3895 24.7435 62.7438 25.9204 62.1608 27.0016C61.5532 28.1349 61.0446 29.2836 60.3798 30.342C59.7074 31.4127 59.0311 32.4478 58.4521 33.5474C58.0158 34.375 57.7929 35.3233 57.25 36.0962C56.5986 37.0213 54.9128 39.1833 54.2918 40.158C53.785 40.9547 53.2593 41.7042 52.6822 42.4551C52.4974 42.6943 52.3792 42.9545 52.2116 43.2C51.9659 43.5609 51.6078 43.841 51.5144 44.2917C50.903 44.365 51.2497 43.8839 51.3963 43.5999C51.545 43.3155 51.6934 43.0304 51.8421 42.7445C52.2631 41.9271 52.6841 41.1087 53.1012 40.2885C54.5851 37.3749 57.0881 33.1511 58.4901 30.1981C59.5358 27.9957 60.7797 25.7109 61.4007 23.3392C61.7607 21.9654 62.3855 20.7464 62.9246 19.4463C63.5151 18.0219 64.1419 16.4714 65.0905 15.2646C66.1153 13.9636 67.2566 12.8286 68.4397 11.6726C70.5451 9.61365 72.7957 7.64741 75.2871 6.06513C76.9522 5.00724 78.9238 3.92264 80.955 3.92264C87.0914 3.92264 89.7955 4.85714 93.8518 5.68744C97.9082 6.51831 106.125 4.13007 107.582 3.92264C109.037 3.71502 120.791 5.3761 121.727 5.89544C122.663 6.4144 124.327 6.10307 124.327 6.10307C124.327 6.10307 132.128 7.34881 133.064 9.11427C134 10.8796 134.833 13.5788 135.04 14.6171C135.248 15.6556 136.288 20.8473 136.496 22.1974C136.704 23.547 138.473 29.5696 137.953 33.9305C137.432 38.2914 138.369 41.9258 140.241 42.0297C142.113 42.1335 143.166 39.0184 145.708 37.1492C148.25 35.28 150.953 38.3957 150.953 39.3303C150.953 40.1221 150.92 40.9662 150.677 41.7262C150.366 42.6964 149.32 42.8354 148.437 42.7762C147.215 42.6935 146.345 42.1341 145.233 42.9125C144.109 43.699 143.574 45.2034 142.217 45.7679C140.968 46.2869 133.48 48.3635 132.128 34.3981C131.828 33.9087 131.528 33.4199 131.228 32.9306C130.963 32.4977 129.285 29.5696 129.512 32.996C128.672 33.1142 127.959 31.4515 127.251 31.0649C126.318 30.5559 125.355 30.2247 124.443 29.7369C124.003 29.5021 123.496 29.2627 123.132 28.9893C122.79 28.7328 122.485 28.3823 122.036 28.4275C121.536 28.4783 121.147 28.9498 120.638 28.9993C120.245 29.0379 119.824 28.9358 119.543 28.6857C119.114 28.3049 118.787 26.9186 118.301 26.9979C118.275 26.8066 118.24 26.6163 118.196 26.4273C118.153 26.2382 118.104 26.049 118.042 25.8638C117.921 25.4927 117.769 25.1295 117.602 24.7781C117.434 24.4271 117.256 24.0857 117.09 23.7442C116.927 23.4023 116.773 23.0607 116.643 22.7114C116.61 22.6239 116.579 22.5363 116.548 22.448L116.503 22.3176L116.458 22.1813C116.391 21.9883 116.314 21.7974 116.227 21.6116C116.054 21.2395 115.837 20.8881 115.593 20.5611C115.106 19.9043 114.511 19.3541 113.909 18.8498C113.302 18.3488 112.681 17.8897 112.091 17.4198C111.943 17.3022 111.798 17.1839 111.656 17.0639L111.444 16.8816L111.332 16.7844L111.217 16.6874C110.913 16.433 110.61 16.1974 110.313 15.958C110.015 15.7192 109.721 15.4805 109.437 15.236C109.152 14.9927 108.873 14.7455 108.612 14.489C108.352 14.2323 108.106 13.9668 107.896 13.691C107.685 13.4172 107.507 13.1299 107.415 12.8558C107.392 12.7877 107.375 12.7208 107.363 12.6567C107.361 12.6405 107.358 12.6242 107.356 12.6086L107.354 12.5902L107.353 12.5864L107.352 12.5774L107.35 12.5595C107.348 12.5356 107.347 12.5088 107.348 12.4802C107.35 12.3659 107.38 12.2231 107.429 12.0747C107.527 11.7756 107.69 11.4575 107.874 11.1473C108.245 10.5225 108.7 9.91434 109.149 9.29109C109.376 8.97909 109.605 8.66451 109.827 8.33311C109.938 8.16742 110.047 7.99725 110.151 7.81463C110.203 7.72317 110.253 7.62887 110.302 7.52905C110.326 7.47819 110.349 7.42857 110.373 7.37L110.424 7.24328C110.557 6.9231 110.724 6.62127 110.93 6.36288C111.133 6.10354 111.375 5.88746 111.652 5.74258C111.791 5.66995 111.938 5.61471 112.092 5.57669C112.13 5.56718 112.169 5.55824 112.208 5.55159L112.263 5.54151L112.328 5.53258C112.417 5.52098 112.505 5.51204 112.594 5.50539C112.95 5.47744 113.308 5.48961 113.665 5.53429C114.379 5.62574 115.085 5.87187 115.788 6.16144C115.965 6.23273 116.141 6.3066 116.319 6.38123L116.584 6.4935C116.669 6.52905 116.752 6.56708 116.837 6.6072C117.175 6.76795 117.512 6.95809 117.857 7.13339C118.201 7.31021 118.551 7.4838 118.916 7.6244C119.099 7.69247 119.286 7.75283 119.477 7.79466C119.668 7.83706 119.865 7.86102 120.057 7.84543C119.672 7.8074 119.32 7.64902 118.987 7.46868C118.652 7.28901 118.334 7.07977 118.017 6.86397C117.701 6.64741 117.385 6.42752 117.049 6.21895C116.965 6.16704 116.877 6.11628 116.788 6.06894L116.535 5.93157C116.365 5.84011 116.194 5.74809 116.022 5.65835C115.676 5.47962 115.321 5.30784 114.95 5.1583C114.579 5.00981 114.191 4.88699 113.788 4.80447C113.387 4.72034 112.972 4.68383 112.559 4.68896C112.457 4.69011 112.353 4.6941 112.25 4.70075L112.171 4.70684C112.142 4.70969 112.111 4.71235 112.084 4.71634C112.028 4.72243 111.972 4.73136 111.916 4.74144C111.693 4.78213 111.473 4.852 111.265 4.94735C110.849 5.13691 110.49 5.42838 110.203 5.75902C109.916 6.09166 109.694 6.46175 109.516 6.84372L109.454 6.98166C109.441 7.0117 109.422 7.04859 109.404 7.08443C109.366 7.15573 109.324 7.2295 109.278 7.30422C109.187 7.45252 109.086 7.60425 108.98 7.75493C108.767 8.05742 108.537 8.35983 108.305 8.66499C107.839 9.27578 107.364 9.89514 106.939 10.5859C106.729 10.9341 106.526 11.2979 106.379 11.7281C106.308 11.9441 106.249 12.1796 106.24 12.4496C106.238 12.5171 106.24 12.5864 106.246 12.6581L106.25 12.699L106.256 12.7525C106.26 12.7845 106.265 12.8156 106.27 12.8468C106.292 12.9718 106.323 13.0911 106.36 13.2051C106.514 13.6615 106.754 14.0326 107.008 14.3689C107.267 14.7027 107.547 15.0005 107.836 15.2817C108.412 15.8431 109.028 16.3334 109.642 16.8071L110.547 17.5074L110.656 17.5939L110.764 17.682C110.836 17.7418 110.918 17.8087 110.995 17.8689C111.15 17.9927 111.306 18.1121 111.463 18.2298C112.09 18.7003 112.727 19.1281 113.326 19.5823C113.926 20.0332 114.489 20.5124 114.957 21.0626C115.191 21.3377 115.397 21.6322 115.574 21.9441C115.662 22.1005 115.741 22.2615 115.812 22.4268L115.87 22.5602L115.931 22.6969C115.972 22.7873 116.016 22.8765 116.06 22.9652C116.236 23.32 116.432 23.6637 116.643 23.9931C116.852 24.3232 117.071 24.6391 117.279 24.9581C117.488 25.2769 117.687 25.5988 117.856 25.9396C117.94 26.1098 118.022 26.2823 118.096 26.4592C118.169 26.6359 118.236 26.8156 118.3 26.9979C118.176 27.0183 118.041 27.1351 117.89 27.3903C117.417 28.1954 117.395 29.2919 117.41 30.1923C117.451 32.6334 117.888 35.0704 118.14 37.4941C118.372 39.7188 118.322 41.9599 118.51 44.1874C118.679 46.1729 119.327 48.1464 119.386 50.1288C119.422 51.3111 119.796 52.489 119.903 53.6695C119.998 54.7118 120.206 56.0352 120.544 57.0245C120.834 57.8759 121.406 58.2318 122.209 58.652C122.853 58.989 123.146 59.1224 123.262 59.8376C123.351 60.3811 123.601 60.9067 123.302 61.3811C122.593 62.5091 121.314 62.3792 120.164 62.6096C119.363 62.7702 118.521 62.8199 117.657 62.8199C116.864 62.8199 115.256 62.8696 114.735 62.1492C114.319 61.5734 114.364 60.5535 114.538 59.9012C114.661 59.4419 114.987 59.0636 115.11 58.6414C115.257 58.1353 114.918 57.5472 114.821 57.0568C114.617 56.0179 114.363 54.7095 114.092 53.6885C113.685 52.152 113.37 50.5836 112.845 49.0916C112.709 48.7038 112.686 48.3093 112.626 47.8965C112.316 45.7874 110.87 43.7241 109.78 41.9388C109.316 41.1783 108.977 40.2578 108.356 39.5776C108.127 39.3259 107.577 38.7836 107.18 38.8946C106.87 38.9812 106.589 39.684 106.424 39.9502C105.467 41.492 104.192 43.2077 103.733 44.9869C103.317 46.5985 99.7801 54.1785 99.2604 55.9438C99.0426 56.6821 98.6435 57.4844 98.6777 58.2639C98.7152 59.1198 99.2315 59.831 99.6372 60.5508C99.935 61.0797 100.198 61.8613 99.8082 62.412C99.2683 63.1754 97.5905 62.777 96.8049 62.8484C95.7798 62.9416 94.7594 62.8764 93.7477 62.6928C92.6825 62.4996 91.0533 62.1135 90.89 60.8337C90.7599 59.8148 91.4835 58.773 92.084 58.0197C92.502 57.4958 96.3482 48.363 96.2443 46.4944C96.1666 45.1035 96.1185 43.6969 96.1251 42.3036C96.1308 41.1587 96.3398 40.1092 95.9688 38.966C95.5752 37.7514 93.9751 38.4176 92.981 38.4265C91.6659 38.4389 90.3508 38.4495 89.0352 38.459C87.1097 38.4735 85.184 38.4851 83.2585 38.4924C81.8601 38.4975 80.0537 37.9724 78.8906 39.007C77.6277 40.1301 76.1354 42.0075 75.8034 43.6913C75.5285 45.0847 74.9261 46.4772 74.8416 47.8967C74.7627 49.2207 74.8963 51.4581 74.818 52.7869C74.7532 53.8907 74.9186 55.0121 75.1008 56.098C75.1809 56.5755 75.2479 57.0907 75.3808 57.5509C75.5453 58.1195 75.8799 58.481 76.3448 58.7979C76.7804 59.0946 77.736 59.5741 77.8343 60.1588C77.9958 61.1217 78.1059 62.2426 76.8983 62.448C75.8542 62.6254 74.7292 62.5908 73.673 62.6432C72.4673 62.7024 68.6904 63.4796 68.1064 61.8726C67.898 61.2968 68.0102 60.6229 68.2031 60.0592C68.3439 59.6486 68.6257 59.3204 68.704 58.8988C69.1008 56.7561 68.6419 53.437 68.4515 51.2733C68.3407 50.0129 68.3076 48.7441 68.1226 47.4909C68.0495 46.9932 68.1874 45.6196 67.3759 45.5765C66.8936 45.5514 66.7237 46.3946 66.5169 46.7477C65.9208 47.7643 65.355 48.7893 64.8254 49.8427C64.3226 50.8447 63.8979 51.883 63.4272 52.8996C62.772 54.3101 62.3377 55.5153 62.3377 57.0848C62.3358 57.699 62.5434 58.248 62.5453 58.8506C62.5453 59.8862 61.9414 60.5123 60.9453 60.6825C59.9795 60.8471 59.1794 59.8862 58.4861 59.296C57.2308 58.2297 55.7106 57.0865 54.7449 55.7361C54.2248 55.0093 54.4325 53.971 55.265 53.3476L55.2653 53.3479ZM121.9 28.2481C121.962 27.8387 122.061 27.4446 122.171 27.0525C122.282 26.6608 122.402 26.2708 122.52 25.8786C122.754 25.0945 122.983 24.2983 123.118 23.4697C123.15 23.2629 123.177 23.0536 123.198 22.8434C123.215 22.6323 123.227 22.4204 123.225 22.2067C123.223 21.7803 123.176 21.3464 123.052 20.929C122.93 20.5122 122.727 20.1143 122.446 19.7869C122.307 19.6233 122.15 19.4756 121.98 19.3501C121.895 19.2874 121.808 19.2289 121.718 19.175C121.627 19.123 121.536 19.0728 121.441 19.0309C121.518 19.1 121.595 19.1687 121.666 19.2418C121.739 19.3131 121.809 19.387 121.875 19.4637C122.005 19.6166 122.124 19.7773 122.223 19.9469C122.425 20.285 122.555 20.6529 122.625 21.0328C122.696 21.4133 122.713 21.8043 122.696 22.1972C122.687 22.3936 122.672 22.5912 122.648 22.788C122.627 22.9856 122.599 23.1836 122.566 23.3811C122.438 24.1729 122.251 24.9661 122.094 25.7747C122.017 26.1792 121.946 26.5877 121.902 27.0016C121.882 27.2085 121.866 27.4168 121.865 27.6254C121.863 27.7296 121.865 27.8334 121.87 27.9378C121.876 28.0416 121.884 28.1453 121.9 28.2479L121.9 28.2481ZM107.344 38.5273C107.982 38.1407 108.52 37.5989 108.972 37.0085C109.198 36.7123 109.404 36.4054 109.599 36.0958C109.697 35.9411 109.79 35.785 109.884 35.6299L110.158 35.168C110.202 35.0943 110.248 35.0239 110.295 34.9553C110.342 34.8867 110.393 34.822 110.45 34.744C110.507 34.6669 110.569 34.5765 110.619 34.4872C110.671 34.398 110.715 34.3098 110.755 34.2218C110.834 34.0455 110.904 33.8735 110.966 33.6987C111.031 33.5253 111.09 33.3519 111.147 33.1771C111.261 32.8283 111.365 32.4775 111.46 32.1238C111.554 31.77 111.642 31.414 111.711 31.0514C111.525 31.3699 111.354 31.6936 111.187 32.0187C111.02 32.3441 110.859 32.671 110.701 32.9967C110.54 33.321 110.386 33.6507 110.219 33.952C110.176 34.0263 110.135 34.0982 110.091 34.1642C110.047 34.2299 110.002 34.2879 109.947 34.3537C109.891 34.4189 109.828 34.4965 109.769 34.5752C109.71 34.6537 109.654 34.7347 109.601 34.815C109.546 34.896 109.499 34.9757 109.452 35.0526L109.308 35.2865C109.216 35.4438 109.124 35.5996 109.033 35.7568L108.5 36.6936C108.323 37.0039 108.14 37.3089 107.947 37.6124C107.754 37.9167 107.548 38.215 107.343 38.5269L107.344 38.5273ZM95.955 38.2936C96.0815 37.9281 96.1183 37.5337 96.1211 37.147C96.1223 36.7581 96.0836 36.3713 96.0227 35.9899C95.9897 35.799 95.955 35.6092 95.911 35.4213C95.8891 35.3269 95.8674 35.2333 95.8428 35.1394L95.7685 34.8655C95.6772 34.5184 95.6113 34.1537 95.5544 33.7876C95.4425 33.0539 95.371 32.3062 95.2967 31.5557C95.2218 30.8054 95.1553 30.0504 95.0487 29.2933C94.9413 30.0504 94.8898 30.8103 94.8787 31.573C94.8686 32.3358 94.9011 33.1018 95.0056 33.8673C95.0592 34.2505 95.1303 34.6316 95.242 35.015L95.4086 35.5527C95.4611 35.7306 95.5148 35.9093 95.5623 36.0889C95.6606 36.4471 95.7496 36.8087 95.821 37.174C95.8914 37.5401 95.9457 37.9095 95.9551 38.2934L95.955 38.2936ZM78.9269 38.5001C79.321 37.9532 79.6792 37.3834 80.0111 36.796C80.342 36.2081 80.6422 35.5993 80.8976 34.962C81.1468 34.3232 81.3558 33.6519 81.4385 32.9322C81.4591 32.7531 81.4721 32.5712 81.4753 32.3889C81.4776 32.2978 81.4776 32.2064 81.4738 32.1155L81.4614 31.8522C81.4519 31.6802 81.4429 31.5112 81.4284 31.3403C81.4134 31.1701 81.3961 30.9995 81.3765 30.8293C81.339 30.4883 81.2808 30.1491 81.2183 29.8104C81.1501 29.4729 81.0723 29.1364 80.9785 28.8046C80.7919 28.14 80.5459 27.4939 80.2624 26.8759C79.9775 26.2571 79.659 25.6667 79.3333 25.0842C79.0051 24.5022 78.6777 23.923 78.326 23.3401C78.4144 24.0151 78.5831 24.6735 78.7733 25.3191C78.9637 25.965 79.1806 26.595 79.3796 27.2183C79.5818 27.8416 79.7642 28.4591 79.9156 29.0835C79.9916 29.396 80.0619 29.7089 80.1222 30.0254C80.1883 30.3406 80.2384 30.6592 80.2915 30.9777C80.3174 31.138 80.3414 31.2979 80.3627 31.4589C80.3855 31.6188 80.409 31.7811 80.4292 31.9408L80.4442 32.0625L80.4554 32.1759C80.4615 32.2512 80.4676 32.3265 80.4716 32.4017C80.48 32.5524 80.4806 32.7041 80.4751 32.8564C80.4509 33.4668 80.3303 34.0968 80.1677 34.7239C80.0072 35.3528 79.8032 35.9799 79.5903 36.6081C79.3762 37.2365 79.1459 37.863 78.9269 38.5004V38.5001ZM130.432 20.6942C130.446 20.6651 130.45 20.6345 130.455 20.6021C130.457 20.5707 130.456 20.539 130.451 20.5089C130.444 20.4469 130.425 20.3895 130.401 20.3347C130.352 20.2282 130.283 20.1367 130.206 20.062C130.05 19.9129 129.862 19.8238 129.665 19.782C129.468 19.7417 129.259 19.7505 129.058 19.827C128.958 19.865 128.86 19.9219 128.775 19.999C128.692 20.0771 128.617 20.1746 128.592 20.3013C128.712 20.346 128.798 20.3861 128.877 20.4257C128.956 20.4638 129.025 20.4995 129.093 20.529C129.228 20.5893 129.354 20.63 129.486 20.6568C129.618 20.6831 129.752 20.6954 129.899 20.692C129.973 20.6909 130.05 20.6848 130.134 20.6802C130.22 20.6764 130.308 20.6664 130.433 20.6943L130.432 20.6942Z" fill="#9C918B" style="fill:#9C918B;fill:color(display-p3 0.6118 0.5686 0.5451);fill-opacity:1;"/>
</g>
</g>
</g>
<defs>
<clipPath id="clip0_6_2988">
<rect width="238" height="63" fill="white" style="fill:white;fill-opacity:1;"/>
</clipPath>
</defs>
</svg>
