<svg width="52" height="66" viewBox="0 0 52 66" fill="none" xmlns="http://www.w3.org/2000/svg">
<path fill-rule="evenodd" clip-rule="evenodd" d="M26 5.25C20.4802 5.25 15.1864 7.44274 11.2833 11.3458C7.38024 15.2489 5.1875 20.5427 5.1875 26.0625C5.1875 35.6362 10.534 44.3544 16.1834 50.8502C19.1595 54.2551 22.4458 57.3758 26 60.1719C29.5542 57.3758 32.8405 54.2551 35.8166 50.8502C41.466 44.3521 46.8125 35.6339 46.8125 26.0625C46.8125 20.5427 44.6198 15.2489 40.7167 11.3458C36.8136 7.44274 31.5198 5.25 26 5.25ZM26 63.0625L24.6726 64.9564L24.6657 64.9518L24.6472 64.9379L24.5894 64.8963C24.2569 64.6565 23.9277 64.4121 23.6019 64.1632C22.9406 63.6591 22.0063 62.9191 20.8894 61.971C17.9601 59.4823 15.2199 56.7793 12.6916 53.8842C6.7785 47.0854 0.5625 37.3036 0.5625 26.0625C0.5625 19.3161 3.24252 12.8459 8.01297 8.07547C12.7834 3.30502 19.2536 0.625 26 0.625C32.7464 0.625 39.2166 3.30502 43.987 8.07547C48.7575 12.8459 51.4375 19.3161 51.4375 26.0625C51.4375 37.3013 45.2215 47.0831 39.3084 53.8842C36.7801 56.7793 34.0399 59.4823 31.1106 61.971C29.9789 62.9332 28.8158 63.8579 27.6234 64.7437L27.4106 64.8963L27.3528 64.9379L27.3343 64.9518L27.3297 64.9541C27.3274 64.9564 27.3251 64.9564 26 63.0625ZM26 63.0625L27.3274 64.9587C26.9384 65.2314 26.475 65.3776 26 65.3776C25.525 65.3776 25.0616 65.2291 24.6726 64.9564L26 63.0625Z" fill="url(#paint0_linear_24_2729)" style=""/>
<path d="M26 5.25C20.4802 5.25 15.1864 7.44274 11.2833 11.3458C7.38024 15.2489 5.1875 20.5427 5.1875 26.0625C5.1875 35.6362 10.534 44.3544 16.1834 50.8502C19.1595 54.2551 22.4458 57.3758 26 60.1719C29.5542 57.3758 32.8405 54.2551 35.8166 50.8502C41.466 44.3521 46.8125 35.6339 46.8125 26.0625C46.8125 20.5427 44.6198 15.2489 40.7167 11.3458C36.8136 7.44274 31.5198 5.25 26 5.25Z" fill="url(#paint1_linear_24_2729)" style=""/>
<path fill-rule="evenodd" clip-rule="evenodd" d="M26 19.125C24.1601 19.125 22.3955 19.8559 21.0944 21.1569C19.7934 22.458 19.0625 24.2226 19.0625 26.0625C19.0625 27.9024 19.7934 29.667 21.0944 30.9681C22.3955 32.2691 24.1601 33 26 33C27.8399 33 29.6045 32.2691 30.9056 30.9681C32.2066 29.667 32.9375 27.9024 32.9375 26.0625C32.9375 24.2226 32.2066 22.458 30.9056 21.1569C29.6045 19.8559 27.8399 19.125 26 19.125ZM14.4375 26.0625C14.4375 22.9959 15.6557 20.055 17.8241 17.8866C19.9925 15.7182 22.9334 14.5 26 14.5C29.0666 14.5 32.0075 15.7182 34.1759 17.8866C36.3443 20.055 37.5625 22.9959 37.5625 26.0625C37.5625 29.1291 36.3443 32.07 34.1759 34.2384C32.0075 36.4068 29.0666 37.625 26 37.625C22.9334 37.625 19.9925 36.4068 17.8241 34.2384C15.6557 32.07 14.4375 29.1291 14.4375 26.0625Z" fill="white" style="fill:white;fill-opacity:1;"/>
<path d="M26 19.125C24.1601 19.125 22.3955 19.8559 21.0944 21.1569C19.7934 22.458 19.0625 24.2226 19.0625 26.0625C19.0625 27.9024 19.7934 29.667 21.0944 30.9681C22.3955 32.2691 24.1601 33 26 33C27.8399 33 29.6045 32.2691 30.9056 30.9681C32.2066 29.667 32.9375 27.9024 32.9375 26.0625C32.9375 24.2226 32.2066 22.458 30.9056 21.1569C29.6045 19.8559 27.8399 19.125 26 19.125Z" fill="white" style="fill:white;fill-opacity:1;"/>
<defs>
<linearGradient id="paint0_linear_24_2729" x1="26" y1="0.625007" x2="54.4112" y2="2.10759" gradientUnits="userSpaceOnUse">
<stop stop-color="#1FB490" style="stop-color:#1FB490;stop-color:color(display-p3 0.1216 0.7059 0.5656);stop-opacity:1;"/>
<stop offset="1" stop-color="#32BBCD" style="stop-color:#32BBCD;stop-color:color(display-p3 0.1977 0.7314 0.8042);stop-opacity:1;"/>
</linearGradient>
<linearGradient id="paint1_linear_24_2729" x1="26" y1="0.625007" x2="54.4112" y2="2.10759" gradientUnits="userSpaceOnUse">
<stop stop-color="#1FB490" style="stop-color:#1FB490;stop-color:color(display-p3 0.1216 0.7059 0.5656);stop-opacity:1;"/>
<stop offset="1" stop-color="#32BBCD" style="stop-color:#32BBCD;stop-color:color(display-p3 0.1977 0.7314 0.8042);stop-opacity:1;"/>
</linearGradient>
</defs>
</svg>
