<svg width="194" height="141" viewBox="0 0 194 141" fill="none" xmlns="http://www.w3.org/2000/svg">
<g clip-path="url(#clip0_23_2165)">
<path d="M84.4976 34.2611H98.7242V38.9996H89.4553V46.9688H91.3953C93.1198 46.9688 94.6287 47.1842 95.7064 47.615C96.7842 48.0457 97.862 48.6919 98.5087 49.5534C99.1553 50.4149 99.802 51.4919 100.018 52.5688C100.233 53.6457 100.449 54.7226 100.449 56.0149V64.8457C100.449 67.8611 99.802 70.2303 98.2931 71.9534C96.7842 73.6765 94.4131 74.538 91.1798 74.538H84.7131V34.2611H84.4976ZM89.4553 51.2765V69.1534H91.3953C92.4731 69.1534 93.1198 68.938 93.7664 68.7226C94.4131 68.5073 94.8442 68.0765 95.0598 67.4303C95.2753 66.7842 95.4909 66.3534 95.7064 65.4919V63.1226C95.7064 62.2611 95.7064 54.7226 95.4909 54.0765C95.2753 53.4303 95.0598 52.7842 94.8442 52.3534C94.4131 51.9226 93.982 51.4919 93.5509 51.4919C92.9042 51.2765 92.042 51.0611 91.3953 51.0611L89.4553 51.2765ZM135.369 79.2765V84.015H126.1V91.9842H128.04C129.764 91.9842 131.273 92.1996 132.351 92.6303C133.429 93.0611 134.506 93.7073 135.153 94.5688C135.8 95.4303 136.446 96.5073 136.662 97.5842C136.878 98.6611 137.093 99.738 137.093 101.03V109.861C137.093 112.876 136.446 115.246 134.938 116.969C133.429 118.692 131.058 119.553 127.824 119.553H121.358V79.2765H135.369ZM126.1 96.2919V114.169H128.04C129.118 114.169 129.764 113.953 130.411 113.738C131.058 113.523 131.489 113.092 131.704 112.446C131.92 111.8 132.135 111.369 132.351 110.507C132.566 109.646 132.351 109 132.351 108.138C132.351 107.276 132.351 99.738 132.135 99.0919C131.92 98.4457 131.704 97.7996 131.489 97.3688C131.058 96.938 130.626 96.5073 130.195 96.5073C129.549 96.2919 128.686 96.0765 128.04 96.0765L126.1 96.2919ZM184.084 79.2765V91.9842H185.809C193.138 91.9842 194 97.5842 194 99.3073V109.861C194 112.876 193.353 115.246 191.844 116.969C190.335 118.692 188.611 119.553 185.378 119.553H179.126V79.2765H184.084ZM184.084 96.2919V114.169H185.162C188.611 114.169 189.042 112.661 189.042 110.723V99.738C189.042 97.3688 188.395 96.2919 185.378 96.2919H184.084ZM146.578 34.2611V46.9688H147.44C155.415 46.9688 155.631 54.7226 155.631 56.0149V64.8457C155.631 67.8611 154.984 70.2303 153.475 71.9534C151.966 73.6765 150.242 74.538 147.009 74.538H141.62V34.2611H146.578ZM146.362 51.2765V69.1534H147.009C150.458 69.1534 150.458 66.3534 150.458 65.7073V54.2919C150.242 53.6457 150.026 51.2765 147.009 51.2765H146.362ZM118.771 56.4457H107.993V66.5688C107.993 68.2919 109.286 69.5842 111.011 69.5842C112.735 69.5842 114.029 68.2919 114.029 66.5688V60.538H118.986V66.5688C118.986 70.8765 115.538 74.538 111.226 74.538C106.915 74.538 103.251 70.8765 103.251 66.5688V41.7996C103.251 37.4919 106.7 33.8303 111.011 33.8303C115.322 33.8303 118.986 37.4919 118.986 41.7996L118.771 56.4457ZM114.029 51.4919V42.0149C114.029 40.2919 112.735 38.9996 111.011 38.9996C109.286 38.9996 107.993 40.2919 107.993 42.0149V51.4919H114.029ZM117.478 101.461H106.7V111.584C106.7 113.307 107.993 114.6 109.718 114.6C111.442 114.6 112.735 113.307 112.735 111.584V105.553H117.693V111.584C117.693 115.892 114.244 119.553 109.933 119.553C105.622 119.553 101.958 115.892 101.958 111.584V86.8149C101.958 82.5073 105.406 78.8457 109.718 78.8457C114.029 78.8457 117.693 82.5073 117.693 86.8149L117.478 101.461ZM112.735 96.2919V86.8149C112.735 85.0919 111.442 83.7996 109.718 83.7996C107.993 83.7996 106.7 85.0919 106.7 86.8149V96.2919H112.735ZM155.415 101.461H144.638V111.584C144.638 113.307 145.931 114.6 147.655 114.6C149.38 114.6 150.673 113.307 150.673 111.584V105.553H155.631V111.584C155.631 115.892 152.182 119.553 147.871 119.553C143.56 119.553 139.895 115.892 139.895 111.584V86.8149C139.895 82.5073 143.344 78.8457 147.655 78.8457C151.966 78.8457 155.631 82.5073 155.631 86.8149L155.415 101.461ZM150.458 86.8149C150.458 85.0919 149.164 83.7996 147.44 83.7996C145.715 83.7996 144.422 85.0919 144.422 86.8149V96.2919H150.242V86.8149H150.458ZM123.944 34.2611C123.944 34.2611 123.298 60.538 118.771 74.3226H124.16C126.962 63.7688 128.255 46.9688 128.686 38.7842H132.351V74.3226H137.309V34.2611H123.944ZM84.4976 79.2765C84.4976 79.2765 83.8509 105.553 79.3242 119.338H84.7131C87.5153 108.784 88.8087 91.9842 89.2398 83.7996H92.9042V119.338H97.862V79.2765H84.4976ZM177.618 114.169V119.123H155.846V114.169H158.002C161.02 99.738 160.373 79.2765 160.373 79.2765H175.031V114.169H177.618ZM165.331 83.5842C165.331 90.6919 165.115 103.615 163.391 114.169H170.073V83.5842H165.331ZM162.96 34.2611H158.002V74.3226H162.96V34.2611ZM178.911 21.7688C178.911 23.7073 177.402 25.215 175.462 25.215C173.522 25.215 172.013 23.7073 172.013 21.7688H168.133C168.133 25.8611 171.366 29.0919 175.462 29.0919C179.558 29.0919 182.791 25.8611 182.791 21.7688H178.911ZM177.833 34.2611L172.444 60.3226L171.798 65.7073V34.2611H166.84V74.3226H173.306L178.695 48.0457L179.126 44.3842V74.3226H184.084V34.2611H177.833Z" fill="white" style="fill:white;fill-opacity:1;"/>
<path d="M53.2418 66.5687L52.1641 87.2456C53.4574 87.2456 54.5352 86.3841 54.7507 85.0918L59.7085 64.1995C58.8463 64.4148 57.3374 64.4148 55.3974 64.4148C54.3196 64.4148 53.2418 65.2764 53.2418 66.5687C53.2418 66.3533 53.2418 66.3533 53.2418 66.5687Z" fill="white" style="fill:white;fill-opacity:1;"/>
<path d="M34.4885 136.353C42.8952 136.569 50.8707 133.338 56.9063 127.307C62.9418 121.276 66.1752 113.522 66.1752 104.907C66.1752 95.4301 62.9418 87.6763 58.4152 81.2147L57.3374 85.5224C56.6907 88.107 54.5352 89.8301 51.9485 89.8301C50.2241 89.8301 48.7152 88.5378 48.7152 86.8148L47.853 69.3686C45.6974 67.4301 43.5418 65.2763 41.1707 63.3378C31.6863 54.7224 22.633 46.107 22.633 35.1224C22.633 31.6763 23.9263 28.6609 26.2974 26.2917C28.6685 23.9224 31.9018 22.6301 35.3507 22.8455C42.033 23.0609 47.2063 28.6609 47.2063 35.5532V56.0147C47.2063 57.9532 47.8529 59.0301 49.3618 60.3224H49.7929C55.3974 60.107 58.8463 56.0147 59.2774 50.6301C59.2774 50.1994 59.7085 49.7686 60.1396 49.7686C60.5707 49.7686 61.0018 50.1994 61.0018 50.6301C61.2174 52.9994 62.2952 55.1532 63.8041 56.8763C65.7441 54.507 66.1752 52.9994 66.1752 48.2609V35.984C66.1752 18.5378 52.3796 4.32242 35.3507 4.10704C26.9441 3.89166 18.9685 7.12242 12.933 13.1532C6.8974 19.184 3.66406 26.9378 3.66406 35.5532C3.66406 52.3532 16.5974 65.4917 28.2374 76.6917C37.9374 86.1686 47.2063 95.2147 47.2063 105.338C47.2063 112.23 41.6018 117.83 34.9196 117.83H33.6263V116.538C33.6263 89.6147 14.2263 77.3378 5.81962 72.5994C5.60406 72.384 5.38851 72.384 5.17295 72.384C4.9574 72.384 4.74184 72.384 4.52628 72.5994C4.31073 72.8147 3.87962 73.0301 3.87962 73.6763V105.122C3.87962 121.922 17.6752 136.138 34.4885 136.353Z" fill="white" style="fill:white;fill-opacity:1;"/>
<path d="M60.3556 77.5533C66.8222 86.1687 70.0556 95.2148 70.0556 105.123C70.0556 114.599 66.3911 123.43 59.7089 130.107C53.2422 136.569 44.4044 140.23 35.1356 140.23H34.4889C15.52 140.015 0 124.076 0 104.692V73.2456C0 71.3072 0.862222 69.7995 2.58667 68.9379C3.44889 68.5071 4.31111 68.2918 5.17333 68.2918C6.03556 68.2918 6.89778 68.5071 7.76 68.9379C14.8733 73.0302 36.2133 85.3071 37.5067 113.523C41.1711 112.446 43.7578 108.999 43.7578 105.338C43.7578 96.7225 35.1356 88.3225 25.8667 79.4918C13.58 67.4302 0 53.6456 0 35.3379C0 25.861 3.66445 17.0302 10.3467 10.3533C16.8133 3.89176 25.6511 0.230225 34.92 0.230225H35.3511C54.32 0.445609 69.84 16.5995 69.84 35.7687V48.261C69.84 55.3687 68.5467 56.8764 65.3133 60.9687C64.8822 61.6148 64.4511 62.0456 63.8045 62.9072L60.3556 77.5533ZM66.1756 105.123C66.1756 95.6456 62.9422 87.8918 58.4156 81.4302L57.3378 85.7379C56.6911 88.3225 54.5356 90.0456 51.9489 90.0456C50.2244 90.0456 48.7156 88.7533 48.7156 87.0302L47.8533 69.5841C45.6978 67.6456 43.5422 65.4918 41.1711 63.5533C31.4711 54.9379 22.6333 46.3225 22.6333 35.3379C22.6333 31.8918 23.9267 28.8764 26.5133 26.5071C28.8844 24.1379 32.1178 22.8456 35.5667 23.061C42.0333 23.2764 47.4222 28.8764 47.4222 35.7687V56.2302C47.4222 58.1687 48.0689 59.0302 49.5778 60.5379H50.0089C55.6133 60.3225 59.0622 56.2302 59.4933 50.8456C59.4933 50.4148 59.9244 49.9841 60.3556 49.9841C60.7867 49.9841 61.2178 50.4148 61.2178 50.8456C61.4333 53.2148 62.5111 55.3687 64.02 57.0918C65.96 54.5071 66.3911 53.2148 66.3911 48.4764V36.1995C66.3911 18.9687 52.5956 4.53792 35.5667 4.32253C26.9444 3.89176 18.9689 7.12253 12.9333 13.1533C6.89778 19.1841 3.66444 26.9379 3.66444 35.5533C3.66444 52.3533 16.5978 65.4918 28.2378 76.6918C38.1533 85.9533 47.4222 94.9995 47.4222 105.123C47.4222 112.015 41.8178 117.615 35.1356 117.615H33.8422V116.323C33.8422 89.3995 14.2267 77.1225 6.03556 72.3841C5.82 72.1687 5.60444 72.1687 5.38889 72.1687C4.95778 72.1687 4.74222 72.3841 4.74222 72.3841C4.52667 72.5995 4.09556 72.8148 4.09556 73.461V104.907C4.09556 122.138 17.8911 136.569 34.92 136.784C43.3267 136.999 51.3022 133.769 57.3378 127.738C62.9422 121.492 66.1756 113.523 66.1756 105.123ZM59.7089 64.4148C58.8467 64.4148 57.3378 64.6302 55.3978 64.6302C54.32 64.6302 53.2422 65.4918 53.2422 66.7841L52.1645 87.461C53.4578 87.461 54.5356 86.5995 54.7511 85.3072L59.7089 64.4148ZM43.5422 35.5533C43.5422 30.8148 39.8778 26.7225 35.3511 26.7225H35.1356C32.7644 26.7225 30.8244 27.5841 29.1 29.0918C27.3756 30.8148 26.5133 32.9687 26.5133 35.3379C26.5133 44.5995 34.7044 52.3533 43.9733 60.5379C44.4044 60.9687 44.8356 61.1841 45.0511 61.3995V60.5379C44.1889 59.2456 43.7578 57.9533 43.7578 55.7995L43.5422 35.5533Z" fill="#3D424D" style="fill:#3D424D;fill:color(display-p3 0.2392 0.2588 0.3020);fill-opacity:1;"/>
</g>
<defs>
<clipPath id="clip0_23_2165">
<rect width="194" height="140" fill="white" style="fill:white;fill-opacity:1;" transform="translate(0 0.230225)"/>
</clipPath>
</defs>
</svg>
