<svg width="127" height="40" viewBox="0 0 127 40" fill="none" xmlns="http://www.w3.org/2000/svg">
<g id="Group_2 1" clip-path="url(#clip0_6_3050)">
<path id="Vector" d="M120.627 32.4084V29.1995H119.501V28.6709H122.358V29.1995H121.247V32.4084H120.627ZM126.089 32.4084V29.6421L124.825 31.2896L123.56 29.6421V32.4084H122.902V28.7199H123.522L124.786 30.4166L126.051 28.7199H126.658V32.4084H126.089Z" fill="black" style="fill:black;fill-opacity:1;"/>
<path id="Vector_2" d="M60.9712 31.8309C61.6615 31.5907 62.2534 31.1403 62.659 30.5465C63.0646 29.9529 63.2621 29.2477 63.222 28.5359C63.222 26.2491 61.4643 24.7859 58.7205 24.7859H53.1064V39.5395H58.7711C61.8184 39.5395 63.7657 37.9413 63.7657 35.4209C63.7979 34.6008 63.5373 33.7951 63.0279 33.1406C62.5184 32.4862 61.7919 32.0234 60.9712 31.8309ZM54.6491 26.0769H58.6068C60.5287 26.0769 61.7551 27.0974 61.7551 28.7327C61.7551 30.3678 60.5792 31.2898 58.708 31.2898H54.6112L54.6491 26.0769ZM58.8597 38.2855H54.6112V32.544H58.8217C61.0471 32.544 62.3621 33.5767 62.3621 35.3717C62.3621 37.1667 60.9839 38.2855 58.8217 38.2855H58.8597ZM66.8383 24.9704C66.6482 24.9704 66.4623 25.0253 66.3043 25.1279C66.1462 25.2306 66.0232 25.3766 65.9504 25.5473C65.8777 25.7179 65.8586 25.9059 65.8957 26.0871C65.9328 26.2683 66.0243 26.4349 66.1587 26.5655C66.2931 26.6962 66.4644 26.7851 66.6507 26.8213C66.8371 26.8574 67.0304 26.8389 67.206 26.7681C67.3816 26.6974 67.5317 26.5776 67.6369 26.424C67.7432 26.2703 67.799 26.0897 67.799 25.9048C67.8024 25.7813 67.7804 25.6582 67.7332 25.5433C67.6858 25.4285 67.6157 25.324 67.5254 25.2366C67.4355 25.1491 67.3281 25.0803 67.21 25.0346C67.0919 24.9889 66.9654 24.967 66.8383 24.9704ZM66.1302 28.7327H67.5462V39.5642H66.1302V28.7327ZM74.7031 28.4621C71.7317 28.4621 69.7467 30.7489 69.7467 34.1914C69.7467 37.6339 71.719 39.8715 74.665 39.8715C77.6112 39.8715 79.6595 37.5848 79.6595 34.1422C79.6595 30.6998 77.6619 28.4621 74.7031 28.4621ZM74.7031 38.6298C72.5662 38.6298 71.1751 36.8962 71.1751 34.1669C71.1751 31.4374 72.5662 29.7039 74.7031 29.7039C76.8401 29.7039 78.2312 31.4374 78.2312 34.1669C78.2312 36.8962 76.8274 38.6298 74.6904 38.6298H74.7031ZM85.8549 38.6666C83.8193 38.6666 82.4789 36.8717 82.4789 34.1914C82.4789 31.5112 83.8573 29.6671 85.9563 29.6671C86.6328 29.6802 87.2873 29.9033 87.8237 30.3037C88.361 30.7039 88.752 31.2606 88.9404 31.8923L90.2048 31.3267C89.8932 30.4826 89.3196 29.7535 88.5628 29.2403C87.806 28.7272 86.9039 28.4552 85.9816 28.4621C83.0482 28.4621 81.0632 30.7735 81.0632 34.2037C81.0632 37.6339 82.9848 39.8715 85.8549 39.8715C86.806 39.8534 87.7292 39.5592 88.5062 39.0269C89.2841 38.4945 89.8796 37.7481 90.2175 36.884L88.953 36.2815C88.7377 36.9326 88.328 37.5069 87.7764 37.9314C87.2249 38.3561 86.5567 38.6119 85.8549 38.6666ZM100.51 36.7241V31.9662C100.51 29.5809 99.2458 28.4129 96.641 28.4129C95.0032 28.4262 93.3958 28.8496 91.9751 29.6424L92.4685 30.7858C93.6585 30.0258 95.0411 29.6003 96.4636 29.5563C98.2593 29.5563 99.0938 30.3309 99.0938 32.0152V32.839C93.4296 33.1464 91.6086 34.0685 91.6086 36.4168C91.5968 36.8911 91.6888 37.3625 91.8798 37.7993C92.0706 38.236 92.3552 38.6282 92.7142 38.9495C93.0732 39.2707 93.4989 39.5137 93.9626 39.6622C94.4254 39.8105 94.9162 39.861 95.4018 39.8101C96.825 39.8026 98.1875 39.2506 99.1952 38.2733C99.2577 38.6115 99.4063 38.9291 99.6268 39.1975C99.8481 39.4658 100.134 39.6763 100.46 39.8101L101.357 39.0355C100.661 38.6421 100.51 38.1135 100.51 36.7241ZM99.0938 37.1667C98.6774 37.6403 98.1621 38.0224 97.5828 38.2873C97.0025 38.5523 96.3715 38.6942 95.7304 38.7035C94.0487 38.7035 93.0251 37.8675 93.0251 36.4782C93.0251 34.7693 94.2894 34.2038 99.0938 33.8963V37.1667ZM104.759 30.4538V28.7449H103.355V39.5765H104.759V31.7448C105.131 31.1658 105.644 30.6849 106.253 30.344C106.861 30.0032 107.546 29.8129 108.248 29.7899C108.601 29.7923 108.952 29.8294 109.298 29.9006V28.5359C108.967 28.4911 108.633 28.4665 108.299 28.4621C107.583 28.473 106.882 28.6617 106.262 29.0103C105.643 29.359 105.125 29.8559 104.759 30.4538ZM114.47 28.4867C111.562 28.4867 109.588 30.8227 109.588 34.2529C109.588 37.6831 111.562 39.8961 114.646 39.8961C116.158 39.9018 117.613 39.3377 118.705 38.3224L118.023 37.3143C117.586 37.7461 117.068 38.0899 116.494 38.3262C115.921 38.5625 115.307 38.6865 114.684 38.6913C112.522 38.6913 111.157 37.2528 110.967 34.7569H119.098V34.1299C119.136 30.7367 117.314 28.4867 114.47 28.4867ZM111.018 33.675C111.132 31.3022 112.497 29.6915 114.444 29.6915C116.391 29.6915 117.592 31.2283 117.719 33.675H111.018ZM63.0449 16.9666H62.9943L56.1538 6.71289H53.157V21.5157H55.7238V10.6349H55.7618L63.0449 21.5157H65.6117V6.71289H63.0449V16.9666ZM77.9271 16.0691C77.9271 12.5528 75.7395 10.389 72.7055 10.389C69.6707 10.389 67.4452 12.5528 67.4452 16.1183C67.4452 19.6838 69.62 21.7984 72.6674 21.7984C75.7142 21.7984 77.9271 19.6714 77.9271 16.0691ZM70.012 16.0691C70.012 13.8192 71.099 12.5282 72.6801 12.5282C74.2605 12.5282 75.3602 13.7577 75.3602 16.0691C75.3602 18.3805 74.2732 19.6714 72.6801 19.6714C71.0863 19.6714 70.012 18.3437 70.012 16.0937V16.0691ZM82.0996 20.2985C82.484 20.7712 82.9746 21.1521 83.533 21.4121C84.0921 21.6721 84.7045 21.8042 85.3245 21.7984C88.2326 21.7984 90.1668 19.4624 90.1668 15.9707C90.1668 12.4791 88.3465 10.389 85.501 10.389C84.9038 10.383 84.3117 10.4943 83.7602 10.7161C83.2087 10.9379 82.7077 11.2657 82.2897 11.68V6.76209H79.7609V21.5157H82.0245L82.0996 20.2985ZM82.2897 13.7577C82.5895 13.3821 82.9729 13.0767 83.4105 12.864C83.8481 12.6512 84.3295 12.5365 84.8185 12.5282C86.5636 12.5282 87.5999 13.7577 87.5999 16.0322C87.5999 18.3067 86.5256 19.6714 84.7932 19.6714C84.3033 19.6678 83.8201 19.555 83.3817 19.3418C82.9434 19.1287 82.5617 18.8209 82.2643 18.4421L82.2897 13.7577ZM96.8183 10.389C93.7075 10.389 91.634 12.7003 91.634 16.1552C91.634 19.6099 93.7075 21.7984 97.0329 21.7984C98.6132 21.8079 100.145 21.272 101.357 20.2862L100.219 18.5158C99.3675 19.2667 98.2703 19.7021 97.1215 19.7453C95.4905 19.7453 94.5041 18.8109 94.2514 17.0158H101.737V15.9831C101.737 12.5775 99.8143 10.389 96.8183 10.389ZM94.2894 15.3069C94.2894 13.561 95.3512 12.3685 96.8183 12.3685C98.2846 12.3685 99.1952 13.5119 99.2585 15.3069H94.2894ZM106.212 21.6755C106.904 21.6622 107.59 21.5503 108.248 21.3435L108.033 19.4255C107.749 19.5026 107.456 19.544 107.161 19.5485C106.579 19.5485 106.276 19.2657 106.276 18.651V6.72519H103.684V19.192C103.639 19.5263 103.673 19.8662 103.784 20.1856C103.895 20.5051 104.08 20.7958 104.323 21.0353C104.567 21.275 104.864 21.4571 105.192 21.5681C105.519 21.6791 105.869 21.7158 106.212 21.6755Z" fill="black" style="fill:black;fill-opacity:1;"/>
<path id="Vector_3" d="M35.6191 5.70473V34.093C35.6191 34.292 35.5378 34.4827 35.3932 34.6233C35.2484 34.764 35.0523 34.843 34.8478 34.843H29.3095C27.5141 34.843 26.9071 34.6094 26.3255 33.8226L12.6444 15.4175C12.5324 15.327 12.3965 15.269 12.252 15.2505C12.1077 15.232 11.961 15.2536 11.8288 15.3127C11.6965 15.3719 11.5841 15.4662 11.5047 15.5848C11.4252 15.7034 11.382 15.8415 11.3799 15.9831V21.1345C11.3793 21.2557 11.4035 21.3757 11.4513 21.4875C11.4991 21.5995 11.5694 21.701 11.658 21.7861L23.1645 37.7691C23.6481 38.405 24.2915 38.9097 25.0332 39.2347C25.7748 39.5598 26.5899 39.6944 27.4002 39.6256H39.9308C40.1352 39.6256 40.3315 39.5466 40.4762 39.4059C40.6207 39.2654 40.702 39.0746 40.702 38.8757V0.749963C40.702 0.551065 40.6207 0.360311 40.4762 0.219678C40.3315 0.0790436 40.1352 0 39.9308 0H29.1831C28.9785 0 28.7822 0.0790436 28.6377 0.219678C28.493 0.360311 28.4117 0.551065 28.4117 0.749963V4.1925C28.4117 4.39139 28.493 4.58215 28.6377 4.72278C28.7822 4.86342 28.9785 4.94246 29.1831 4.94246H34.8478C34.9501 4.94246 35.0514 4.96224 35.1459 5.00073C35.2402 5.03913 35.3259 5.09548 35.3977 5.16646C35.4694 5.23736 35.5259 5.32155 35.564 5.4139C35.602 5.50633 35.6206 5.60515 35.6191 5.70473Z" fill="#A22C35" style="fill:#A22C35;fill:color(display-p3 0.6353 0.1725 0.2078);fill-opacity:1;"/>
<path id="Vector_4" d="M5.05772 33.9021V5.51365C5.05772 5.41416 5.07807 5.31558 5.11759 5.22382C5.15722 5.13198 5.21515 5.04878 5.28813 4.97896C5.36102 4.90914 5.4476 4.85419 5.54262 4.81721C5.63765 4.78031 5.73934 4.7621 5.84171 4.76368H11.3799C13.1754 4.76368 13.7697 4.98503 14.3513 5.78419L27.9819 24.2262C28.0891 24.3346 28.2273 24.4094 28.3786 24.4405C28.53 24.4717 28.6875 24.4578 28.8306 24.4008C28.9738 24.3438 29.096 24.2462 29.1814 24.1208C29.2668 23.9953 29.3115 23.8479 29.3095 23.6975V18.4599C29.3095 18.2017 29.2337 18.1033 29.0314 17.8083L17.5251 1.82526C17.0372 1.20296 16.3951 0.710823 15.659 0.394813C14.9227 0.0788019 14.1162 -0.0508601 13.3145 0.0179606H0.771326C0.566755 0.0179606 0.370544 0.0970042 0.225941 0.237638C0.0812544 0.378272 0 0.569025 0 0.767925V38.8814C0 39.0802 0.0812544 39.271 0.225941 39.4117C0.370544 39.5523 0.566755 39.6313 0.771326 39.6313H11.519C11.6213 39.6329 11.723 39.6147 11.818 39.5777C11.9131 39.5409 11.9995 39.4858 12.0725 39.416C12.1455 39.3462 12.2034 39.263 12.243 39.1712C12.2826 39.0794 12.303 38.9809 12.303 38.8814V35.4387C12.303 35.3393 12.2826 35.2407 12.243 35.1489C12.2034 35.0571 12.1455 34.9739 12.0725 34.9041C11.9995 34.8343 11.9131 34.7793 11.818 34.7424C11.723 34.7055 11.6213 34.6872 11.519 34.6888H5.86696C5.75927 34.6942 5.65158 34.6775 5.55099 34.6398C5.4503 34.6021 5.35892 34.5443 5.28263 34.4702C5.20637 34.396 5.14699 34.3072 5.10822 34.2093C5.06954 34.1114 5.0523 34.0067 5.05772 33.9021Z" fill="#A22C35" style="fill:#A22C35;fill:color(display-p3 0.6353 0.1725 0.2078);fill-opacity:1;"/>
</g>
<defs>
<clipPath id="clip0_6_3050">
<rect width="127" height="40" fill="white" style="fill:white;fill-opacity:1;"/>
</clipPath>
</defs>
</svg>
